<?xml version="1.0" encoding="UTF-8" standalone="no"?>
<svg
   xmlns:dc="http://purl.org/dc/elements/1.1/"
   xmlns:cc="http://creativecommons.org/ns#"
   xmlns:rdf="http://www.w3.org/1999/02/22-rdf-syntax-ns#"
   xmlns:svg="http://www.w3.org/2000/svg"
   xmlns="http://www.w3.org/2000/svg"
   viewBox="0 0 459.02063 193.98125"
   height="193.98125"
   width="459.02063"
   xml:space="preserve"
   version="1.1"
   id="svg2"><metadata
     id="metadata8"><rdf:RDF><cc:Work
         rdf:about=""><dc:format>image/svg+xml</dc:format><dc:type
           rdf:resource="http://purl.org/dc/dcmitype/StillImage" /><dc:title></dc:title></cc:Work></rdf:RDF></metadata><defs
     id="defs6" /><g
     transform="matrix(1.25,0,0,-1.25,-83.694375,430.3425)"
     id="g10"><path
       d="m 311.765,283.807 -12.684,6.19 12.684,6.191 -48.088,24.043 48.088,24.043 61.204,-30.599 -61.204,-29.868"
       style="opacity:0.85399996;fill:#ffffff;fill-opacity:1;fill-rule:nonzero;stroke:none"
       id="path14" /><path
       d="m 250.564,266.317 -13.435,6.557 13.435,6.558 -47.359,23.677 47.359,23.678 13.113,-6.556 -13.113,-6.556 48.517,-23.678 -48.517,-23.68"
       style="opacity:0.703;fill:#ffffff;fill-opacity:1;fill-rule:nonzero;stroke:none"
       id="path16" /><path
       d="m 299.081,289.997 -48.517,23.678 13.113,6.556 48.088,-24.043 -12.684,-6.191"
       style="opacity:0.92000002;fill:#ffffff;fill-opacity:1;fill-rule:nonzero;stroke:none"
       id="path18" /><path
       d="m 217.972,263.523 -28.612,14.307 -14.792,-7.397 -32.206,16.101 46.998,23.497 13.845,-6.922 -13.845,-6.921 47.769,-23.314 -19.157,-9.351"
       style="opacity:0.58899997;fill:#ffffff;fill-opacity:1;fill-rule:nonzero;stroke:none"
       id="path20" /><path
       d="m 237.129,272.874 -47.769,23.314 13.845,6.921 47.359,-23.677 -13.435,-6.558"
       style="opacity:0.89099995;fill:#ffffff;fill-opacity:1;fill-rule:nonzero;stroke:none"
       id="path22" /><path
       d="m 128.157,233.164 -61.2015,29.874 61.2015,30.599 14.205,-7.103 -14.205,-7.102 32.591,-15.909 -32.591,-16.298 14.404,-7.03 -14.404,-7.031"
       style="opacity:0.281;fill:#ffffff;fill-opacity:1;fill-rule:nonzero;stroke:none"
       id="path24" /><path
       d="m 160.748,263.523 -32.591,15.909 14.205,7.102 32.206,-16.101 -13.82,-6.91"
       style="opacity:0.79000005;fill:#ffffff;fill-opacity:1;fill-rule:nonzero;stroke:none"
       id="path26" /><path
       d="m 189.36,217.354 -46.799,22.841 32.989,16.102 13.81,-6.742 28.612,13.968 18.604,-9.303 -47.216,-23.611 13.579,-6.627 -13.579,-6.628"
       style="opacity:0.58899997;fill:#ffffff;fill-opacity:1;fill-rule:nonzero;stroke:none"
       id="path28" /><path
       d="m 189.36,249.555 -13.81,6.742 13.81,6.741 -14.792,7.395 14.792,7.397 28.612,-14.307 -28.612,-13.968"
       style="opacity:0.76700003;fill:#ffffff;fill-opacity:1;fill-rule:nonzero;stroke:none"
       id="path30" /><path
       d="m 142.561,240.195 -14.404,7.03 32.591,16.298 14.802,-7.226 -32.989,-16.102"
       style="opacity:0.79000005;fill:#ffffff;fill-opacity:1;fill-rule:nonzero;stroke:none"
       id="path32" /><path
       d="m 175.55,256.297 -14.802,7.226 13.82,6.91 14.792,-7.395 -13.81,-6.741"
       style="opacity:0.878;fill:#ffffff;fill-opacity:1;fill-rule:nonzero;stroke:none"
       id="path34" /><path
       d="m 250.564,200.739 -47.625,23.243 47.625,23.243 -13.988,6.995 13.988,6.994 42.255,-21.13 -42.255,-21.124 18.666,-9.111 -18.666,-9.11"
       style="opacity:0.703;fill:#ffffff;fill-opacity:1;fill-rule:nonzero;stroke:none"
       id="path36" /><path
       d="m 202.939,223.982 -13.579,6.627 47.216,23.611 13.988,-6.995 -47.625,-23.243"
       style="opacity:0.89099995;fill:#ffffff;fill-opacity:1;fill-rule:nonzero;stroke:none"
       id="path38" /><path
       d="m 311.765,189.089 -42.535,20.76 42.535,20.76 -18.946,9.475 18.946,9.471 61.204,-30.595 -61.204,-29.871"
       style="opacity:0.85399996;fill:#ffffff;fill-opacity:1;fill-rule:nonzero;stroke:none"
       id="path40" /><path
       d="m 269.23,209.849 -18.666,9.111 42.255,21.124 18.946,-9.475 -42.535,-20.76"
       style="opacity:0.92000002;fill:#ffffff;fill-opacity:1;fill-rule:nonzero;stroke:none"
       id="path42" /><path
       d="m 311.765,265.583 61.204,30.605 61.203,-30.605 -61.203,-29.871 -61.204,29.871"
       style="fill:#ffffff;fill-opacity:1;fill-rule:nonzero;stroke:none"
       id="path44" /></g></svg>