<?xml version="1.0" encoding="UTF-8" standalone="no"?>
<svg width="90px" height="90px" viewBox="0 0 90 90" version="1.1" xmlns="http://www.w3.org/2000/svg" xmlns:xlink="http://www.w3.org/1999/xlink">
    <!-- Generator: Sketch 46.2 (44496) - http://www.bohemiancoding.com/sketch -->
    <title>Group</title>
    <desc>Created with Sketch.</desc>
    <defs></defs>
    <g id="Page-1" stroke="none" stroke-width="1" fill="none" fill-rule="evenodd">
        <g id="services_01" fill-rule="nonzero" fill="#55A9F6">
            <g id="Group">
                <path d="M59.582,12.696 L47.258,0 L46.449,4.554 C45.994,4.538 45.553,4.486 45.097,4.486 C27.27,4.486 12.167,15.995 6.714,31.975 L13.606,25.282 L17.651,33.681 C22.053,23.099 32.4,15.621 44.526,15.39 L43.641,20.378 L59.582,12.696 Z" id="Shape"></path>
                <path d="M15.417,45.481 L20.38,46.363 L12.696,30.416 L0.002,42.744 L4.591,43.559 C4.573,44.065 4.515,44.559 4.515,45.069 C4.515,62.968 16.119,78.133 32.209,83.524 L25.284,76.394 L33.514,72.431 C22.983,67.965 15.586,57.603 15.417,45.481 Z" id="Shape"></path>
                <path d="M76.396,64.719 L72.484,56.594 C68.027,67.175 57.615,74.604 45.454,74.751 L46.365,69.622 L30.418,77.306 L42.746,90 L43.533,85.571 C44.057,85.591 44.569,85.653 45.098,85.653 C63.108,85.653 78.356,73.904 83.66,57.663 L76.396,64.719 Z" id="Shape"></path>
                <path d="M85.543,46.469 L85.61,46.481 C85.622,46.007 85.676,45.546 85.676,45.069 C85.676,27.132 74.025,11.942 57.892,6.577 L64.714,13.606 L56.41,17.606 C67.044,21.991 74.553,32.377 74.762,44.552 L69.617,43.637 L77.301,59.586 L89.997,47.261 L85.543,46.469 Z" id="Shape"></path>
            </g>
        </g>
    </g>
</svg>