<?xml version="1.0" encoding="UTF-8" standalone="no"?>
<svg width="60px" height="82px" viewBox="0 0 60 82" version="1.1" xmlns="http://www.w3.org/2000/svg" xmlns:xlink="http://www.w3.org/1999/xlink">
    <!-- Generator: Sketch 46.2 (44496) - http://www.bohemiancoding.com/sketch -->
    <title>Shape</title>
    <desc>Created with Sketch.</desc>
    <defs></defs>
    <g id="Page-1" stroke="none" stroke-width="1" fill="none" fill-rule="evenodd">
        <g id="services_06" fill-rule="nonzero" fill="#000000">
            <path d="M2,-2.99999999e-05 C0.895476248,8.04358107e-05 0.000110435811,0.895446248 0,1.99997 L0,80.00002 C0.000110435811,81.1045438 0.895476248,81.9999096 2,82.00002 L58,82.00002 C59.1045238,81.9999096 59.9998896,81.1045438 60,80.00002 L60,1.99997 C59.9998896,0.895446248 59.1045238,8.04358107e-05 58,-3e-05 L2,-3e-05 L2,-2.99999999e-05 Z M4,3.99997 L56,3.99997 L56,78.00002 L4,78.00002 L4,3.99997 Z M10,7.99997 C8.89547625,8.00008044 8.00011044,8.89544625 8,9.99997 L8,23.99993 C8.00011044,25.1044538 8.89547625,25.9998196 10,25.99993 L50,25.99993 C51.1045238,25.9998196 51.9998896,25.1044538 52,23.99993 L52,9.99997 C51.9998896,8.89544625 51.1045238,8.00008044 50,7.99997 L10,7.99997 L10,7.99997 Z M12,11.99997 L48,11.99997 L48,21.99997 L12,21.99997 L12,11.99997 Z M10,29.99993 C8.89547625,30.0000404 8.00011044,30.8954062 8,31.99993 L8,39.99992 C8.00011044,41.1044438 8.89547625,41.9998096 10,41.99992 L18,41.99992 C19.1045238,41.9998096 19.9998896,41.1044438 20,39.99992 L20,31.99993 C19.9998896,30.8954062 19.1045238,30.0000404 18,29.99993 L10,29.99993 L10,29.99993 Z M26,29.99993 C24.8954762,30.0000404 24.0001104,30.8954062 24,31.99993 L24,39.99992 C24.0001104,41.1044438 24.8954762,41.9998096 26,41.99992 L34,41.99992 C35.1045238,41.9998096 35.9998896,41.1044438 36,39.99992 L36,31.99993 C35.9998896,30.8954062 35.1045238,30.0000404 34,29.99993 L26,29.99993 L26,29.99993 Z M42,29.99993 C40.8954762,30.0000404 40.0001104,30.8954062 40,31.99993 L40,39.99992 C40.0001104,41.1044438 40.8954762,41.9998096 42,41.99992 L50,41.99992 C51.1045238,41.9998096 51.9998896,41.1044438 52,39.99992 L52,31.99993 C51.9998896,30.8954062 51.1045238,30.0000404 50,29.99993 L42,29.99993 L42,29.99993 Z M12,33.99993 L16,33.99993 L16,37.99993 L12,37.99993 L12,33.99993 Z M28,33.99993 L32,33.99993 L32,37.99993 L28,37.99993 L28,33.99993 Z M44,33.99993 L48,33.99993 L48,37.99993 L44,37.99993 L44,33.99993 Z M10,45.99992 C8.8954372,46.0000304 8.00005522,46.8954572 8,48.00002 L8,56.00002 C8.00011044,57.1045438 8.89547625,57.9999096 10,58.00002 L18,58.00002 C19.1045238,57.9999096 19.9998896,57.1045438 20,56.00002 L20,48.00002 C19.9999448,46.8954572 19.1045628,46.0000304 18,45.99992 L10,45.99992 L10,45.99992 Z M26,45.99992 C24.8954372,46.0000304 24.0000552,46.8954572 24,48.00002 L24,56.00002 C24.0001104,57.1045438 24.8954762,57.9999096 26,58.00002 L34,58.00002 C35.1045238,57.9999096 35.9998896,57.1045438 36,56.00002 L36,48.00002 C35.9999448,46.8954572 35.1045628,46.0000304 34,45.99992 L26,45.99992 L26,45.99992 Z M42,45.99992 C40.8954372,46.0000304 40.0000552,46.8954572 40,48.00002 L40,72.00002 C40.0001104,73.1045438 40.8954762,73.9999096 42,74.00002 L50,74.00002 C51.1045238,73.9999096 51.9998896,73.1045438 52,72.00002 L52,48.00002 C51.9999448,46.8954572 51.1045628,46.0000304 50,45.99992 L42,45.99992 L42,45.99992 Z M12,50.00002 L16,50.00002 L16,54.00002 L12,54.00002 L12,50.00002 Z M28,50.00002 L32,50.00002 L32,54.00002 L28,54.00002 L28,50.00002 Z M44,50.00002 L48,50.00002 L48,70.00002 L44,70.00002 L44,50.00002 Z M10,62.00002 C8.89547625,62.0001304 8.00011044,62.8954962 8,64.00002 L8,72.00002 C8.00011044,73.1045438 8.89547625,73.9999096 10,74.00002 L18,74.00002 C19.1045238,73.9999096 19.9998896,73.1045438 20,72.00002 L20,64.00002 C19.9998896,62.8954962 19.1045238,62.0001304 18,62.00002 L10,62.00002 L10,62.00002 Z M26,62.00002 C24.8954762,62.0001304 24.0001104,62.8954962 24,64.00002 L24,72.00002 C24.0001104,73.1045438 24.8954762,73.9999096 26,74.00002 L34,74.00002 C35.1045238,73.9999096 35.9998896,73.1045438 36,72.00002 L36,64.00002 C35.9998896,62.8954962 35.1045238,62.0001304 34,62.00002 L26,62.00002 L26,62.00002 Z M12,66.00002 L16,66.00002 L16,70.00002 L12,70.00002 L12,66.00002 Z M28,66.00002 L32,66.00002 L32,70.00002 L28,70.00002 L28,66.00002 Z" id="Shape"></path>
        </g>
    </g>
</svg>