<?xml version="1.0" encoding="UTF-8" standalone="no"?>
<svg width="80px" height="80px" viewBox="0 0 24 23" version="1.1" xmlns="http://www.w3.org/2000/svg" xmlns:xlink="http://www.w3.org/1999/xlink">
    <!-- Generator: Sketch 46.2 (44496) - http://www.bohemiancoding.com/sketch -->
    <title>Group</title>
    <desc>Created with Sketch.</desc>
    <defs></defs>
    <g id="Page-1" stroke="none" stroke-width="1" fill="none" fill-rule="evenodd">
        <g id="services_05" fill-rule="nonzero" fill="#000000">
            <g id="Group">
                <path d="M22,1 L22,11 L10,11 L10,12 L22,12 C22.553,12 23,11.553 23,11 L23,1 C23,0.447 22.553,0 22,0 L8,0 C7.447,0 7,0.447 7,1 L7,4 L8,4 L8,1 L22,1 Z" id="Shape"></path>
                <path d="M23,13 L10,13 L10,15 L23,15 C23.553,15 24,14.553 24,14 C24,13.447 23.553,13 23,13 Z" id="Shape"></path>
                <path d="M1,23 L8,23 C8.553,23 9,22.553 9,22 L9,6 C9,5.447 8.553,5 8,5 L1,5 C0.447,5 0,5.447 0,6 L0,22 C0,22.553 0.447,23 1,23 Z M4.5,22 C4.224,22 4,21.776 4,21.5 C4,21.224 4.224,21 4.5,21 C4.776,21 5,21.224 5,21.5 C5,21.776 4.776,22 4.5,22 Z M3,6 L6,6 L6,7 L3,7 L3,6 Z M1,8 L8,8 L8,20 L1,20 L1,8 Z" id="Shape"></path>
                <polygon id="Shape" points="6 2 6 1 3 1 3 4 4 4 4 2"></polygon>
            </g>
        </g>
    </g>
</svg>