<?xml version="1.0" encoding="UTF-8" standalone="no"?>
<svg width="62px" height="62px" viewBox="0 0 62 62" version="1.1" xmlns="http://www.w3.org/2000/svg" xmlns:xlink="http://www.w3.org/1999/xlink">
    <!-- Generator: Sketch 46.2 (44496) - http://www.bohemiancoding.com/sketch -->
    <title>Group</title>
    <desc>Created with Sketch.</desc>
    <defs></defs>
    <g id="Page-1" stroke="none" stroke-width="1" fill="none" fill-rule="evenodd">
        <g id="services_04" fill-rule="nonzero" fill="#000000">
            <g id="Group">
                <path d="M62,18 L62,12 L58,12 L58,0 L48,0 L48,12 L46,12 L46,0 L36,0 L36,12 L26,12 L26,4 L28,4 L28,2 L16,2 L16,0 L14,0 L14,2 L2,2 L2,4 L4,4 L4,12 L0,12 L0,18 L2,18 L2,60 L0,60 L0,62 L62,62 L62,60 L60,60 L60,18 L62,18 Z M56,2 L56,4 L50,4 L50,2 L56,2 Z M50,6 L56,6 L56,12 L50,12 L50,6 Z M44,2 L44,4 L38,4 L38,2 L44,2 Z M38,6 L44,6 L44,12 L38,12 L38,6 Z M6,4 L24,4 L24,12 L22,12 L22,6 L8,6 L8,12 L6,12 L6,4 Z M10,12 L10,8 L14,8 L14,12 L10,12 Z M16,8 L20,8 L20,12 L16,12 L16,8 Z M2,14 L60,14 L60,16 L2,16 L2,14 Z M30,44 L30,51 L28,51 L28,53 L30,53 L30,60 L22,60 L22,44 L30,44 Z M32,51 L32,44 L40,44 L40,60 L32,60 L32,53 L34,53 L34,51 L32,51 Z M58,60 L42,60 L42,44 L44,44 L44,42 L18,42 L18,44 L20,44 L20,60 L4,60 L4,18 L58,18 L58,60 Z" id="Shape"></path>
                <path d="M56,22 L6,22 L6,40 L56,40 L56,22 Z M30,30 L24,30 L24,24 L30,24 L30,30 Z M32,24 L38,24 L38,30 L32,30 L32,24 Z M22,30 L16,30 L16,24 L22,24 L22,30 Z M22,32 L22,38 L16,38 L16,32 L22,32 Z M24,32 L30,32 L30,38 L24,38 L24,32 Z M32,32 L38,32 L38,38 L32,38 L32,32 Z M40,32 L46,32 L46,38 L40,38 L40,32 Z M40,30 L40,24 L46,24 L46,30 L40,30 Z M14,24 L14,30 L8,30 L8,24 L14,24 Z M8,32 L14,32 L14,38 L8,38 L8,32 Z M48,38 L48,32 L50,32 L50,30 L48,30 L48,24 L54,24 L54,30 L52,30 L52,32 L54,32 L54,38 L48,38 Z" id="Shape"></path>
                <path d="M46,52 L56,52 L56,42 L46,42 L46,52 Z M48,44 L54,44 L54,50 L48,50 L48,44 Z" id="Shape"></path>
                <path d="M16,52 L16,42 L6,42 L6,52 L16,52 Z M8,44 L14,44 L14,50 L8,50 L8,44 Z" id="Shape"></path>
            </g>
        </g>
    </g>
</svg>