<?xml version="1.0" encoding="UTF-8" standalone="no"?>
<svg width="96px" height="99px" viewBox="0 0 96 99" version="1.1" xmlns="http://www.w3.org/2000/svg" xmlns:xlink="http://www.w3.org/1999/xlink">
    <!-- Generator: Sketch 46.2 (44496) - http://www.bohemiancoding.com/sketch -->
    <title>services_02</title>
    <desc>Created with Sketch.</desc>
    <defs></defs>
    <g id="Page-1" stroke="none" stroke-width="1" fill="none" fill-rule="evenodd">
        <g id="services_02" fill-rule="nonzero" fill="#000000">
            <path d="M20.78,24.94 C27.407417,24.94 32.78,19.567417 32.78,12.94 C32.78,6.312583 27.407417,0.94 20.78,0.94 C14.152583,0.94 8.78,6.312583 8.78,12.94 C8.78,19.567417 14.152583,24.94 20.78,24.94 Z M20.78,6 C24.6459932,6 27.78,9.13400675 27.78,13 C27.78,16.8659932 24.6459932,20 20.78,20 C16.9140068,20 13.78,16.8659932 13.78,13 C13.78,9.13400675 16.9140068,6 20.78,6 Z" id="Shape"></path>
            <path d="M93.19,94 L87.19,94 L87.19,60.18 L91.65,63.74 C92.3484542,64.2973343 93.2911869,64.4397116 94.1230797,64.1134996 C94.9549725,63.7872877 95.5496411,63.0420459 95.6830797,62.1584996 C95.8165182,61.2749534 95.4684542,60.3873343 94.77,59.83 L61.77,33.53 C60.857605,32.8014145 59.562395,32.8014145 58.65,33.53 L25.65,59.83 C24.9515457,60.3873343 24.6034817,61.2749534 24.7369203,62.1584997 C24.8703588,63.0420459 25.4650275,63.7872878 26.2969203,64.1134997 C27.1288131,64.4397116 28.0715458,64.2973344 28.77,63.74 L33.23,60.18 L33.23,94 L17.42,94 C17.0008439,93.9955783 16.6561754,93.6683614 16.63,93.25 L12.48,62.89 C12.3510098,61.9752203 11.7280535,61.2061384 10.86,60.89 C9.1870593,60.2778148 8.00537738,58.770686 7.81,57 L5.35,38.48 C5.16901093,36.7931919 5.71056939,35.1086037 6.84060998,33.8432631 C7.97065057,32.5779226 9.58354009,31.8501104 11.28,31.84 L13.39,31.84 L17.95,37.53 C18.6510755,38.3714815 19.6897384,38.8580358 20.785,38.8580358 C21.8802616,38.8580358 22.9189245,38.3714815 23.62,37.53 L28.18,31.84 L30.29,31.84 C31.9864599,31.8501104 33.5993494,32.5779226 34.72939,33.8432631 C35.8594306,35.1086037 36.4009891,36.7931919 36.22,38.48 C36.1199656,39.373164 36.5040273,40.2518493 37.2275129,40.7850636 C37.9509984,41.3182779 38.903993,41.4250133 39.7275129,41.0650636 C40.5510328,40.7051139 41.1199657,39.933164 41.22,39.04 C41.5604133,35.9383085 40.5675217,32.8379852 38.4885842,30.511101 C36.4096467,28.1842168 33.4403007,26.8497421 30.32,26.84 L27,26.84 C26.2235176,26.8256793 25.4844754,27.1730292 25,27.78 L20.76,33.07 L16.52,27.78 C16.0355246,27.1730292 15.2964824,26.8256793 14.52,26.84 L11.28,26.84 C8.15170068,26.851017 5.17606676,28.1934838 3.09760647,30.531513 C1.01914618,32.8695423 0.0344898374,35.9819475 0.39,39.09 L2.85,57.56 C3.19055294,60.652904 5.00455267,63.3906654 7.72,64.91 L11.72,93.91 C12.0715902,96.7976395 14.5111331,98.9761085 17.42,99 L93.19,99 C94.5707119,99 95.69,97.8807119 95.69,96.5 C95.69,95.1192881 94.5707119,94 93.19,94 Z M38.29,56.19 L60.23,38.69 L82.16,56.19 L82.16,94 L38.29,94 L38.29,56.19 Z" id="Shape"></path>
            <path d="M71,65.21 C70.6221918,64.664821 70.0432162,64.2921293 69.3905312,64.1739708 C68.7378461,64.0558123 68.0649583,64.2018735 67.52,64.58 C63.6452958,67.271034 60.1766382,70.5039577 57.22,74.18 C55.9323775,72.7306341 54.4196628,71.4981768 52.74,70.53 C51.5453501,69.8507743 50.0264489,70.2631461 49.3393137,71.4532642 C48.6521785,72.6433824 49.054466,74.1649856 50.24,74.86 C52.2196249,76.0067374 53.8615729,77.6555844 55,79.64 C55.4273175,80.3819256 56.2045896,80.8535714 57.06,80.89 L57.17,80.89 C57.9871362,80.8897927 58.7525981,80.490259 59.22,79.82 C62.2452992,75.4731571 66.0250294,71.7035875 70.38,68.69 C71.5119219,67.9000654 71.7894637,66.3422504 71,65.21 Z" id="Shape"></path>
        </g>
    </g>
</svg>