<svg xmlns="http://www.w3.org/2000/svg" xmlns:xlink="http://www.w3.org/1999/xlink" version="1.1" x="0px" y="0px" viewBox="0 0 64 80" style="enable-background:new 0 0 64 64;" xml:space="preserve"><g><path d="M63,19v-6h-4V1H49v12h-2V1H37v12H27V5h2V3H17V1h-2v2H3v2h2v8H1v6h2v42H1v2h62v-2h-2V19H63z M57,3v2h-6V3H57z M51,7h6v6h-6   V7z M45,3v2h-6V3H45z M39,7h6v6h-6V7z M7,5h18v8h-2V7H9v6H7V5z M11,13V9h4v4H11z M17,9h4v4h-4V9z M3,15h58v2H3V15z M31,45v7h-2v2h2   v7h-8V45H31z M33,52v-7h8v16h-8v-7h2v-2H33z M59,61H43V45h2v-2H19v2h2v16H5V19h54V61z"/><path d="M57,23H7v18h50V23z M31,31h-6v-6h6V31z M33,25h6v6h-6V25z M23,31h-6v-6h6V31z M23,33v6h-6v-6H23z M25,33h6v6h-6V33z M33,33   h6v6h-6V33z M41,33h6v6h-6V33z M41,31v-6h6v6H41z M15,25v6H9v-6H15z M9,33h6v6H9V33z M49,39v-6h2v-2h-2v-6h6v6h-2v2h2v6H49z"/><path d="M47,53h10V43H47V53z M49,45h6v6h-6V45z"/><path d="M17,53V43H7v10H17z M9,45h6v6H9V45z"/></g><text x="0" y="79" fill="#000000" font-size="5px" font-weight="bold" font-family="'Helvetica Neue', Helvetica, Arial-Unicode, Arial, Sans-serif">Created by Eucalyp</text><text x="0" y="84" fill="#000000" font-size="5px" font-weight="bold" font-family="'Helvetica Neue', Helvetica, Arial-Unicode, Arial, Sans-serif">from the Noun Project</text></svg>