<svg xmlns="http://www.w3.org/2000/svg" xmlns:xlink="http://www.w3.org/1999/xlink" version="1.1" x="0px" y="0px" viewBox="0 0 32 40" enable-background="new 0 0 32 32" xml:space="preserve"><g display="none"><rect x="-336.563" y="-46.318" display="inline" fill="#000000" width="421.23" height="207"/></g><g><g><polygon points="13.804,8.897 13.804,7.946 10.737,5.753 7.671,7.946 7.671,8.897 10.737,6.703   "/><polygon points="8.184,9.163 8.184,13.057 13.291,13.057 13.291,9.163 10.737,7.325   "/><polygon points="14.999,18.555 11.731,15.287 7.1,19.918 7.807,20.625 11.731,16.701 14.999,19.969 22.005,12.963 21.298,12.256       "/><polygon points="18.252,10.338 23.9,10.338 23.9,15.987 24.9,15.987 24.9,9.338 18.252,9.338   "/><path d="M29.591,2.915H2.409C1.084,2.915,0,3.999,0,5.324v16.205c0,1.325,1.084,2.409,2.409,2.409h8.321v4.147H7.766v1h16.469v-1    H21.27v-4.147h8.321c1.325,0,2.409-1.084,2.409-2.409V5.324C32,3.999,30.916,2.915,29.591,2.915z M20.27,28.085H11.73v-4.147    h8.539V28.085z M31,21.529c0,0.777-0.632,1.409-1.409,1.409H2.409C1.632,22.938,1,22.306,1,21.529V5.324    c0-0.777,0.632-1.409,1.409-1.409h27.181C30.368,3.915,31,4.547,31,5.324V21.529z"/></g></g><g display="none"><g display="inline"><polygon points="13.804,9.226 13.804,8.275 10.737,6.082 7.671,8.275 7.671,9.226 10.737,7.032   "/><polygon points="8.184,9.492 8.184,13.386 13.291,13.386 13.291,9.492 10.737,7.654   "/><polygon points="14.999,17.848 11.731,14.58 6.746,19.564 8.16,20.979 11.731,17.408 14.999,20.676 22.358,13.316 20.944,11.902       "/><polygon points="18.252,10.838 23.4,10.838 23.4,15.987 25.4,15.987 25.4,8.838 18.252,8.838   "/><path d="M29.591,2.915H2.409C1.084,2.915,0,3.999,0,5.324v16.205c0,1.325,1.084,2.409,2.409,2.409h7.821v3.647H7.766v2h16.469v-2    H21.77v-3.647h7.821c1.325,0,2.409-1.084,2.409-2.409V5.324C32,3.999,30.916,2.915,29.591,2.915z M19.77,27.585H12.23v-3.647    h7.539V27.585z M30,21.529c0,0.222-0.187,0.409-0.409,0.409H2.409C2.187,21.938,2,21.751,2,21.529V5.324    c0-0.222,0.187-0.409,0.409-0.409h27.181C29.813,4.915,30,5.102,30,5.324V21.529z"/></g></g><g display="none"><g display="inline"><g><polygon fill="#000000" points="10.737,5.753 7.671,7.946 7.671,8.897 10.737,6.703 13.804,8.897 13.804,7.946 10.737,5.753         "/></g><g><g><path fill="#000000" d="M10.737,7.941l2.053,1.479v3.137H8.684V9.42L10.737,7.941 M10.737,7.325L8.184,9.163v3.894h5.107V9.163      L10.737,7.325L10.737,7.325z"/></g></g><g><polyline fill="#000000" stroke="#1A1718" stroke-width="0.5" stroke-miterlimit="10" points="7.453,20.272 11.731,15.994      14.999,19.262 21.651,12.609    "/><polyline fill="#000000" stroke="#1A1718" stroke-width="0.5" stroke-miterlimit="10" points="24.4,15.987 24.4,9.838 18.252,9.838         "/></g></g><g display="inline"><line fill="#000000" stroke="#1A1718" stroke-width="0.5" stroke-miterlimit="10" x1="20.77" y1="28.336" x2="20.77" y2="23.669"/><line fill="#000000" stroke="#1A1718" stroke-width="0.5" stroke-miterlimit="10" x1="11.23" y1="28.336" x2="11.23" y2="23.669"/><g><path fill="#000000" d="M29.591,3.415c1.053,0,1.909,0.857,1.909,1.909v16.205c0,1.053-0.856,1.909-1.909,1.909H2.409     c-1.053,0-1.909-0.857-1.909-1.909V5.324c0-1.053,0.856-1.909,1.909-1.909H29.591 M29.591,2.915H2.409     C1.084,2.915,0,3.999,0,5.324v16.205c0,1.325,1.084,2.409,2.409,2.409h27.181c1.325,0,2.409-1.084,2.409-2.409V5.324     C32,3.999,30.916,2.915,29.591,2.915L29.591,2.915z"/></g><line fill="#000000" stroke="#1A1718" stroke-width="0.5" stroke-miterlimit="10" x1="7.766" y1="28.585" x2="24.234" y2="28.585"/></g></g><text x="0" y="47" fill="#000000" font-size="5px" font-weight="bold" font-family="'Helvetica Neue', Helvetica, Arial-Unicode, Arial, Sans-serif">Created by epicflaticon.com</text><text x="0" y="52" fill="#000000" font-size="5px" font-weight="bold" font-family="'Helvetica Neue', Helvetica, Arial-Unicode, Arial, Sans-serif">from the Noun Project</text></svg>