<svg xmlns:x="http://ns.adobe.com/Extensibility/1.0/" xmlns:i="http://ns.adobe.com/AdobeIllustrator/10.0/" xmlns:graph="http://ns.adobe.com/Graphs/1.0/" xmlns="http://www.w3.org/2000/svg" xmlns:xlink="http://www.w3.org/1999/xlink" xmlns:a="http://ns.adobe.com/AdobeSVGViewerExtensions/3.0/" version="1.1" x="0px" y="0px" viewBox="0 0 100 125" enable-background="new 0 0 100 100" xml:space="preserve"><g fill="#55a9f6"><path d="M18.7,45.8H7.9c-1.1,0-2,0.9-2,2v29.6c0,1.1,0.9,2,2,2h10.8c1.1,0,2-0.9,2-2V47.8C20.7,46.7,19.9,45.8,18.7,45.8z    M16.7,75.4H9.9V49.8h6.8V75.4z"/><path d="M86.9,56.2c-0.1-0.1-3.1-3.4-7.6-3.4c-1.8,0-3.6,0.5-5.2,1.6c-0.8,0.4-6.8,3.6-11.9,9.7c-1,1.2-2.5,1.8-4.4,1.8   c0,0,0,0,0,0c-1.6,0-3.2-0.4-4.7-0.9l8-2.3c0.5-0.1,0.9-0.4,1.1-0.8c0.3-0.5,3-4.8,1.6-8.7c-0.5-1.3-1.6-3-4.2-4.1   c-0.7-0.7-1.8-0.7-2.3-0.7c-1.6,0-5.1,0.3-10.4,0.8l-9.8,1.2L28.6,46c-0.6-0.3-1.4-0.3-2,0.1c-0.6,0.4-1,1-1,1.7V76   c0,0.8,0.5,1.6,1.3,1.9c0.6,0.2,1.6,0.7,2.8,1.3c5.4,2.7,15.6,7.7,25.2,7.7c3.8,0,7.1-0.8,9.9-2.3c0.8-0.4,20-10.3,23.1-20.6   c0.8-2.6,0.5-5.1-0.8-7.4C87.1,56.5,87,56.3,86.9,56.2z M84.1,62.8C82,70,68.2,78.4,63,81c-2.3,1.2-5,1.8-8.1,1.8   c-8.7,0-18.3-4.7-23.4-7.3c-0.7-0.3-1.3-0.6-1.8-0.9V51.1l6.1,3.1c0.4,0.2,0.8,0.2,1.1,0.2l10.3-1.2c6.1-0.6,8.7-0.8,9.8-0.8   c0.1,0.1,0.2,0.1,0.3,0.1c2.1,0.7,2.5,1.7,2.6,2c0.5,1.4-0.2,3.5-0.8,4.6l-12.3,3.6c-0.8,0.2-1.3,0.9-1.4,1.7   c-0.1,0.8,0.3,1.6,0.9,2c0.2,0.1,5.9,3.6,11.4,3.6c0,0,0,0,0,0c3.1,0,5.7-1.1,7.5-3.2c4.8-5.7,10.6-8.7,10.7-8.7   c0.1,0,0.1-0.1,0.2-0.1c1-0.7,2.1-1,3.2-1c2.2,0,4,1.5,4.5,2C84.5,60,84.6,61.3,84.1,62.8z"/><path d="M39.4,36.3c0,3.6,3,6.6,6.6,6.6h21.1c3.6,0,6.6-3,6.6-6.6s-3-6.6-6.6-6.6H46C42.4,29.7,39.4,32.7,39.4,36.3z M69.6,36.3   c0,1.4-1.2,2.6-2.6,2.6H46c-1.4,0-2.6-1.2-2.6-2.6s1.2-2.6,2.6-2.6h21.1C68.5,33.7,69.6,34.9,69.6,36.3z"/><path d="M87.5,13.2H66.4c-3.6,0-6.6,3-6.6,6.6s3,6.6,6.6,6.6h21.1c3.6,0,6.6-3,6.6-6.6S91.1,13.2,87.5,13.2z M87.5,22.3H66.4   c-1.4,0-2.6-1.2-2.6-2.6s1.2-2.6,2.6-2.6h21.1c1.4,0,2.6,1.2,2.6,2.6S88.9,22.3,87.5,22.3z"/><path d="M53.2,19.7c0-3.6-3-6.6-6.6-6.6H25.5c-3.6,0-6.6,3-6.6,6.6s3,6.6,6.6,6.6h21.1C50.2,26.3,53.2,23.4,53.2,19.7z M22.9,19.7   c0-1.4,1.2-2.6,2.6-2.6h21.1c1.4,0,2.6,1.2,2.6,2.6s-1.2,2.6-2.6,2.6H25.5C24.1,22.3,22.9,21.2,22.9,19.7z"/></g></svg>