<svg xmlns="http://www.w3.org/2000/svg" xmlns:xlink="http://www.w3.org/1999/xlink" version="1.1" x="0px" y="0px" viewBox="0 0 138 172.5" style="enable-background:new 0 0 138 138;" xml:space="preserve"><g><path d="M91.781,44.8h18.603l-9.493,30.946H83.358c-1.657,0-3,1.343-3,3s1.343,3,3,3h19.738c0.004,0,0.009,0.001,0.013,0.001   c0.187,0,0.37-0.023,0.551-0.057c0.056-0.01,0.11-0.027,0.165-0.04c0.12-0.03,0.238-0.065,0.353-0.11   c0.062-0.024,0.122-0.048,0.181-0.076c0.11-0.051,0.215-0.109,0.319-0.173c0.048-0.03,0.098-0.056,0.144-0.089   c0.289-0.202,0.544-0.454,0.749-0.75c0.03-0.044,0.054-0.091,0.082-0.136c0.065-0.105,0.125-0.213,0.178-0.327   c0.03-0.065,0.054-0.131,0.079-0.199c0.021-0.056,0.048-0.107,0.066-0.165L117.31,42.68c0.279-0.91,0.11-1.898-0.456-2.663   c-0.566-0.765-1.461-1.217-2.413-1.217H91.781c-1.657,0-3,1.343-3,3S90.124,44.8,91.781,44.8z"/><path d="M121,87.874H45.223c-1.724,0-3.125-1.375-3.125-3.063c0-1.689,1.402-3.064,3.125-3.064h15.971c1.657,0,3-1.343,3-3   s-1.343-3-3-3H45.223c-5.032,0-9.125,4.066-9.125,9.064c0,4.998,4.094,9.063,9.125,9.063H121c1.657,0,3-1.343,3-3   S122.657,87.874,121,87.874z"/><path d="M38.292,72.29c1.599-0.433,2.545-2.08,2.113-3.679L33.967,44.8h21.727c1.657,0,3-1.343,3-3s-1.343-3-3-3H32.344   L28.49,24.544c-0.354-1.308-1.541-2.217-2.896-2.217H17c-1.657,0-3,1.343-3,3s1.343,3,3,3h6.298l11.314,41.85   c0.361,1.337,1.572,2.218,2.894,2.218C37.766,72.395,38.029,72.361,38.292,72.29z"/><path d="M70.482,66.706c0,0-0.001-0.001-0.001-0.001l-2.467-2.458c-1.173-1.169-3.072-1.166-4.243,0.008   c-1.169,1.174-1.166,3.073,0.008,4.243l2.467,2.458c0.002,0.002,0.004,0.003,0.005,0.004c0.897,0.893,1.927,1.57,3.024,2.05v5.737   c0,1.657,1.343,3,3,3s3-1.343,3-3v-5.086c1.86-0.372,3.634-1.272,5.073-2.705c1.887-1.88,2.927-4.38,2.927-7.04   s-1.04-5.16-2.927-7.04l-4.934-4.915l-4.934-4.915c-0.749-0.746-1.161-1.736-1.161-2.789s0.412-2.043,1.16-2.789   c1.553-1.546,4.079-1.547,5.633-0.001c0,0,0.001,0.001,0.001,0.001l2.467,2.458c0.585,0.583,1.351,0.875,2.117,0.875   c0.77,0,1.539-0.294,2.125-0.883c1.169-1.174,1.166-3.073-0.008-4.243l-2.467-2.458c-0.002-0.002-0.003-0.003-0.005-0.004   c-1.438-1.431-3.21-2.329-5.068-2.701v-5.086c0-1.657-1.343-3-3-3s-3,1.343-3,3v5.737c-1.099,0.481-2.131,1.16-3.029,2.054   c-1.887,1.88-2.926,4.38-2.926,7.04s1.039,5.16,2.926,7.04l4.934,4.915l4.934,4.915c0.749,0.746,1.161,1.736,1.161,2.789   s-0.413,2.043-1.161,2.789C74.562,68.251,72.036,68.251,70.482,66.706z"/><path d="M58.174,98.214c-4.849,0-8.793,3.916-8.793,8.729c0,4.813,3.945,8.729,8.793,8.729s8.793-3.916,8.793-8.729   C66.968,102.13,63.023,98.214,58.174,98.214z M58.174,109.673c-1.541,0-2.793-1.225-2.793-2.729s1.253-2.729,2.793-2.729   s2.793,1.224,2.793,2.729S59.715,109.673,58.174,109.673z"/><path d="M101.924,98.214c-4.849,0-8.794,3.916-8.794,8.729c0,4.813,3.945,8.729,8.794,8.729c4.849,0,8.793-3.916,8.793-8.729   C110.717,102.13,106.772,98.214,101.924,98.214z M101.924,109.673c-1.541,0-2.794-1.225-2.794-2.729s1.253-2.729,2.794-2.729   s2.793,1.224,2.793,2.729S103.464,109.673,101.924,109.673z"/></g></svg>