<svg xmlns="http://www.w3.org/2000/svg" xmlns:xlink="http://www.w3.org/1999/xlink" version="1.1" x="0px" y="0px" viewBox="0 0 64 80" enable-background="new 0 0 64 64" xml:space="preserve">
    <g><g><path fill="#55a9f6" d="M44.093,29.752c-0.941-1.021-2.441-1.227-3.623-0.5c-2.084,1.278-2.533,4.494-0.879,6.381    c1.054,1.211,2.66,1.431,3.914,0.541C45.535,34.742,45.82,31.598,44.093,29.752z M42.643,34.548    C42.08,35.042,41.426,35,40.934,34.43c-0.793-0.919-0.672-2.604,0.238-3.424c0.633-0.559,1.361-0.452,1.818,0.268    C43.663,32.333,43.505,33.78,42.643,34.548z"/><path fill="#55a9f6" d="M31.947,34.557c2.492-3.977,4.984-7.953,7.483-11.927c0.317-0.508,0.494-0.543,0.992-0.239    c0.246,0.142,0.481,0.288,0.704,0.427c0.241,0.301,0.132,0.562-0.033,0.821c-0.896,1.428-1.796,2.863-2.692,4.291    c-1.653,2.634-3.3,5.271-4.953,7.904c-0.377,0.599-0.522,0.634-1.125,0.264C31.364,35.5,31.358,35.497,31.947,34.557z"/><path fill="#55a9f6" d="M33.291,22.943c-1.217-1.487-3.391-1.502-4.615-0.03c-1.307,1.568-1.44,3.671-0.344,5.411    c0.898,1.425,2.813,1.807,4.178,0.843C34.45,27.796,34.823,24.832,33.291,22.943z M31.628,27.553    c-0.548,0.479-1.138,0.445-1.632-0.088c-0.83-0.922-0.766-2.566,0.134-3.413c0.638-0.602,1.299-0.542,1.835,0.155    C32.678,25.148,32.519,26.769,31.628,27.553z"/></g><path fill="#55a9f6" d="M59.734,22.068c-0.573-0.43-1.136-0.86-1.679-1.28c-0.891-0.706-1.781-1.382-2.672-2.047L47.4,12.6   l-1.556-1.208c-2.416-1.853-4.842-3.716-7.257-5.568c-0.42-0.328-0.839-0.532-1.259-0.676c-0.031-0.01-0.041-0.01-0.051-0.01   c-0.133-0.041-0.256-0.082-0.379-0.102c-0.082-0.01-0.143-0.01-0.225-0.02c-0.082-0.02-0.174-0.02-0.266-0.02   c-0.082,0-0.174,0-0.266,0.02c-0.061,0.01-0.154,0.01-0.215,0.02c-0.123,0.02-0.256,0.061-0.379,0.102c-0.01,0-0.041,0-0.051,0.01   c-0.42,0.143-0.839,0.348-1.249,0.676c-2.958,2.252-5.896,4.514-8.844,6.776v-2.518c0-0.594-0.481-1.085-1.095-1.085h-4.156   c-0.604,0-1.095,0.491-1.095,1.095c0,2.467,0.031,4.565-0.031,6.654c-0.02,0.368-0.205,0.798-0.471,1.126   c-1.259,0.972-2.518,1.935-3.787,2.917c-0.553,0.42-1.126,0.85-1.669,1.28c-0.768,0.573-1.269,1.249-1.218,2.098   c-0.02,0.44,0.102,0.891,0.369,1.269c0.635,0.932,1.955,1.413,3.173,1.054c0.287-0.092,0.553-0.215,0.798-0.358v8.67   c0.676-0.02,1.351-0.031,2.037-0.031c0.481,0,0.983,0,1.515,0.02V23.716c0-0.082,0.02-0.174,0.041-0.266   c5.169-3.941,10.328-7.882,15.457-11.853l0.532-0.389c0.215-0.133,0.42-0.184,0.604-0.215c0.194,0.031,0.389,0.082,0.604,0.215   l0.532,0.389c5.149,3.972,10.298,7.913,15.467,11.853c0.01,0.092,0.031,0.184,0.031,0.266v5.855c0.01,0,0.01,0,0.01,0V42.52   c1.157-0.471,2.344-0.942,3.542-1.392V26.132c0.256,0.143,0.522,0.266,0.809,0.358c1.218,0.358,2.539-0.123,3.163-1.054   c0.276-0.379,0.389-0.829,0.379-1.269C60.983,23.317,60.482,22.641,59.734,22.068z"/><path fill="#55a9f6" d="M61.778,42.434c-0.73-0.095-1.553,0.064-2.257,0.32c-4.239,1.539-8.272,3.333-12.495,4.918   c-0.208,0.078-0.45,0.166-0.585,0.326c-1.099,1.295-2.548,1.818-4.171,1.838c-2.626,0.031-5.252,0.119-7.878,0.181   c-1.781,0.042-3.562,0.088-5.343,0.12c-0.45,0.008-1.017-0.493-1.047-1.019c-0.03-0.527,0.33-0.706,0.787-0.751   c0.182-0.018,0.364-0.031,0.547-0.036c2.215-0.057,4.429-0.111,6.644-0.166c2.329-0.058,4.66-0.074,6.986-0.188   c1.626-0.08,2.732-1.29,2.759-2.848c0.029-1.673-1.269-2.938-3.033-2.905c-2.613,0.05-5.919-0.308-8.599-0.723   c-3.188-0.494-4.739-2.126-7.832-3.12c-4.766-1.532-9.645-0.976-14.565-0.875c-0.009-0.343-0.017-0.685-0.026-1.028   c-0.028-1.082-0.554-1.553-1.649-1.528c-2.875,0.066-5.75,0.136-8.624,0.207c-0.177,0.004-0.353,0.027-0.673,0.052   c0.16,1.532,0.27,3.026,0.48,4.505c0.785,5.515,2.707,10.614,5.721,15.296c0.138,0.214,0.484,0.407,0.738,0.414   c0.98,0.026,1.962-0.019,2.943-0.053c0.972-0.034,1.507-0.585,1.484-1.575c-0.006-0.281-0.013-0.562-0.02-0.842   c0.005,0.001,0.008,0.003,0.013,0.004c2.212,0.629,4.414,1.295,6.623,1.934c4.113,1.188,8.203,2.47,12.352,3.513   c3.442,0.865,6.912,0.967,10.184-0.834c6.932-3.816,13.869-7.622,20.795-11.449c0.346-0.191,0.658-0.505,0.889-0.83   C63.708,44.183,63.119,42.608,61.778,42.434z"/></g></svg>