<svg xmlns="http://www.w3.org/2000/svg" xmlns:xlink="http://www.w3.org/1999/xlink" version="1.1" x="0px" y="0px" viewBox="0 0 200 250" enable-background="new 0 0 200 200" xml:space="preserve"><g><rect x="0.37" y="179.412" fill="#55a9f6" width="199.259" height="7.174"/><g><path fill="#55a9f6" d="M93.053,171.255H53.659v-89.28h39.394V171.255z M60.833,164.082H85.88V89.148H60.833V164.082z"/><path fill="#55a9f6" d="M146.343,171.255h-39.391v-56.892h39.391V171.255z M114.126,164.082h25.044v-42.545h-25.044V164.082z"/><path fill="#55a9f6" d="M199.629,171.255h-39.388V63.435h39.388V171.255z M167.415,164.082h25.041V70.608h-25.041V164.082z"/><path fill="#55a9f6" d="M39.764,171.255H0.37v-32.03h39.394V171.255z M7.543,164.082h25.047v-17.685H7.543V164.082z"/></g><g><rect x="73.468" y="54.124" transform="matrix(0.7071 0.7071 -0.7071 0.7071 70.0923 -53.8092)" fill="#55a9f6" width="53.072" height="7.173"/><rect x="152.122" y="31.175" transform="matrix(0.7071 0.7071 -0.7071 0.7071 86.4061 -93.1962)" fill="#55a9f6" width="7.173" height="53.07"/><rect x="40.698" y="31.169" transform="matrix(0.7071 0.7071 -0.7071 0.7071 53.788 -14.4065)" fill="#55a9f6" width="7.173" height="53.11"/><path fill="#55a9f6" d="M16.443,102.004C7.375,102.004,0,94.628,0,85.562S7.375,69.12,16.443,69.12    c9.066,0,16.442,7.375,16.442,16.442S25.509,102.004,16.443,102.004z M16.443,76.293c-5.111,0-9.271,4.158-9.271,9.269    s4.16,9.269,9.271,9.269c5.11,0,9.269-4.158,9.269-9.269S21.554,76.293,16.443,76.293z"/><path fill="#55a9f6" d="M72.148,46.298c-9.066,0-16.442-7.375-16.442-16.442s7.375-16.442,16.442-16.442S88.59,20.79,88.59,29.856    S81.215,46.298,72.148,46.298z M72.148,20.588c-5.111,0-9.269,4.158-9.269,9.269s4.158,9.269,9.269,9.269    c5.11,0,9.269-4.158,9.269-9.269S77.259,20.588,72.148,20.588z"/><path fill="#55a9f6" d="M127.855,102.004c-9.065,0-16.441-7.376-16.441-16.442s7.376-16.442,16.441-16.442    c9.066,0,16.442,7.375,16.442,16.442S136.922,102.004,127.855,102.004z M127.855,76.293c-5.108,0-9.269,4.158-9.269,9.269    s4.16,9.269,9.269,9.269c5.112,0,9.269-4.158,9.269-9.269S132.968,76.293,127.855,76.293z"/><path fill="#55a9f6" d="M183.564,46.298c-9.066,0-16.442-7.375-16.442-16.442s7.376-16.442,16.442-16.442    c9.063,0,16.436,7.375,16.436,16.442S192.627,46.298,183.564,46.298z M183.564,20.588c-5.109,0-9.269,4.158-9.269,9.269    s4.159,9.269,9.269,9.269c5.108,0,9.262-4.158,9.262-9.269S188.673,20.588,183.564,20.588z"/></g></g></svg>