<svg xmlns="http://www.w3.org/2000/svg" xmlns:xlink="http://www.w3.org/1999/xlink" version="1.1" x="0px" y="0px" viewBox="0 0 64 80" style="enable-background:new 0 0 64 64;" xml:space="preserve"><g><g><path d="M30.5,39.6h-3.8c0,0,0,0,0,0V27.8c0,0,0,0,0,0h3.8c0,0,0,0,0,0L30.5,39.6C30.5,39.6,30.5,39.6,30.5,39.6z"/><path d="M37.4,39.6h-3.8c0,0,0,0,0,0V29.1c0,0,0,0,0,0h3.8c0,0,0,0,0,0L37.4,39.6C37.4,39.6,37.4,39.6,37.4,39.6z"/><path d="M23.6,39.6h-3.8c0,0,0,0,0,0v-9.1c0,0,0,0,0,0h3.8c0,0,0,0,0,0L23.6,39.6C23.7,39.6,23.6,39.6,23.6,39.6z"/><path d="M44.2,39.6h-3.8c0,0,0,0,0,0V23.1c0,0,0,0,0,0h3.8c0,0,0,0,0,0L44.2,39.6C44.3,39.6,44.3,39.6,44.2,39.6z"/><path d="M43.2,17.2l-0.2,5c0,0,0,0,0,0l-1.7-1.5c0,0,0,0,0,0l-5.4,6.1c-0.2,0.2-0.4,0.3-0.7,0.3c-0.2,0-0.4-0.1-0.6-0.2L27.9,21    c0,0,0,0,0,0l-4.7,5.3c0,0,0,0,0,0c0.1,0.2,0.1,0.4,0.1,0.6c0,1-0.8,1.8-1.8,1.8c-1,0-1.8-0.8-1.8-1.8c0-1,0.8-1.8,1.8-1.8    c0.1,0,0.2,0,0.4,0l5.3-5.9c0.3-0.4,0.9-0.4,1.3-0.1L35,25c0,0,0,0,0,0l4.8-5.4c0,0,0,0,0,0l-1.6-1.4c0,0,0,0,0,0L43.2,17.2    C43.2,17.2,43.2,17.2,43.2,17.2z"/></g><path d="M47.4,0.7H16.6c-2,0-3.6,1.6-3.6,3.6v55.4c0,2,1.6,3.6,3.6,3.6h30.8c2,0,3.6-1.6,3.6-3.6V4.3C51,2.3,49.4,0.7,47.4,0.7z    M35.1,59.8c-0.4,0.4-0.9,0.6-1.5,0.6H31c-1.2,0-2.3-1-2.2-2.2c0-0.5,0.3-1,0.6-1.3c0.4-0.4,0.9-0.6,1.5-0.6h2.6   c1.2,0,2.3,1,2.2,2.2C35.6,59,35.4,59.4,35.1,59.8z M47.4,53C47.4,53,47.4,53,47.4,53l-30.8,0c0,0,0,0,0,0V3.6c0,0,0,0,0,0h30.8   c0,0,0,0,0,0V53z"/></g></svg>