<svg xmlns="http://www.w3.org/2000/svg" data-name="Layer 1" viewBox="0 0 100 125" x="0px" y="0px"><title>Artboard 8</title><path d="M72.27,49.56,49.59,67.65a2.5,2.5,0,0,0,3.12,3.91l1.8-1.44V93.48A2.5,2.5,0,0,0,57,96H90.64a2.5,2.5,0,0,0,2.5-2.5V70.12l1.8,1.44a2.5,2.5,0,0,0,3.12-3.91L75.39,49.56A2.5,2.5,0,0,0,72.27,49.56ZM77.09,91H70.57V81.26h6.52Zm11.05,0H82.09V78.76a2.5,2.5,0,0,0-2.5-2.5H68.07a2.5,2.5,0,0,0-2.5,2.5V91H59.51V66.13L73.83,54.71,88.14,66.13Z"/><path d="M3.5,89.71H46.66a2.5,2.5,0,0,0,0-5H6v-9.4a9.21,9.21,0,0,1,5.56-8.46l19.58-8.46a2.5,2.5,0,0,0,1.51-2.29V49.22a3.87,3.87,0,0,0-.76-2.3,18.1,18.1,0,0,1-3.09-8.35,2.5,2.5,0,0,0-1.05-1.76,6.76,6.76,0,0,1-2.9-5.53,1.15,1.15,0,0,1,.36-.85,1.2,1.2,0,0,1,.88-.34,2.47,2.47,0,0,0,1.82-.69,2.5,2.5,0,0,0,.78-1.78l.07-6.48A11.18,11.18,0,0,1,29.52,17c1.57-3.86,5.54-8,10.54-8h1v2a2.5,2.5,0,0,0,2.24,2.49A11.37,11.37,0,0,1,51,18.36,6.24,6.24,0,0,1,52.2,22V27.6a2.5,2.5,0,0,0,2.5,2.5h0a1.22,1.22,0,0,1,.85.36,1.16,1.16,0,0,1,.34.83,6.77,6.77,0,0,1-2.79,5.45,2.5,2.5,0,0,0-1,1.74,18,18,0,0,1-3.2,8.57,3.92,3.92,0,0,0-.79,2.34v6.8a2.5,2.5,0,1,0,5,0V49.77a22.79,22.79,0,0,0,3.83-9.69,11.78,11.78,0,0,0,4-8.79,6.14,6.14,0,0,0-1.81-4.37,6.22,6.22,0,0,0-1.89-1.29V22a11.13,11.13,0,0,0-2.12-6.58,17,17,0,0,0-9-6.51V6.52A2.5,2.5,0,0,0,43.53,4H40.06C32.71,4,27.14,9.6,24.89,15.14a16.14,16.14,0,0,0-1.14,6l0,4.47a6.24,6.24,0,0,0-2,1.28,6.13,6.13,0,0,0-1.89,4.45A11.75,11.75,0,0,0,24,40.22a22.48,22.48,0,0,0,3.67,9.37v4.86L9.58,62.26A14.21,14.21,0,0,0,1,75.31v11.9A2.5,2.5,0,0,0,3.5,89.71Z"/></svg>