<svg xmlns="http://www.w3.org/2000/svg" style="display: none;">
  <symbol id="building" viewBox="0 0 64 64">
    <path d="M 29 0.0585938 C 28.449219 0.0585938 28 0.503906 28 1.054688 L 28 10 L 15 10 C 14.449219 10 14 10.445313 14 11 C 14 11.554688 14.449219 12 15 12 L 16 12 L 16 32 L 5 32 C 3.347656 32 2 33.347656 2 35 C 2 36.300781 2.839844 37.402344 4 37.816406 L 4 62 L 1 62 C 0.449219 62 0 62.445313 0 63 C 0 63.554688 0.449219 64 1 64 L 63 64 C 63.550781 64 64 63.554688 64 63 C 64 62.445313 63.550781 62 63 62 L 60 62 L 60 28 L 61 28 C 61.550781 28 62 27.554688 62 27 C 62 26.445313 61.550781 26 61 26 L 52 26 L 52 24 C 52 22.898438 51.101563 22 50 22 L 46 22 L 46 12 L 47 12 C 47.550781 12 48 11.554688 48 11 C 48 10.445313 47.550781 10 47 10 L 34 10 L 34 6.054688 C 34 5.503906 33.550781 5.054688 33 5.054688 C 32.449219 5.054688 32 5.503906 32 6.054688 L 32 10 L 30 10 L 30 1.054688 C 30 0.503906 29.550781 0.0585938 29 0.0585938 Z M 18 12 L 44 12 L 44 62 L 18 62 Z M 23 16 C 22.449219 16 22 16.445313 22 17 L 22 23 C 22 23.554688 22.449219 24 23 24 C 23.550781 24 24 23.554688 24 23 L 24 17 C 24 16.445313 23.550781 16 23 16 Z M 31 16 C 30.449219 16 30 16.445313 30 17 L 30 19 C 30 19.554688 30.449219 20 31 20 C 31.550781 20 32 19.554688 32 19 L 32 17 C 32 16.445313 31.550781 16 31 16 Z M 39 16 C 38.449219 16 38 16.445313 38 17 L 38 23 C 38 23.554688 38.449219 24 39 24 C 39.550781 24 40 23.554688 40 23 L 40 17 C 40 16.445313 39.550781 16 39 16 Z M 31 24 C 30.449219 24 30 24.445313 30 25 L 30 26 C 27.792969 26 26 27.792969 26 30 L 26 31 C 26 33.207031 27.792969 35 30 35 L 32 35 C 33.101563 35 34 35.898438 34 37 L 34 38 C 34 39.101563 33.101563 40 32 40 L 32 37 C 32 36.445313 31.550781 36 31 36 C 30.449219 36 30 36.445313 30 37 L 30 40 C 28.898438 40 28 39.101563 28 38 C 28 37.445313 27.550781 37 27 37 C 26.449219 37 26 37.445313 26 38 C 26 40.207031 27.792969 42 30 42 L 30 43 C 30 43.554688 30.449219 44 31 44 C 31.550781 44 32 43.554688 32 43 L 32 42 C 34.207031 42 36 40.207031 36 38 L 36 37 C 36 34.792969 34.207031 33 32 33 L 32 30 C 32 29.445313 31.550781 29 31 29 C 30.449219 29 30 29.445313 30 30 L 30 33 C 28.898438 33 28 32.101563 28 31 L 28 30 C 28 28.898438 28.898438 28 30 28 L 32 28 C 33.101563 28 34 28.898438 34 30 C 34 30.554688 34.449219 31 35 31 C 35.550781 31 36 30.554688 36 30 C 36 27.792969 34.207031 26 32 26 L 32 25 C 32 24.445313 31.550781 24 31 24 Z M 46 24 L 50 24 L 50 28 L 58 28 L 58 40 L 48 40 C 47.449219 40 47 40.445313 47 41 C 47 41.554688 47.449219 42 48 42 L 58 42 L 58 62 L 46 62 Z M 51 30 C 50.449219 30 50 30.445313 50 31 C 50 31.554688 50.449219 32 51 32 L 53 32 C 53.550781 32 54 31.554688 54 31 C 54 30.445313 53.550781 30 53 30 Z M 5 34 L 16 34 L 16 36 L 5 36 C 4.449219 36 4 35.550781 4 35 C 4 34.449219 4.449219 34 5 34 Z M 51 34 C 50.449219 34 50 34.445313 50 35 C 50 35.554688 50.449219 36 51 36 L 53 36 C 53.550781 36 54 35.554688 54 35 C 54 34.445313 53.550781 34 53 34 Z M 6 38 L 16 38 L 16 62 L 14 62 L 14 57.949219 C 14 56.847656 13.101563 55.949219 12 55.949219 L 10 55.949219 C 8.898438 55.949219 8 56.847656 8 57.949219 L 8 62 L 6 62 Z M 10 40 C 9.449219 40 9 40.445313 9 41 C 9 41.554688 9.449219 42 10 42 L 12 42 C 12.550781 42 13 41.554688 13 41 C 13 40.445313 12.550781 40 12 40 Z M 10 44 C 9.449219 44 9 44.445313 9 45 C 9 45.554688 9.449219 46 10 46 L 12 46 C 12.550781 46 13 45.554688 13 45 C 13 44.445313 12.550781 44 12 44 Z M 23 44 C 22.449219 44 22 44.445313 22 45 L 22 51 C 22 51.554688 22.449219 52 23 52 C 23.550781 52 24 51.554688 24 51 L 24 45 C 24 44.445313 23.550781 44 23 44 Z M 39 44 C 38.449219 44 38 44.445313 38 45 L 38 57 C 38 57.554688 38.449219 58 39 58 C 39.550781 58 40 57.554688 40 57 L 40 45 C 40 44.445313 39.550781 44 39 44 Z M 51 44 C 50.449219 44 50 44.445313 50 45 C 50 45.554688 50.449219 46 51 46 L 53 46 C 53.550781 46 54 45.554688 54 45 C 54 44.445313 53.550781 44 53 44 Z M 10 48 C 9.449219 48 9 48.445313 9 49 C 9 49.554688 9.449219 50 10 50 L 12 50 C 12.550781 50 13 49.554688 13 49 C 13 48.445313 12.550781 48 12 48 Z M 31 48 C 30.449219 48 30 48.445313 30 49 L 30 57 C 30 57.554688 30.449219 58 31 58 C 31.550781 58 32 57.554688 32 57 L 32 49 C 32 48.445313 31.550781 48 31 48 Z M 51 48 C 50.449219 48 50 48.445313 50 49 C 50 49.554688 50.449219 50 51 50 L 53 50 C 53.550781 50 54 49.554688 54 49 C 54 48.445313 53.550781 48 53 48 Z M 10 52 C 9.449219 52 9 52.445313 9 53 C 9 53.554688 9.449219 54 10 54 L 12 54 C 12.550781 54 13 53.554688 13 53 C 13 52.445313 12.550781 52 12 52 Z M 51 52 C 50.449219 52 50 52.445313 50 53 C 50 53.554688 50.449219 54 51 54 L 53 54 C 53.550781 54 54 53.554688 54 53 C 54 52.445313 53.550781 52 53 52 Z M 23 54 C 22.449219 54 22 54.445313 22 55 L 22 57 C 22 57.554688 22.449219 58 23 58 C 23.550781 58 24 57.554688 24 57 L 24 55 C 24 54.445313 23.550781 54 23 54 Z M 51 56 C 50.449219 56 50 56.445313 50 57 C 50 57.554688 50.449219 58 51 58 L 53 58 C 53.550781 58 54 57.554688 54 57 C 54 56.445313 53.550781 56 53 56 Z M 10 57.949219 L 12 57.949219 L 12 61.949219 L 10 61.949219 Z"></path>
  </symbol>
  
  <symbol id="dataanalysis" viewBox="0 0 64 64">
    <path style=" " d="M 47.070313 0 C 46.609375 0 46.210938 0.3125 46.097656 0.757813 L 45.152344 4.546875 C 44.878906 4.648438 44.605469 4.761719 44.332031 4.890625 L 40.980469 2.878906 C 40.585938 2.644531 40.082031 2.703125 39.757813 3.027344 L 37.636719 5.148438 C 34.148438 4.425781 30.21875 4 26 4 C 11.421875 4 0 8.832031 0 15 L 0 45 C 0 51.167969 11.421875 56 26 56 C 40.578125 56 52 51.167969 52 45 L 52 28.84375 L 52.847656 25.453125 C 53.121094 25.351563 53.398438 25.238281 53.667969 25.109375 L 57.019531 27.121094 C 57.414063 27.355469 57.917969 27.296875 58.242188 26.972656 L 60.972656 24.242188 C 61.296875 23.917969 61.359375 23.414063 61.121094 23.019531 L 59.109375 19.667969 C 59.238281 19.398438 59.351563 19.121094 59.453125 18.847656 L 63.242188 17.902344 C 63.6875 17.789063 64 17.390625 64 16.933594 L 64 13.070313 C 64 12.609375 63.6875 12.210938 63.242188 12.097656 L 59.453125 11.152344 C 59.351563 10.878906 59.238281 10.605469 59.109375 10.332031 L 61.121094 6.980469 C 61.355469 6.585938 61.296875 6.085938 60.972656 5.757813 L 58.242188 3.03125 C 57.917969 2.703125 57.414063 2.640625 57.019531 2.878906 L 53.667969 4.890625 C 53.398438 4.761719 53.121094 4.648438 52.847656 4.546875 L 51.902344 0.757813 C 51.789063 0.3125 51.390625 0 50.933594 0 Z M 47.851563 2 L 50.152344 2 L 51.042969 5.558594 C 51.125 5.898438 51.382813 6.167969 51.714844 6.273438 C 52.226563 6.429688 52.738281 6.644531 53.25 6.914063 C 53.558594 7.078125 53.929688 7.066406 54.230469 6.886719 L 57.378906 4.992188 L 59.003906 6.621094 L 57.113281 9.773438 C 56.933594 10.074219 56.925781 10.445313 57.089844 10.753906 C 57.355469 11.261719 57.570313 11.777344 57.730469 12.285156 C 57.832031 12.621094 58.101563 12.875 58.441406 12.960938 L 62 13.851563 L 62 16.148438 L 58.441406 17.039063 C 58.101563 17.125 57.832031 17.378906 57.730469 17.714844 C 57.570313 18.222656 57.355469 18.738281 57.085938 19.246094 C 56.921875 19.554688 56.933594 19.925781 57.113281 20.226563 L 59.003906 23.378906 L 57.378906 25.003906 L 54.226563 23.113281 C 53.925781 22.933594 53.554688 22.925781 53.246094 23.085938 C 52.738281 23.355469 52.222656 23.570313 51.714844 23.730469 C 51.378906 23.832031 51.125 24.101563 51.039063 24.441406 L 50.148438 28 L 47.847656 28 L 46.957031 24.441406 C 46.875 24.101563 46.617188 23.832031 46.285156 23.730469 C 45.773438 23.570313 45.261719 23.355469 44.75 23.085938 C 44.441406 22.921875 44.070313 22.933594 43.769531 23.113281 L 40.621094 25.003906 L 38.996094 23.378906 L 40.886719 20.226563 C 41.066406 19.925781 41.074219 19.554688 40.910156 19.246094 C 40.644531 18.738281 40.429688 18.222656 40.269531 17.714844 C 40.167969 17.378906 39.898438 17.125 39.558594 17.039063 L 36 16.148438 L 36 13.847656 L 39.558594 12.957031 C 39.898438 12.875 40.167969 12.617188 40.269531 12.285156 C 40.429688 11.773438 40.644531 11.261719 40.914063 10.75 C 41.078125 10.441406 41.066406 10.070313 40.886719 9.773438 L 38.996094 6.621094 L 40.621094 4.992188 L 43.773438 6.886719 C 44.074219 7.066406 44.445313 7.074219 44.753906 6.914063 C 45.261719 6.644531 45.777344 6.429688 46.285156 6.273438 C 46.621094 6.167969 46.875 5.898438 46.960938 5.558594 Z M 26 6 C 30.042969 6 33.707031 6.375 36.890625 7 L 38.890625 10.332031 C 38.761719 10.601563 38.648438 10.878906 38.546875 11.152344 L 34.757813 12.097656 C 34.3125 12.210938 34 12.609375 34 13.066406 L 34 16.929688 C 34 17.390625 34.3125 17.789063 34.757813 17.902344 L 38.546875 18.847656 C 38.648438 19.121094 38.761719 19.394531 38.890625 19.667969 L 36.890625 23 C 33.707031 23.628906 30.042969 24 26 24 C 11.644531 24 2 19.347656 2 15 C 2 10.652344 11.644531 6 26 6 Z M 27.125 8.011719 C 26.578125 8.011719 26.132813 8.445313 26.125 8.992188 C 26.113281 9.542969 26.554688 10 27.109375 10.011719 C 28.050781 10.027344 29.003906 10.070313 29.9375 10.132813 C 29.957031 10.132813 29.980469 10.136719 30.003906 10.136719 C 30.523438 10.136719 30.964844 9.730469 31 9.203125 C 31.039063 8.648438 30.621094 8.175781 30.070313 8.136719 C 29.105469 8.070313 28.117188 8.03125 27.140625 8.011719 Z M 22.628906 8.09375 C 19.472656 8.269531 16.464844 8.695313 13.9375 9.328125 C 13.402344 9.464844 13.078125 10.011719 13.214844 10.546875 C 13.328125 11 13.734375 11.300781 14.183594 11.300781 C 14.265625 11.300781 14.347656 11.292969 14.425781 11.269531 C 16.832031 10.667969 19.707031 10.257813 22.738281 10.089844 C 23.292969 10.058594 23.714844 9.585938 23.683594 9.035156 C 23.652344 8.484375 23.171875 8.074219 22.628906 8.09375 Z M 49 10 C 46.242188 10 44 12.242188 44 15 C 44 17.757813 46.242188 20 49 20 C 51.757813 20 54 17.757813 54 15 C 54 12.242188 51.757813 10 49 10 Z M 49 12 C 50.652344 12 52 13.347656 52 15 C 52 16.652344 50.652344 18 49 18 C 47.347656 18 46 16.652344 46 15 C 46 13.347656 47.347656 12 49 12 Z M 2 19.308594 C 5.886719 23.277344 15.054688 26 26 26 C 30.21875 26 34.148438 25.574219 37.636719 24.847656 L 39.761719 26.972656 C 40.082031 27.296875 40.585938 27.355469 40.980469 27.121094 L 44.332031 25.109375 C 44.605469 25.238281 44.878906 25.351563 45.152344 25.453125 L 46.097656 29.242188 C 46.140625 29.40625 46.230469 29.542969 46.339844 29.660156 C 42.277344 32.132813 35.089844 34 26 34 C 11.644531 34 2 29.347656 2 25 Z M 2 29.308594 C 5.886719 33.277344 15.054688 36 26 36 C 36.292969 36 44.992188 33.585938 49.230469 30 L 50 30 L 50 35 C 50 36.730469 48.46875 38.519531 45.683594 40.035156 C 45.199219 40.300781 45.019531 40.90625 45.28125 41.390625 C 45.464844 41.726563 45.808594 41.910156 46.160156 41.910156 C 46.324219 41.910156 46.488281 41.875 46.640625 41.792969 C 48.027344 41.035156 49.144531 40.210938 50 39.332031 L 50 45 C 50 49.347656 40.359375 54 26 54 C 11.644531 54 2 49.347656 2 45 L 2 39.285156 C 5.214844 42.589844 12.078125 45.070313 20.855469 45.792969 C 20.882813 45.796875 20.914063 45.796875 20.9375 45.796875 C 21.457031 45.796875 21.890625 45.398438 21.9375 44.875 C 21.980469 44.324219 21.570313 43.84375 21.019531 43.796875 C 10.175781 42.90625 2 39.125 2 35 Z M 41 40 C 40.445313 40 40 40.445313 40 41 L 40 43 C 40 43.554688 40.445313 44 41 44 C 41.554688 44 42 43.554688 42 43 L 42 41 C 42 40.445313 41.554688 40 41 40 Z M 36 41.097656 C 35.445313 41.097656 35 41.546875 35 42.097656 L 35 44.097656 C 35 44.652344 35.445313 45.097656 36 45.097656 C 36.554688 45.097656 37 44.652344 37 44.097656 L 37 42.097656 C 37 41.546875 36.554688 41.097656 36 41.097656 Z M 31 41.800781 C 30.445313 41.800781 30 42.246094 30 42.800781 L 30 44.800781 C 30 45.355469 30.445313 45.800781 31 45.800781 C 31.554688 45.800781 32 45.355469 32 44.800781 L 32 42.800781 C 32 42.246094 31.554688 41.800781 31 41.800781 Z M 26 42 C 25.445313 42 25 42.445313 25 43 L 25 45 C 25 45.554688 25.445313 46 26 46 C 26.554688 46 27 45.554688 27 45 L 27 43 C 27 42.445313 26.554688 42 26 42 Z "></path>
  </symbol>

  <symbol id="ecommerce" viewBox="0 0 50 50">
    <path d="M 25 3 C 18.382813 3 13 8.382813 13 15 C 13 18.585938 14.589844 21.800781 17.089844 24 L 14.5 24 C 13.671875 24 13 24.671875 13 25.5 C 13 26.328125 13.671875 27 14.5 27 L 35.5 27 C 36.328125 27 37 26.328125 37 25.5 C 37 24.671875 36.328125 24 35.5 24 L 32.910156 24 C 35.410156 21.800781 37 18.585938 37 15 C 37 8.382813 31.617188 3 25 3 Z M 25 5 C 30.535156 5 35 9.464844 35 15 C 35 20.535156 30.535156 25 25 25 C 19.464844 25 15 20.535156 15 15 C 15 9.464844 19.464844 5 25 5 Z M 24 7 L 24 9.109375 C 23.726563 9.164063 23.433594 9.234375 23.125 9.359375 C 22.148438 9.757813 21 10.824219 21 12.496094 C 21 13.648438 21.628906 14.59375 22.390625 15.09375 C 23.148438 15.59375 23.980469 15.796875 24.730469 16.007813 C 25.476563 16.21875 26.132813 16.433594 26.5 16.683594 C 26.863281 16.929688 27 17.078125 27 17.6875 L 27 17.714844 C 27 17.714844 27.003906 17.992188 26.804688 18.308594 C 26.605469 18.621094 26.28125 19 25 19 C 23.796875 19 23.496094 18.5625 23.25 18.0625 C 23.003906 17.558594 23 17.019531 23 17.019531 L 21 16.980469 C 21 16.980469 20.964844 17.941406 21.453125 18.9375 C 21.847656 19.742188 22.710938 20.582031 24 20.878906 L 24 23 L 26 23 L 26 20.90625 C 27.226563 20.675781 28.066406 20.050781 28.492188 19.378906 C 29.023438 18.539063 28.996094 17.683594 28.996094 17.671875 C 28.988281 16.507813 28.382813 15.550781 27.625 15.03125 C 26.867188 14.511719 26.023438 14.296875 25.269531 14.082031 C 24.519531 13.871094 23.851563 13.660156 23.484375 13.421875 C 23.121094 13.183594 23 13.066406 23 12.496094 C 23 11.605469 23.351563 11.425781 23.875 11.214844 C 24.390625 11.007813 24.933594 11.003906 24.957031 11.003906 C 24.976563 11.003906 25.507813 11.050781 26.03125 11.328125 C 26.566406 11.613281 27 11.949219 27 13 L 29 13 C 29 11.238281 27.933594 10.074219 26.96875 9.5625 C 26.625 9.378906 26.296875 9.269531 26 9.1875 L 26 7 Z M 5 11 C 3.355469 11 2 12.355469 2 14 L 2 35.832031 C 1.980469 35.941406 1.980469 36.050781 2 36.15625 L 2 38 C 2 39.644531 3.355469 41 5 41 L 18.820313 41 L 18.152344 45 L 16 45 C 15.640625 44.996094 15.304688 45.183594 15.121094 45.496094 C 14.941406 45.808594 14.941406 46.191406 15.121094 46.503906 C 15.304688 46.816406 15.640625 47.003906 16 47 L 34 47 C 34.359375 47.003906 34.695313 46.816406 34.878906 46.503906 C 35.058594 46.191406 35.058594 45.808594 34.878906 45.496094 C 34.695313 45.183594 34.359375 44.996094 34 45 L 31.847656 45 L 31.179688 41 L 45 41 C 46.644531 41 48 39.644531 48 38 L 48 36.167969 C 48.019531 36.058594 48.019531 35.949219 48 35.84375 L 48 14 C 48 12.355469 46.644531 11 45 11 L 38.410156 11 C 38.605469 11.648438 38.742188 12.316406 38.84375 13 L 45 13 C 45.566406 13 46 13.433594 46 14 L 46 35 L 4 35 L 4 14 C 4 13.433594 4.433594 13 5 13 L 11.15625 13 C 11.257813 12.316406 11.394531 11.648438 11.589844 11 Z M 4 37 L 46 37 L 46 38 C 46 38.566406 45.566406 39 45 39 L 5 39 C 4.433594 39 4 38.566406 4 38 Z M 20.847656 41 L 29.152344 41 L 29.820313 45 L 20.179688 45 Z "></path>
  </symbol>
  
  <symbol id="graph" viewBox="0 0 50 50">
    <path d="M 45 2 C 43.894531 2 43 2.894531 43 4 C 43 4.292969 43.074219 4.5625 43.1875 4.8125 L 35.1875 16 C 35.125 15.996094 35.0625 16 35 16 C 34.601563 16 34.21875 16.109375 33.90625 16.3125 L 27 12.875 C 26.933594 11.828125 26.0625 11 25 11 C 23.894531 11 23 11.894531 23 13 C 23 13.105469 23.015625 13.210938 23.03125 13.3125 L 15.71875 19.125 C 15.496094 19.039063 15.253906 19 15 19 C 14 19 13.179688 19.730469 13.03125 20.6875 L 6.21875 23.4375 C 5.878906 23.171875 5.460938 23 5 23 C 3.894531 23 3 23.894531 3 25 C 3 26.105469 3.894531 27 5 27 C 6.007813 27 6.832031 26.253906 6.96875 25.28125 L 13.78125 22.5625 C 14.121094 22.828125 14.539063 23 15 23 C 16.105469 23 17 22.105469 17 21 C 17 20.894531 16.984375 20.789063 16.96875 20.6875 L 24.28125 14.875 C 24.503906 14.960938 24.746094 15 25 15 C 25.398438 15 25.78125 14.890625 26.09375 14.6875 L 33 18.125 C 33.066406 19.171875 33.9375 20 35 20 C 36.105469 20 37 19.105469 37 18 C 37 17.707031 36.925781 17.4375 36.8125 17.1875 L 44.8125 6 C 44.875 6.003906 44.9375 6 45 6 C 46.105469 6 47 5.105469 47 4 C 47 2.894531 46.105469 2 45 2 Z M 41 15 L 41 50 L 49 50 L 49 15 Z M 43 17 L 47 17 L 47 48 L 43 48 Z M 21 24 L 21 50 L 29 50 L 29 24 Z M 23 26 L 27 26 L 27 48 L 23 48 Z M 31 29 L 31 50 L 39 50 L 39 29 Z M 33 31 L 37 31 L 37 48 L 33 48 Z M 11 32 L 11 50 L 19 50 L 19 32 Z M 13 34 L 17 34 L 17 48 L 13 48 Z M 1 36 L 1 50 L 9 50 L 9 36 Z M 3 38 L 7 38 L 7 48 L 3 48 Z "></path>
  </symbol>

  <symbol id="growth" viewBox="0 0 200 200">
    <rect x="7.336" y="193.64" width="182.147" height="6.36"></rect>
    <g>
      <path d="M153.533,43.643c-12.031,0-21.82-9.79-21.82-21.821C131.713,9.789,141.502,0,153.533,0 c12.032,0,21.821,9.789,21.821,21.821C175.354,33.853,165.565,43.643,153.533,43.643z M153.533,6.36 c-8.525,0-15.46,6.936-15.46,15.461c0,8.526,6.935,15.46,15.46,15.46c8.526,0,15.461-6.935,15.461-15.46 C168.994,13.296,162.06,6.36,153.533,6.36z"></path>
      <rect x="150.354" y="131.004" width="6.36" height="55.922"></rect>
      <rect x="130.381" y="109.701" width="6.36" height="77.225"></rect>
      <rect x="170.326" y="109.701" width="6.36" height="77.225"></rect>
      <path d="M192.664,123.531h-19.157v-6.36h12.797V73.75c0-4.483-1.748-8.702-4.92-11.874 c-3.171-3.172-7.388-4.919-11.872-4.919h-1.939l-14.039,14.041l-14.039-14.041h-1.938c-4.485,0-8.702,1.748-11.874,4.919 c-3.17,3.172-4.918,7.39-4.918,11.874v43.421h12.797v6.36h-19.157V73.75c0-6.183,2.407-11.998,6.78-16.371 c4.374-4.374,10.188-6.783,16.372-6.783h4.575L153.533,62l11.403-11.404h4.575c6.184,0,11.998,2.409,16.37,6.783 c4.375,4.373,6.782,10.188,6.782,16.371V123.531z"></path>
      <g>
        <rect x="150.354" y="76.414" width="6.36" height="7.067"></rect>
        <rect x="150.354" y="90.548" width="6.36" height="7.067"></rect>
      </g>
    </g>
    <g>
      <g>
        <polygon points="24.651,186.926 18.291,186.926 18.291,151.943 39.845,151.943 39.845,158.304 24.651,158.304"></polygon>
        <polygon points="52.919,186.926 46.559,186.926 46.559,101.27 68.114,101.27 68.114,107.63 52.919,107.63"></polygon>
        <polygon points="81.188,186.926 74.828,186.926 74.828,50.596 106.276,50.596 106.276,56.957 81.188,56.957"></polygon>
      </g>
      <g>
        <rect x="103.096" y="135.501" width="6.36" height="51.425"></rect>
        <polygon points="115.335,149.058 106.276,139.998 97.217,149.058 92.72,144.561 106.276,131.004 119.832,144.561"></polygon>
      </g>
    </g>
  </symbol>
  
  <symbol id="handshake" viewBox="0 0 60 60">
    <path d="M59.69 29.668c-0.1-0.5-0.3-1-0.4-1.6-0.4-1.6-0.9-3.2-1.3-4.7-0.2-0.6-0.3-1.2-0.5-1.7-0.5-1.7-1-3-1.4-3.9-0.3-0.7-0.7-1.5-1.1-2.4-0.3-0.5-0.5-1-0.9-1.5-0.6-0.9-1.2-1.9-1.8-2.8-0.2-0.3-0.4-0.6-0.6-0.9-0.1-0.2-0.2-0.3-0.2-0.3-0.6-0.9-1.8-1.1-2.8-0.6l-3.3 2.1c-0.9 0.6-1.2 1.8-0.6 2.8 0 0.1-1.4-0.2-2.3-0.4-2-0.6-4-1-5.9-1.2-2.8-0.4-5.3-0.3-7.2 0.2l-13.9 0.9c0.2-0.8-0.1-1.7-0.8-2.2l-3.3-2.1c-0.9-0.6-2.2-0.3-2.8 0.6 0 0-0.1 0.2-0.2 0.3-0.2 0.3-0.4 0.5-0.6 0.9-0.6 0.9-1.2 1.9-1.8 2.8-0.3 0.5-0.6 1-0.9 1.5-0.5 0.9-0.9 1.7-1.1 2.4-0.4 0.9-0.8 2.3-1.4 3.9-0.2 0.5-0.3 1.1-0.5 1.7-0.4 1.5-0.9 3.1-1.3 4.7-0.2 0.6-0.3 1.1-0.4 1.6-0.1 0.3-0.1 0.5-0.2 0.6-0.2 0.9 0.1 2 0.8 2.6l2 1.8c0.9 0.8 2.3 0.5 2.7-0.7 0.6 0.2 1.1 0.4 1.7 0.6 0.3 0.1 0.6 0.2 0.9 0.3 0.1 0 0.6 0.2 0.7 0.2-0.7 1.3-0.4 3 0.8 4 0.7 0.5 1.5 0.7 2.3 0.6-0.4 1.2 0 2.5 1 3.3s2.4 0.8 3.4 0.2c0.1 0.8 0.5 1.6 1.1 2.1 0.8 0.6 1.9 0.8 2.8 0.5-0.1 1 0.3 2 1.1 2.6 1.3 1 3.2 0.8 4.2-0.5l0.6-0.7c0.2 0.2 0.3 0.3 0.7 0.7 1.2 1.2 1.2 1.2 1.5 1.6 1.3 1.4 3.6 1.4 4.9 0.1 0.7-0.7 1.1-1.6 1.1-2.5 1.3 1.1 3.3 1.1 4.6-0.2 0.7-0.7 1.1-1.6 1.1-2.5 1.3 1.1 3.3 1.1 4.6-0.2 0.8-0.8 1.1-1.8 1-2.8 1.3 0.6 2.9 0.4 4-0.6s1.3-2.6 0.8-3.9l3.5-2.6c0.4 1.2 1.7 1.5 2.7 0.7l2-1.8c1.1-1 1.4-2.1 1.1-3 0-0.1-0.1-0.3-0.2-0.6zM42.090 15.768c1.1 0.3 2.2 0.6 3.2 1 0.3 0.1 1.3 0.2 1.3 0.2 0.5 0.7 0.9 1.5 1.4 2.2 0.2 0.3 0.4 0.6 0.6 1 0.8 1.3 1.4 2.4 1.8 3.3 0.4 0.8 0.9 1.9 1.4 3.3 0.2 0.4 0.3 0.8 0.5 1.3 0.5 1.3 1 2.7 1.5 4.1l-3.8 2.8c-0.1 0-0.1-0.1-0.2-0.1-0.6-0.5-1.3-1.1-2-1.7-2.1-1.8-4.2-3.5-6.2-5.2-0.3-0.2-0.6-0.5-0.8-0.7-5.9-4.7-9.1-7.1-10.3-7-0.9 0-1.9 0.6-3.1 1.6-0.4 0.4-0.8 0.7-1.3 1.2-0.6 0.6-1.1 1.2-1.6 1.8-0.2 0.2-0.4 0.4-0.5 0.6-0.1 0.1-0.2 0.2-0.2 0.2-0.3 0.4-1 0.5-1.4 0.1l-0.8-0.6c-0.5-0.4-0.6-1.2-0.3-1.7 0.1-0.1 0.1-0.3 0.2-0.4 0.2-0.3 0.4-0.7 0.6-1 0.7-1.1 1.5-2.2 2.4-3.2 1.8-2 3.7-3.5 5.8-4.1 1.5-0.6 3.7-0.6 6.2-0.2 1.8 0.2 3.7 0.6 5.6 1.2zM4.19 32.868v0l-1.6-1.4c-0.1-0.1-0.2-0.5-0.2-0.6s0.1-0.3 0.2-0.6c0.1-0.5 0.3-1 0.4-1.5 0.4-1.6 0.9-3.2 1.3-4.7 0.2-0.6 0.3-1.1 0.5-1.7 0.5-1.6 0.9-2.9 1.3-3.7 0.3-0.6 0.6-1.4 1.1-2.2 0.3-0.5 0.5-0.9 0.8-1.4 0.5-0.9 1.1-1.8 1.7-2.7 0.2-0.3 0.4-0.6 0.6-0.8 0.1-0.1 0.2-0.3 0.2-0.3v0l3.3 2.1c-0.1 0-0.1 0.2-0.3 0.4-0.2 0.3-0.5 0.7-0.7 1.1-0.7 1.1-1.5 2.3-2.2 3.5-0.2 0.3-0.4 0.7-0.6 1-0.8 1.3-1.4 2.5-1.9 3.4-0.4 0.9-0.9 2-1.5 3.5-0.2 0.4-0.3 0.8-0.5 1.3-0.5 1.3-1 2.8-1.5 4.2-0.1 0.2-0.2 0.7-0.4 1.1v0zM11.29 37.568c-0.4-0.3-0.5-1-0.2-1.4l1.2-1.6c0.3-0.4 1-0.5 1.4-0.2s0.5 1 0.2 1.4l-1.2 1.6c-0.4 0.4-1 0.5-1.4 0.2v0zM14.59 41.368c-0.4-0.3-0.5-1-0.2-1.4l2.5-3.2c0.3-0.4 1-0.5 1.4-0.2s0.5 1 0.2 1.4l-2.5 3.2c-0.4 0.5-1 0.6-1.4 0.2v0zM19.090 43.668c-0.4-0.3-0.5-1-0.2-1.4l2.5-3.2c0.3-0.4 1-0.5 1.4-0.2s0.5 1 0.2 1.4l-2.5 3.2c-0.3 0.5-0.9 0.6-1.4 0.2v0zM25.69 44.968l-1.2 1.6c-0.3 0.4-1 0.5-1.4 0.2s-0.5-1-0.2-1.4l1.2-1.6c0.3-0.4 1-0.5 1.4-0.2 0.5 0.4 0.5 1 0.2 1.4v0zM46.69 39.168l-9.8-8.7-0.5-0.4-0.6 0.3c-0.6 0.3-0.7 0.8-0.5 1.3 0 0.1 0.1 0.2 0.2 0.3s0.2 0.2 0.3 0.4 0.5 0.6 0.9 1 1.7 1.7 2.9 2.9l0.2 0.2c0.9 0.9 1.9 1.9 2.9 2.9 0.3 0.3 0.7 0.7 0.9 0.9s0.3 0.3 0.4 0.4c0.6 0.6 0.5 1.5-0.1 2.1s-1.5 0.6-2.1 0l-8.8-7.6-0.5-0.4-0.6 0.3c-0.5 0.2-0.6 0.7-0.6 1.1 0 0.1 0.1 0.2 0.1 0.4 0.1 0.1 0.1 0.2 0.3 0.4s0.4 0.5 0.7 0.8c0.6 0.6 1.3 1.4 2.3 2.3 0.1 0.1 0.1 0.1 0.2 0.2 0.7 0.7 1.5 1.5 2.3 2.3 0.3 0.3 0.5 0.5 0.8 0.7 0.1 0.1 0.2 0.2 0.3 0.3 0.5 0.6 0.5 1.5-0.1 2.1s-1.5 0.6-2.1 0l-7.1-6.3-0.5-0.5-0.6 0.3c-0.4 0.2-0.6 0.6-0.5 0.9 0 0.2 0 0.3 0.1 0.4s0.1 0.2 0.2 0.4c0.1 0.2 0.3 0.4 0.6 0.7 0.4 0.5 1 1.1 1.7 1.9l0.2 0.2c0.5 0.6 1.1 1.2 1.7 1.8 0.2 0.2 0.4 0.4 0.6 0.6 0.1 0.1 0.2 0.2 0.2 0.2 0.6 0.6 0.5 1.5-0.1 2.1s-1.5 0.6-2.1 0c-0.4-0.4-0.4-0.4-1.5-1.6-0.5-0.6-0.6-0.6-1-1 0.4-1.2 0.1-2.5-1-3.4-0.6-0.5-1.4-0.7-2.1-0.6 0.9-1.3 0.6-3.1-0.6-4-1-0.8-2.4-0.8-3.4-0.2-0.1-0.8-0.5-1.6-1.1-2.1-1-0.8-2.4-0.8-3.4-0.2-0.1-0.8-0.4-1.6-1.1-2.1-1.3-1-3.2-0.8-4.2 0.5l-0.1 0.2c-0.2-0.1-0.5-0.2-0.8-0.3-0.1 0-0.6-0.2-0.7-0.2-0.3-0.1-0.5-0.2-0.8-0.2-0.5-0.2-1.1-0.4-1.7-0.7 0.5-1.4 1-2.8 1.4-4.1 0.2-0.4 0.3-0.9 0.5-1.3 0.5-1.4 1-2.5 1.4-3.3 0.4-0.9 1-2 1.8-3.3 0.2-0.3 0.4-0.6 0.6-1 0.7-1.1 1.4-2.3 2.1-3.4l11.1-0.8c-0.9 0.7-1.8 1.5-2.6 2.5-1 1.1-1.8 2.2-2.6 3.4-0.3 0.4-0.5 0.8-0.7 1.1-0.1 0.2-0.2 0.4-0.2 0.4-0.8 1.3-0.4 3.2 0.8 4.2l0.8 0.6c1.3 1 3.2 0.9 4.2-0.4 0.1-0.2 0.4-0.4 0.7-0.8 0.5-0.6 1-1.2 1.6-1.7l1.1-1.1c0.8-0.7 1.5-1.1 1.8-1.1 0.4 0 4.2 2.7 9 6.6 0.3 0.2 0.6 0.4 0.8 0.7 2 1.6 4.1 3.4 6.2 5.1 0.7 0.6 2.2 2.5 2.2 2.5 0.4 0.4 0.4 1.3-0.2 1.9s-1.5 0.6-2.1 0zM57.79 31.468l-1.6 1.5c-0.1-0.4-0.3-0.9-0.5-1.4-0.5-1.4-1-2.9-1.5-4.2-0.2-0.4-0.3-0.9-0.5-1.3-0.6-1.5-1.1-2.6-1.5-3.5-0.5-1-1.1-2.1-1.9-3.4-0.2-0.3-0.4-0.6-0.6-1-0.7-1.1-1.4-2.3-2.2-3.5-0.3-0.4-0.5-0.8-0.7-1.1-0.1-0.2-0.2-0.3-0.3-0.4l3.3-2.1c0 0.1 0.1 0.2 0.2 0.3 0.2 0.2 0.4 0.5 0.6 0.8 0.6 0.9 1.2 1.8 1.7 2.7 0.3 0.5 0.6 1 0.8 1.4 0.4 0.8 0.8 1.5 1.1 2.2 0.4 0.9 0.8 2.1 1.3 3.7 0.2 0.5 0.3 1.1 0.5 1.7 0.4 1.5 0.9 3.1 1.3 4.7 0.2 0.6 0.3 1.1 0.4 1.5 0.1 0.3 0.1 0.5 0.2 0.6 0.2 0.3 0.1 0.6-0.1 0.8v0z"></path>
  </symbol>

  <symbol id="hotel" viewBox="0 0 50 50">
    <path style="line-height:normal;text-indent:0;text-align:start;text-decoration-line:none;text-decoration-style:solid;text-decoration-color:#000;text-transform:none;block-progression:tb;isolation:auto;mix-blend-mode:normal" d="M 12.691406 0 L 11.564453 2.3320312 L 9 2.6386719 L 10.949219 4.3613281 L 10.435547 7 L 12.691406 5.6816406 L 14.949219 7 L 14.435547 4.3613281 L 16.384766 2.6386719 L 13.820312 2.3320312 L 12.691406 0 z M 14.949219 7 L 10.435547 7 L 9.3007812 7 C 6.3730036 7 4 9.3730039 4 12.300781 L 4 45 A 1.0001 1.0001 0 0 0 5 46 L 45 46 A 1.0001 1.0001 0 0 0 46 45 L 46 12.300781 C 46 9.3730039 43.626997 7 40.699219 7 L 39.564453 7 L 35.050781 7 L 31.359375 7 L 26.845703 7 L 23.154297 7 L 18.640625 7 L 14.949219 7 z M 18.640625 7 L 20.896484 5.6816406 L 23.154297 7 L 22.640625 4.3613281 L 24.589844 2.6386719 L 22.025391 2.3320312 L 20.896484 0 L 19.769531 2.3320312 L 17.205078 2.6386719 L 19.154297 4.3613281 L 18.640625 7 z M 26.845703 7 L 29.103516 5.6816406 L 31.359375 7 L 30.845703 4.3613281 L 32.794922 2.6386719 L 30.230469 2.3320312 L 29.103516 0 L 27.974609 2.3320312 L 25.410156 2.6386719 L 27.359375 4.3613281 L 26.845703 7 z M 35.050781 7 L 37.308594 5.6816406 L 39.564453 7 L 39.050781 4.3613281 L 41 2.6386719 L 38.435547 2.3320312 L 37.308594 0 L 36.179688 2.3320312 L 33.615234 2.6386719 L 35.564453 4.3613281 L 35.050781 7 z M 9.3007812 9 L 40.699219 9 C 42.571441 9 44 10.428559 44 12.300781 L 44 44 L 29 44 L 29 36 A 1.0001 1.0001 0 0 0 28 35 L 22 35 A 1.0001 1.0001 0 0 0 21 36 L 21 44 L 6 44 L 6 12.300781 C 6 10.428559 7.4285592 9 9.3007812 9 z M 10 11 A 1.0001 1.0001 0 0 0 9 12 L 9 16 A 1.0001 1.0001 0 0 0 10 17 L 16 17 A 1.0001 1.0001 0 0 0 17 16 L 17 12 A 1.0001 1.0001 0 0 0 16 11 L 10 11 z M 22 11 A 1.0001 1.0001 0 0 0 21 12 L 21 16 A 1.0001 1.0001 0 0 0 22 17 L 28 17 A 1.0001 1.0001 0 0 0 29 16 L 29 12 A 1.0001 1.0001 0 0 0 28 11 L 22 11 z M 34 11 A 1.0001 1.0001 0 0 0 33 12 L 33 16 A 1.0001 1.0001 0 0 0 34 17 L 40 17 A 1.0001 1.0001 0 0 0 41 16 L 41 12 A 1.0001 1.0001 0 0 0 40 11 L 34 11 z M 11 13 L 15 13 L 15 15 L 11 15 L 11 13 z M 23 13 L 27 13 L 27 15 L 23 15 L 23 13 z M 35 13 L 39 13 L 39 15 L 35 15 L 35 13 z M 10 19 A 1.0001 1.0001 0 0 0 9 20 L 9 24 A 1.0001 1.0001 0 0 0 10 25 L 16 25 A 1.0001 1.0001 0 0 0 17 24 L 17 20 A 1.0001 1.0001 0 0 0 16 19 L 10 19 z M 22 19 A 1.0001 1.0001 0 0 0 21 20 L 21 24 A 1.0001 1.0001 0 0 0 22 25 L 28 25 A 1.0001 1.0001 0 0 0 29 24 L 29 20 A 1.0001 1.0001 0 0 0 28 19 L 22 19 z M 34 19 A 1.0001 1.0001 0 0 0 33 20 L 33 24 A 1.0001 1.0001 0 0 0 34 25 L 40 25 A 1.0001 1.0001 0 0 0 41 24 L 41 20 A 1.0001 1.0001 0 0 0 40 19 L 34 19 z M 11 21 L 15 21 L 15 23 L 11 23 L 11 21 z M 23 21 L 27 21 L 27 23 L 23 23 L 23 21 z M 35 21 L 39 21 L 39 23 L 35 23 L 35 21 z M 10 27 A 1.0001 1.0001 0 0 0 9 28 L 9 32 A 1.0001 1.0001 0 0 0 10 33 L 16 33 A 1.0001 1.0001 0 0 0 17 32 L 17 28 A 1.0001 1.0001 0 0 0 16 27 L 10 27 z M 22 27 A 1.0001 1.0001 0 0 0 21 28 L 21 32 A 1.0001 1.0001 0 0 0 22 33 L 28 33 A 1.0001 1.0001 0 0 0 29 32 L 29 28 A 1.0001 1.0001 0 0 0 28 27 L 22 27 z M 34 27 A 1.0001 1.0001 0 0 0 33 28 L 33 32 A 1.0001 1.0001 0 0 0 34 33 L 40 33 A 1.0001 1.0001 0 0 0 41 32 L 41 28 A 1.0001 1.0001 0 0 0 40 27 L 34 27 z M 11 29 L 15 29 L 15 31 L 11 31 L 11 29 z M 23 29 L 27 29 L 27 31 L 23 31 L 23 29 z M 35 29 L 39 29 L 39 31 L 35 31 L 35 29 z M 10 35 A 1.0001 1.0001 0 0 0 9 36 L 9 40 A 1.0001 1.0001 0 0 0 10 41 L 16 41 A 1.0001 1.0001 0 0 0 17 40 L 17 36 A 1.0001 1.0001 0 0 0 16 35 L 10 35 z M 34 35 A 1.0001 1.0001 0 0 0 33 36 L 33 40 A 1.0001 1.0001 0 0 0 34 41 L 40 41 A 1.0001 1.0001 0 0 0 41 40 L 41 36 A 1.0001 1.0001 0 0 0 40 35 L 34 35 z M 11 37 L 15 37 L 15 39 L 11 39 L 11 37 z M 23 37 L 27 37 L 27 44 L 23 44 L 23 37 z M 35 37 L 39 37 L 39 39 L 35 39 L 35 37 z"></path>
  </symbol>

  <symbol id="intermediate" viewBox="0 0 64 64">
    <path d="M 18 4 C 14.691406 4 12 6.691406 12 10 C 12 13.308594 14.691406 16 18 16 C 21.308594 16 24 13.308594 24 10 C 24 6.691406 21.308594 4 18 4 Z M 48 4 C 44.691406 4 42 6.691406 42 10 C 42 13.308594 44.691406 16 48 16 C 51.308594 16 54 13.308594 54 10 C 54 6.691406 51.308594 4 48 4 Z M 18 5.757813 C 20.339844 5.757813 22.238281 7.660156 22.238281 10 C 22.238281 12.339844 20.339844 14.238281 18 14.238281 C 15.660156 14.238281 13.761719 12.339844 13.761719 10 C 13.761719 7.660156 15.660156 5.757813 18 5.757813 Z M 48 5.757813 C 50.339844 5.757813 52.238281 7.660156 52.238281 10 C 52.238281 12.339844 50.339844 14.238281 48 14.238281 C 45.660156 14.238281 43.761719 12.339844 43.761719 10 C 43.761719 7.660156 45.660156 5.757813 48 5.757813 Z M 28 8 C 27.449219 8 27 8.449219 27 9 L 27 11 C 27 11.550781 27.449219 12 28 12 C 28.550781 12 29 11.550781 29 11 L 29 9 C 29 8.449219 28.550781 8 28 8 Z M 33 8 C 32.449219 8 32 8.449219 32 9 L 32 11 C 32 11.550781 32.449219 12 33 12 C 33.550781 12 34 11.550781 34 11 L 34 9 C 34 8.449219 33.550781 8 33 8 Z M 38 8 C 37.449219 8 37 8.449219 37 9 L 37 11 C 37 11.550781 37.449219 12 38 12 C 38.550781 12 39 11.550781 39 11 L 39 9 C 39 8.449219 38.550781 8 38 8 Z M 48.105469 16.40625 C 43.21875 16.363281 38.71875 19.609375 36.996094 24.355469 L 36.730469 25.09375 C 36.433594 25.90625 35.882813 26.601563 35.160156 27.078125 L 33.515625 28.15625 L 30.640625 26.742188 C 29.960938 26.40625 29.390625 25.886719 28.996094 25.242188 L 27.40625 22.652344 C 24.679688 18.199219 19.476563 15.675781 14.363281 16.746094 C 14.066406 16.808594 13.769531 16.882813 13.472656 16.96875 L 13.082031 17.078125 C 10.691406 17.761719 8.601563 19.238281 7.15625 21.261719 L 5.367188 23.761719 C 4.4375 25.0625 4.1875 26.730469 4.695313 28.25 L 6.367188 33.265625 C 6.894531 34.851563 8.34375 35.921875 10.003906 35.988281 L 10.003906 36.902344 L 8.144531 55.816406 C 8.09375 56.921875 8.484375 57.964844 9.25 58.765625 C 10.011719 59.5625 11.039063 60 12.144531 60 C 13.984375 60 15.542969 58.757813 16.003906 57.089844 C 16.480469 58.777344 18.027344 60 19.859375 60 C 20.960938 60 21.988281 59.5625 22.75 58.765625 C 23.515625 57.964844 23.90625 56.921875 23.859375 55.871094 L 24 37 L 24 30.957031 C 25.246094 32.292969 26.789063 33.316406 28.535156 33.898438 L 31.410156 34.859375 C 32.046875 35.070313 32.707031 35.074219 33.332031 34.921875 C 34.320313 35.335938 35.472656 35.308594 36.464844 34.746094 L 38.347656 33.667969 C 39.34375 33.097656 40.234375 32.382813 41 31.546875 L 41 36.953125 L 40.152344 55.683594 C 40.105469 56.644531 40.347656 57.617188 40.925781 58.386719 C 41.707031 59.421875 42.871094 60 44.144531 60 C 45.976563 60 47.527344 58.769531 48 57.074219 C 48.472656 58.769531 50.023438 60 51.859375 60 C 53.128906 60 54.292969 59.417969 55.074219 58.382813 C 55.652344 57.613281 55.894531 56.644531 55.847656 55.683594 L 55.125 39.71875 C 55.707031 39.96875 56.375 40.066406 57.066406 39.953125 C 58.785156 39.683594 60 38.105469 60 36.363281 L 60 27.535156 C 60 25.105469 59.257813 22.695313 57.726563 20.808594 C 56.296875 19.046875 54.390625 17.785156 52.207031 17.160156 L 51.089844 16.84375 C 50.800781 16.757813 50.507813 16.6875 50.214844 16.628906 C 49.507813 16.484375 48.800781 16.410156 48.105469 16.40625 Z M 47.984375 18.402344 C 48.558594 18.402344 49.140625 18.453125 49.71875 18.566406 C 49.996094 18.621094 50.265625 18.6875 50.535156 18.765625 L 51.65625 19.085938 C 53.46875 19.605469 55.046875 20.65625 56.21875 22.128906 C 57.421875 23.636719 58 25.550781 58 27.484375 L 58 36.5 C 58 37.328125 57.328125 38 56.5 38 C 55.671875 38 55 37.328125 55 36.5 L 55 25.667969 C 55 25.117188 54.550781 24.667969 54 24.667969 C 53.449219 24.667969 53 25.117188 53 25.667969 L 53 36.5 C 53 36.527344 53 36.554688 53 36.582031 L 53.859375 55.90625 C 53.882813 56.460938 53.6875 56.984375 53.308594 57.382813 C 52.886719 57.820313 52.308594 58.042969 51.683594 57.992188 C 50.667969 57.914063 49.902344 57.011719 49.851563 55.996094 L 49 38.949219 C 48.972656 38.417969 48.53125 38 48 38 C 47.46875 38 47.027344 38.417969 47 38.949219 L 46.152344 55.964844 C 46.097656 56.980469 45.351563 57.894531 44.335938 57.988281 C 43.710938 58.050781 43.117188 57.828125 42.691406 57.382813 C 42.308594 56.984375 42.117188 56.460938 42.140625 55.90625 L 43 37 L 43 25.625 C 43 25.074219 42.550781 24.625 42 24.625 C 41.449219 24.625 41 25.074219 41 25.625 L 41 28.128906 C 40.949219 28.179688 40.90625 28.234375 40.867188 28.296875 C 39.960938 29.703125 38.9375 31.027344 37.484375 31.859375 L 35.722656 32.863281 C 35.890625 32.453125 36 32.011719 36 31.546875 C 36 30.75 35.730469 30.003906 35.261719 29.402344 L 36.257813 28.75 C 37.34375 28.035156 38.164063 26.996094 38.609375 25.777344 L 38.890625 25 C 40.304688 21.101563 43.976563 18.40625 47.984375 18.402344 Z M 16.476563 18.5 C 20.175781 18.394531 23.710938 20.441406 25.6875 23.671875 L 27.289063 26.285156 C 27.882813 27.253906 28.738281 28.035156 29.757813 28.535156 L 33.171875 30.214844 C 33.683594 30.464844 34 30.976563 34 31.546875 C 34 32.03125 33.777344 32.472656 33.382813 32.753906 C 32.988281 33.039063 32.5 33.113281 32.042969 32.960938 L 29.167969 32 C 27.492188 31.445313 26.019531 30.40625 24.933594 29.015625 L 21.785156 25.007813 C 21.445313 24.574219 20.816406 24.496094 20.382813 24.839844 C 19.949219 25.179688 19.871094 25.808594 20.214844 26.242188 L 22.015625 28.542969 C 22.015625 28.570313 22 28.597656 22 28.625 L 22 36.992188 L 21.859375 55.910156 C 21.882813 56.460938 21.6875 56.984375 21.308594 57.382813 C 20.925781 57.78125 20.410156 58 19.855469 58 C 18.789063 58 17.910156 57.167969 17.859375 56.15625 L 18 39.007813 C 18.003906 38.476563 17.589844 38.03125 17.058594 38 C 16.515625 37.976563 16.0625 38.363281 16.003906 38.890625 L 14.144531 56.097656 C 14.089844 57.164063 13.214844 58 12.140625 58 C 11.589844 58 11.074219 57.78125 10.691406 57.382813 C 10.3125 56.984375 10.117188 56.460938 10.140625 55.964844 L 12 37 L 12 25.667969 C 12 25.117188 11.550781 24.667969 11 24.667969 C 10.449219 24.667969 10 25.117188 10 25.667969 L 10.003906 33.972656 C 9.210938 33.910156 8.519531 33.398438 8.265625 32.632813 L 6.59375 27.613281 C 6.289063 26.707031 6.441406 25.703125 7 24.921875 L 8.78125 22.421875 C 9.964844 20.769531 11.675781 19.5625 13.632813 19 L 14.019531 18.890625 C 14.308594 18.808594 14.59375 18.738281 14.886719 18.683594 C 15.414063 18.574219 15.949219 18.515625 16.476563 18.5 Z "></path>
  </symbol>

  <symbol id="investment" viewBox="0 0 80 80">
    <path d="M 40 5.820313 L 7 26.445313 L 7 35.804688 L 8.53125 34.847656 L 10 33.925781 L 10 71 L 70 71 L 70 33.929688 L 73 35.804688 L 73 26.445313 Z M 40 8.179688 L 71 27.554688 L 71 32.199219 L 40 12.820313 L 9 32.199219 L 9 27.554688 Z M 40 15.179688 L 68 32.679688 L 68 64 C 67.449219 64 67 64.449219 67 65 C 67 65.550781 67.449219 66 68 66 L 68 69 L 12 69 L 12 66 C 12.550781 66 13 65.550781 13 65 C 13 64.449219 12.550781 64 12 64 L 12 32.675781 Z M 38.984375 29.699219 L 38.984375 31.820313 C 34.835938 32.203125 32.316406 34.554688 32.316406 38.105469 C 32.316406 41.101563 34.191406 43.160156 37.617188 44.035156 L 38.984375 44.390625 L 38.984375 51.394531 C 36.695313 51.136719 35.21875 49.859375 35.066406 48.03125 L 31.8125 48.03125 C 31.824219 51.597656 34.589844 54.007813 38.984375 54.300781 L 38.984375 56.296875 L 41.089844 56.296875 L 41.089844 54.28125 C 45.59375 53.898438 48.1875 51.546875 48.1875 47.78125 C 48.1875 44.601563 46.375 42.652344 42.519531 41.714844 L 41.089844 41.390625 L 41.089844 34.769531 C 43.117188 35.015625 44.5 36.335938 44.5625 38.027344 L 47.773438 38.027344 C 47.679688 34.601563 45.070313 32.175781 41.089844 31.820313 L 41.089844 29.699219 Z M 38.984375 34.753906 L 38.984375 40.949219 C 36.773438 40.503906 35.605469 39.410156 35.605469 37.828125 C 35.605469 36.152344 37.019531 34.863281 38.984375 34.753906 Z M 41.09375 44.789063 C 43.703125 45.3125 44.917969 46.371094 44.917969 48.140625 C 44.917969 50.089844 43.519531 51.289063 41.09375 51.425781 Z M 16 64 C 15.449219 64 15 64.449219 15 65 C 15 65.550781 15.449219 66 16 66 C 16.550781 66 17 65.550781 17 65 C 17 64.449219 16.550781 64 16 64 Z M 20 64 C 19.449219 64 19 64.449219 19 65 C 19 65.550781 19.449219 66 20 66 C 20.550781 66 21 65.550781 21 65 C 21 64.449219 20.550781 64 20 64 Z M 24 64 C 23.449219 64 23 64.449219 23 65 C 23 65.550781 23.449219 66 24 66 C 24.550781 66 25 65.550781 25 65 C 25 64.449219 24.550781 64 24 64 Z M 28 64 C 27.449219 64 27 64.449219 27 65 C 27 65.550781 27.449219 66 28 66 C 28.550781 66 29 65.550781 29 65 C 29 64.449219 28.550781 64 28 64 Z M 32 64 C 31.449219 64 31 64.449219 31 65 C 31 65.550781 31.449219 66 32 66 C 32.550781 66 33 65.550781 33 65 C 33 64.449219 32.550781 64 32 64 Z M 36 64 C 35.449219 64 35 64.449219 35 65 C 35 65.550781 35.449219 66 36 66 C 36.550781 66 37 65.550781 37 65 C 37 64.449219 36.550781 64 36 64 Z M 40 64 C 39.449219 64 39 64.449219 39 65 C 39 65.550781 39.449219 66 40 66 C 40.550781 66 41 65.550781 41 65 C 41 64.449219 40.550781 64 40 64 Z M 44 64 C 43.449219 64 43 64.449219 43 65 C 43 65.550781 43.449219 66 44 66 C 44.550781 66 45 65.550781 45 65 C 45 64.449219 44.550781 64 44 64 Z M 48 64 C 47.449219 64 47 64.449219 47 65 C 47 65.550781 47.449219 66 48 66 C 48.550781 66 49 65.550781 49 65 C 49 64.449219 48.550781 64 48 64 Z M 52 64 C 51.449219 64 51 64.449219 51 65 C 51 65.550781 51.449219 66 52 66 C 52.550781 66 53 65.550781 53 65 C 53 64.449219 52.550781 64 52 64 Z M 56 64 C 55.449219 64 55 64.449219 55 65 C 55 65.550781 55.449219 66 56 66 C 56.550781 66 57 65.550781 57 65 C 57 64.449219 56.550781 64 56 64 Z M 60 64 C 59.449219 64 59 64.449219 59 65 C 59 65.550781 59.449219 66 60 66 C 60.550781 66 61 65.550781 61 65 C 61 64.449219 60.550781 64 60 64 Z M 64 64 C 63.449219 64 63 64.449219 63 65 C 63 65.550781 63.449219 66 64 66 C 64.550781 66 65 65.550781 65 65 C 65 64.449219 64.550781 64 64 64 Z "></path>
  </symbol>

  <symbol id="location" viewBox="0 0 64 64">
    <path d="M 31.953125 2.28125 C 23.101563 2.28125 15.90625 9.480469 15.90625 18.328125 C 15.90625 24.074219 19.339844 29.222656 22.980469 34.675781 C 24.199219 36.5 25.425781 38.347656 26.550781 40.246094 C 14.679688 41.28125 6 45.625 6 51 C 6 57.167969 17.421875 62 32 62 C 46.578125 62 58 57.167969 58 51 C 58 45.613281 49.277344 41.257813 37.355469 40.238281 C 38.476563 38.34375 39.707031 36.5 40.921875 34.679688 C 44.5625 29.226563 48 24.074219 48 18.328125 C 48 9.480469 40.800781 2.28125 31.953125 2.28125 Z M 31.953125 4.28125 C 39.695313 4.28125 46 10.582031 46 18.328125 C 46 23.46875 42.726563 28.375 39.257813 33.566406 C 36.425781 37.8125 33.515625 42.164063 31.949219 47.113281 C 30.382813 42.164063 27.476563 37.808594 24.644531 33.5625 C 21.179688 28.371094 17.90625 23.46875 17.90625 18.328125 C 17.90625 10.585938 24.207031 4.28125 31.953125 4.28125 Z M 30.621094 10.089844 C 29.886719 10.214844 29.171875 10.445313 28.496094 10.769531 C 24.523438 12.691406 22.855469 17.480469 24.773438 21.453125 C 26.152344 24.308594 29.015625 25.972656 31.988281 25.972656 C 33.15625 25.972656 34.339844 25.71875 35.457031 25.175781 C 38.773438 23.574219 40.566406 19.9375 39.808594 16.335938 C 39.695313 15.796875 39.167969 15.449219 38.625 15.5625 C 38.085938 15.675781 37.738281 16.207031 37.851563 16.746094 C 38.417969 19.445313 37.078125 22.175781 34.589844 23.375 C 31.609375 24.816406 28.011719 23.566406 26.574219 20.585938 C 25.136719 17.605469 26.386719 14.011719 29.367188 12.574219 C 29.875 12.328125 30.410156 12.152344 30.960938 12.058594 C 31.503906 11.964844 31.871094 11.449219 31.777344 10.90625 C 31.683594 10.359375 31.167969 9.992188 30.621094 10.089844 Z M 34.582031 10.484375 C 34.195313 10.492188 33.828125 10.726563 33.671875 11.109375 C 33.46875 11.621094 33.714844 12.207031 34.226563 12.410156 C 34.957031 12.707031 35.609375 13.132813 36.171875 13.679688 C 36.363281 13.867188 36.613281 13.964844 36.867188 13.964844 C 37.128906 13.964844 37.386719 13.859375 37.582031 13.660156 C 37.96875 13.265625 37.960938 12.632813 37.5625 12.246094 C 36.816406 11.515625 35.945313 10.949219 34.972656 10.558594 C 34.847656 10.507813 34.714844 10.480469 34.582031 10.484375 Z M 32 16 C 30.894531 16 30 16.894531 30 18 C 30 19.105469 30.894531 20 32 20 C 33.105469 20 34 19.105469 34 18 C 34 16.894531 33.105469 16 32 16 Z M 36.265625 42.160156 C 48.222656 42.976563 56 47.101563 56 51 C 56 55.347656 46.355469 60 32 60 C 17.644531 60 8 55.347656 8 51 C 8 47.113281 15.738281 43 27.636719 42.171875 C 29.257813 45.199219 30.523438 48.378906 30.957031 51.84375 C 31.019531 52.34375 31.445313 52.71875 31.949219 52.71875 C 32.453125 52.71875 32.878906 52.34375 32.941406 51.84375 C 33.378906 48.378906 34.640625 45.191406 36.265625 42.160156 Z M 20.03125 54.707031 C 19.644531 54.769531 19.316406 55.054688 19.214844 55.453125 C 19.078125 55.992188 19.40625 56.535156 19.941406 56.667969 C 23.410156 57.539063 27.578125 58 32 58 C 33.371094 58 34.742188 57.953125 36.074219 57.863281 C 36.625 57.828125 37.039063 57.351563 37 56.796875 C 36.964844 56.25 36.5 55.832031 35.9375 55.871094 C 34.652344 55.957031 33.328125 56 32 56 C 27.800781 56 23.691406 55.546875 20.425781 54.730469 C 20.292969 54.695313 20.160156 54.6875 20.03125 54.707031 Z M 43.96875 54.710938 C 43.84375 54.691406 43.707031 54.695313 43.574219 54.730469 C 42.601563 54.972656 41.554688 55.183594 40.453125 55.359375 C 39.90625 55.449219 39.535156 55.960938 39.625 56.507813 C 39.703125 57 40.128906 57.347656 40.609375 57.347656 C 40.664063 57.347656 40.71875 57.34375 40.769531 57.335938 C 41.925781 57.148438 43.035156 56.925781 44.0625 56.667969 C 44.597656 56.535156 44.921875 55.992188 44.785156 55.453125 C 44.6875 55.054688 44.355469 54.769531 43.96875 54.710938 Z "></path>
  </symbol>

  <symbol id="realstate" viewBox="0 0 50 50">
    <path d="M 12 3.613281 L 12 28 L 9 28 L 9 23 L 7 23 L 7 28 L 4 28 L 4 46 L 46 46 L 46 15 L 35 15 L 35 11.28125 L 32 10.28125 L 32 4 L 30 4 L 30 9.609375 L 28 8.945313 L 28 4 L 26 4 L 26 8.28125 Z M 14 6.390625 L 33 12.71875 L 33 44 L 28 44 L 28 40.855469 C 29.714844 40.40625 31 38.851563 31 37 C 31 34.800781 29.199219 33 27 33 C 24.800781 33 23 34.800781 23 37 C 23 38.851563 24.285156 40.40625 26 40.855469 L 26 44 L 21 44 L 21 28 L 14 28 Z M 16 12 L 16 14 L 22 14 L 22 12 Z M 16 16 L 16 18 L 31 18 L 31 16 Z M 38 19 L 42 19 L 42 22 L 38 22 Z M 16 20 L 16 22 L 24 22 L 24 20 Z M 26.011719 20 L 25.988281 22 L 30.988281 22.046875 L 31.011719 20.046875 Z M 16 24 L 16 26 L 31 26 L 31 24 Z M 38 24 L 42 24 L 42 27 L 38 27 Z M 23 28 L 23 30 L 31 30 L 31 28 Z M 38 29 L 42 29 L 42 32 L 38 32 Z M 8 32 L 11 32 L 11 34 L 8 34 Z M 14 32 L 17 32 L 17 34 L 14 34 Z M 38 34 L 42 34 L 42 37 L 38 37 Z M 8 36 L 11 36 L 11 38 L 8 38 Z M 14 36 L 17 36 L 17 38 L 14 38 Z M 38 39 L 42 39 L 42 42 L 38 42 Z M 8 40 L 11 40 L 11 42 L 8 42 Z M 14 40 L 17 40 L 17 42 L 14 42 Z "></path>
  </symbol>

  <symbol id="training" viewBox="0 0 50 50">
    <path style=" " d="M 12 2 C 9.25 2 7 4.25 7 7 C 7 9.75 9.25 12 12 12 C 14.75 12 17 9.75 17 7 C 17 4.25 14.75 2 12 2 Z M 29 2 L 29 4 L 19 4 L 19 6 L 46 6 L 46 32 L 20 32 L 20 34 L 28.5 34 L 23 45 L 25 45 L 30 35 L 35 45 L 37 45 L 31.5 34 L 47 34 C 47.550781 34 48 33.550781 48 33 L 48 5 C 48 4.449219 47.550781 4 47 4 L 31 4 L 31 2 Z M 12 4 C 13.667969 4 15 5.332031 15 7 C 15 8.667969 13.667969 10 12 10 C 10.332031 10 9 8.667969 9 7 C 9 5.332031 10.332031 4 12 4 Z M 7.5 13 C 4.472656 13 2 15.472656 2 18.5 L 2 30.8125 C 1.996094 30.855469 1.996094 30.894531 2 30.9375 L 2 31 C 1.996094 31.09375 2.007813 31.191406 2.03125 31.28125 C 2.179688 32.792969 3.453125 34 5 34 C 5.351563 34 5.683594 33.925781 6 33.8125 L 6 44.5 C 6 46.421875 7.578125 48 9.5 48 C 10.476563 48 11.363281 47.589844 12 46.9375 C 12.636719 47.589844 13.523438 48 14.5 48 C 16.421875 48 18 46.421875 18 44.5 L 18 19 L 29 19 C 30.644531 19 32 17.644531 32 16 C 32 14.375 30.679688 13.035156 29.0625 13 C 29.042969 13 29.019531 13 29 13 L 15 13 C 14.613281 12.996094 14.261719 13.214844 14.09375 13.5625 L 12 17.75 L 9.90625 13.5625 C 9.738281 13.214844 9.386719 12.996094 9 13 Z M 7.5 15 L 8.375 15 L 11.09375 20.4375 C 11.257813 20.789063 11.613281 21.015625 12 21.015625 C 12.386719 21.015625 12.742188 20.789063 12.90625 20.4375 L 15.625 15 L 29 15 C 29.03125 15 29.0625 15 29.09375 15 C 29.613281 15.046875 30 15.46875 30 16 C 30 16.566406 29.566406 17 29 17 L 17 17 C 16.449219 17 16 17.449219 16 18 L 16 44.5 C 16 45.339844 15.339844 46 14.5 46 C 13.710938 46 13.074219 45.421875 13 44.65625 L 13 44.40625 C 13 44.375 13 44.34375 13 44.3125 L 13 34 C 13.011719 33.710938 12.894531 33.433594 12.6875 33.238281 C 12.476563 33.039063 12.191406 32.941406 11.90625 32.96875 C 11.863281 32.976563 11.820313 32.988281 11.78125 33 C 11.316406 33.105469 10.988281 33.523438 11 34 L 11 44.3125 C 10.996094 44.355469 10.996094 44.394531 11 44.4375 L 11 44.65625 C 10.925781 45.421875 10.289063 46 9.5 46 C 8.660156 46 8 45.339844 8 44.5 L 8 21 C 8.007813 20.691406 7.871094 20.398438 7.632813 20.203125 C 7.398438 20.007813 7.082031 19.933594 6.78125 20 C 6.316406 20.105469 5.988281 20.523438 6 21 L 6 30.84375 C 6 30.875 6 30.90625 6 30.9375 L 6 31 C 6 31.566406 5.566406 32 5 32 C 4.457031 32 4.03125 31.597656 4 31.0625 C 4 31.042969 4 31.019531 4 31 C 4.007813 30.9375 4.007813 30.875 4 30.8125 L 4 18.5 C 4 16.554688 5.554688 15 7.5 15 Z "></path>
  </symbol>
</svg>
