<svg xmlns="http://www.w3.org/2000/svg" style="display: none;">
  <symbol id="building" viewBox="0 0 64 64">
    <path d="M 29 0.0585938 C 28.449219 0.0585938 28 0.503906 28 1.054688 L 28 10 L 15 10 C 14.449219 10 14 10.445313 14 11 C 14 11.554688 14.449219 12 15 12 L 16 12 L 16 32 L 5 32 C 3.347656 32 2 33.347656 2 35 C 2 36.300781 2.839844 37.402344 4 37.816406 L 4 62 L 1 62 C 0.449219 62 0 62.445313 0 63 C 0 63.554688 0.449219 64 1 64 L 63 64 C 63.550781 64 64 63.554688 64 63 C 64 62.445313 63.550781 62 63 62 L 60 62 L 60 28 L 61 28 C 61.550781 28 62 27.554688 62 27 C 62 26.445313 61.550781 26 61 26 L 52 26 L 52 24 C 52 22.898438 51.101563 22 50 22 L 46 22 L 46 12 L 47 12 C 47.550781 12 48 11.554688 48 11 C 48 10.445313 47.550781 10 47 10 L 34 10 L 34 6.054688 C 34 5.503906 33.550781 5.054688 33 5.054688 C 32.449219 5.054688 32 5.503906 32 6.054688 L 32 10 L 30 10 L 30 1.054688 C 30 0.503906 29.550781 0.0585938 29 0.0585938 Z M 18 12 L 44 12 L 44 62 L 18 62 Z M 23 16 C 22.449219 16 22 16.445313 22 17 L 22 23 C 22 23.554688 22.449219 24 23 24 C 23.550781 24 24 23.554688 24 23 L 24 17 C 24 16.445313 23.550781 16 23 16 Z M 31 16 C 30.449219 16 30 16.445313 30 17 L 30 19 C 30 19.554688 30.449219 20 31 20 C 31.550781 20 32 19.554688 32 19 L 32 17 C 32 16.445313 31.550781 16 31 16 Z M 39 16 C 38.449219 16 38 16.445313 38 17 L 38 23 C 38 23.554688 38.449219 24 39 24 C 39.550781 24 40 23.554688 40 23 L 40 17 C 40 16.445313 39.550781 16 39 16 Z M 31 24 C 30.449219 24 30 24.445313 30 25 L 30 26 C 27.792969 26 26 27.792969 26 30 L 26 31 C 26 33.207031 27.792969 35 30 35 L 32 35 C 33.101563 35 34 35.898438 34 37 L 34 38 C 34 39.101563 33.101563 40 32 40 L 32 37 C 32 36.445313 31.550781 36 31 36 C 30.449219 36 30 36.445313 30 37 L 30 40 C 28.898438 40 28 39.101563 28 38 C 28 37.445313 27.550781 37 27 37 C 26.449219 37 26 37.445313 26 38 C 26 40.207031 27.792969 42 30 42 L 30 43 C 30 43.554688 30.449219 44 31 44 C 31.550781 44 32 43.554688 32 43 L 32 42 C 34.207031 42 36 40.207031 36 38 L 36 37 C 36 34.792969 34.207031 33 32 33 L 32 30 C 32 29.445313 31.550781 29 31 29 C 30.449219 29 30 29.445313 30 30 L 30 33 C 28.898438 33 28 32.101563 28 31 L 28 30 C 28 28.898438 28.898438 28 30 28 L 32 28 C 33.101563 28 34 28.898438 34 30 C 34 30.554688 34.449219 31 35 31 C 35.550781 31 36 30.554688 36 30 C 36 27.792969 34.207031 26 32 26 L 32 25 C 32 24.445313 31.550781 24 31 24 Z M 46 24 L 50 24 L 50 28 L 58 28 L 58 40 L 48 40 C 47.449219 40 47 40.445313 47 41 C 47 41.554688 47.449219 42 48 42 L 58 42 L 58 62 L 46 62 Z M 51 30 C 50.449219 30 50 30.445313 50 31 C 50 31.554688 50.449219 32 51 32 L 53 32 C 53.550781 32 54 31.554688 54 31 C 54 30.445313 53.550781 30 53 30 Z M 5 34 L 16 34 L 16 36 L 5 36 C 4.449219 36 4 35.550781 4 35 C 4 34.449219 4.449219 34 5 34 Z M 51 34 C 50.449219 34 50 34.445313 50 35 C 50 35.554688 50.449219 36 51 36 L 53 36 C 53.550781 36 54 35.554688 54 35 C 54 34.445313 53.550781 34 53 34 Z M 6 38 L 16 38 L 16 62 L 14 62 L 14 57.949219 C 14 56.847656 13.101563 55.949219 12 55.949219 L 10 55.949219 C 8.898438 55.949219 8 56.847656 8 57.949219 L 8 62 L 6 62 Z M 10 40 C 9.449219 40 9 40.445313 9 41 C 9 41.554688 9.449219 42 10 42 L 12 42 C 12.550781 42 13 41.554688 13 41 C 13 40.445313 12.550781 40 12 40 Z M 10 44 C 9.449219 44 9 44.445313 9 45 C 9 45.554688 9.449219 46 10 46 L 12 46 C 12.550781 46 13 45.554688 13 45 C 13 44.445313 12.550781 44 12 44 Z M 23 44 C 22.449219 44 22 44.445313 22 45 L 22 51 C 22 51.554688 22.449219 52 23 52 C 23.550781 52 24 51.554688 24 51 L 24 45 C 24 44.445313 23.550781 44 23 44 Z M 39 44 C 38.449219 44 38 44.445313 38 45 L 38 57 C 38 57.554688 38.449219 58 39 58 C 39.550781 58 40 57.554688 40 57 L 40 45 C 40 44.445313 39.550781 44 39 44 Z M 51 44 C 50.449219 44 50 44.445313 50 45 C 50 45.554688 50.449219 46 51 46 L 53 46 C 53.550781 46 54 45.554688 54 45 C 54 44.445313 53.550781 44 53 44 Z M 10 48 C 9.449219 48 9 48.445313 9 49 C 9 49.554688 9.449219 50 10 50 L 12 50 C 12.550781 50 13 49.554688 13 49 C 13 48.445313 12.550781 48 12 48 Z M 31 48 C 30.449219 48 30 48.445313 30 49 L 30 57 C 30 57.554688 30.449219 58 31 58 C 31.550781 58 32 57.554688 32 57 L 32 49 C 32 48.445313 31.550781 48 31 48 Z M 51 48 C 50.449219 48 50 48.445313 50 49 C 50 49.554688 50.449219 50 51 50 L 53 50 C 53.550781 50 54 49.554688 54 49 C 54 48.445313 53.550781 48 53 48 Z M 10 52 C 9.449219 52 9 52.445313 9 53 C 9 53.554688 9.449219 54 10 54 L 12 54 C 12.550781 54 13 53.554688 13 53 C 13 52.445313 12.550781 52 12 52 Z M 51 52 C 50.449219 52 50 52.445313 50 53 C 50 53.554688 50.449219 54 51 54 L 53 54 C 53.550781 54 54 53.554688 54 53 C 54 52.445313 53.550781 52 53 52 Z M 23 54 C 22.449219 54 22 54.445313 22 55 L 22 57 C 22 57.554688 22.449219 58 23 58 C 23.550781 58 24 57.554688 24 57 L 24 55 C 24 54.445313 23.550781 54 23 54 Z M 51 56 C 50.449219 56 50 56.445313 50 57 C 50 57.554688 50.449219 58 51 58 L 53 58 C 53.550781 58 54 57.554688 54 57 C 54 56.445313 53.550781 56 53 56 Z M 10 57.949219 L 12 57.949219 L 12 61.949219 L 10 61.949219 Z" />
  </symbol>
  <symbol id="dataanalysis" viewBox="0 0 64 64">
    <path d="m 47.070313,4 c -0.460938,0 -0.859375,0.3125 -0.972657,0.757813 l -0.945312,3.789062 c -0.273438,0.101563 -0.546875,0.214844 -0.820313,0.34375 L 40.980469,6.878906 C 40.585938,6.644531 40.082031,6.703125 39.757813,7.027344 L 37.636719,9.148438 C 34.148438,8.425781 30.21875,8 26,8 11.421875,8 0,12.832031 0,19 l 0,30 c 0,6.167969 11.421875,11 26,11 14.578125,0 26,-4.832031 26,-11 l 0,-16.15625 0.847656,-3.390625 c 0.273438,-0.101562 0.550782,-0.214844 0.820313,-0.34375 l 3.351562,2.011719 c 0.394532,0.234375 0.898438,0.175781 1.222657,-0.148438 l 2.730468,-2.730468 c 0.324219,-0.324219 0.386719,-0.828125 0.148438,-1.222657 l -2.011719,-3.351562 c 0.128906,-0.269531 0.242188,-0.546875 0.34375,-0.820313 l 3.789063,-0.945312 C 63.6875,21.789063 64,21.390625 64,20.933594 l 0,-3.863281 c 0,-0.460938 -0.3125,-0.859375 -0.757812,-0.972657 l -3.789063,-0.945312 c -0.101562,-0.273438 -0.214844,-0.546875 -0.34375,-0.820313 l 2.011719,-3.351562 c 0.234375,-0.394531 0.175781,-0.894531 -0.148438,-1.222656 L 58.242188,7.03125 C 57.917969,6.703125 57.414063,6.640625 57.019531,6.878906 L 53.667969,8.890625 C 53.398438,8.761719 53.121094,8.648438 52.847656,8.546875 L 51.902344,4.757813 C 51.789063,4.3125 51.390625,4 50.933594,4 Z m 0.78125,2 2.300781,0 0.890625,3.558594 c 0.08203,0.339844 0.339844,0.609375 0.671875,0.714844 0.511719,0.15625 1.023437,0.371093 1.535156,0.640625 0.308594,0.164062 0.679688,0.152343 0.980469,-0.02734 l 3.148437,-1.894531 1.625,1.628906 -1.890625,3.152344 c -0.179687,0.300781 -0.1875,0.671875 -0.02344,0.980468 0.265625,0.507813 0.480469,1.023438 0.640625,1.53125 0.101562,0.335938 0.371094,0.589844 0.710937,0.675782 L 62,17.851563 l 0,2.296875 -3.558594,0.890625 c -0.339843,0.08594 -0.609375,0.339843 -0.710937,0.675781 -0.160156,0.507812 -0.375,1.023437 -0.644531,1.53125 -0.164063,0.308594 -0.152344,0.679687 0.02734,0.980469 l 1.890625,3.152343 -1.625,1.625 -3.152343,-1.890625 c -0.300782,-0.179687 -0.671875,-0.1875 -0.980469,-0.02734 -0.507813,0.269531 -1.023438,0.484375 -1.53125,0.644531 -0.335938,0.101562 -0.589844,0.371094 -0.675781,0.710937 L 50.148438,32 47.847656,32 46.957031,28.441406 C 46.875,28.101563 46.617188,27.832031 46.285156,27.730469 45.773438,27.570313 45.261719,27.355469 44.75,27.085938 c -0.308594,-0.164063 -0.679687,-0.152344 -0.980469,0.02734 l -3.148437,1.890625 -1.625,-1.625 1.890625,-3.152343 c 0.179687,-0.300782 0.1875,-0.671875 0.02344,-0.980469 -0.265625,-0.507813 -0.480468,-1.023438 -0.640625,-1.53125 C 40.167969,21.378906 39.898438,21.125 39.558594,21.039063 L 36,20.148438 l 0,-2.300782 3.558594,-0.890625 c 0.339844,-0.08203 0.609375,-0.339843 0.710937,-0.671875 0.160157,-0.511718 0.375,-1.023437 0.644532,-1.535156 0.164062,-0.308594 0.152343,-0.679687 -0.02734,-0.976562 l -1.890625,-3.152344 1.625,-1.628906 3.152344,1.894531 c 0.300781,0.179687 0.671875,0.1875 0.980468,0.02734 0.507813,-0.269532 1.023438,-0.484375 1.53125,-0.640625 0.335938,-0.105469 0.589844,-0.375 0.675782,-0.714844 z M 26,10 c 4.042969,0 7.707031,0.375 10.890625,1 l 2,3.332031 c -0.128906,0.269532 -0.242187,0.546875 -0.34375,0.820313 l -3.789062,0.945312 C 34.3125,16.210938 34,16.609375 34,17.066406 l 0,3.863282 c 0,0.460937 0.3125,0.859375 0.757813,0.972656 l 3.789062,0.945312 c 0.101563,0.273438 0.214844,0.546875 0.34375,0.820313 l -2,3.332031 C 33.707031,27.628906 30.042969,28 26,28 11.644531,28 2,23.347656 2,19 2,14.652344 11.644531,10 26,10 Z m 1.125,2.011719 c -0.546875,0 -0.992187,0.433594 -1,0.980469 -0.01172,0.550781 0.429688,1.007812 0.984375,1.019531 0.941406,0.01563 1.894531,0.05859 2.828125,0.121094 0.01953,0 0.04297,0.0039 0.06641,0.0039 0.519532,0 0.960938,-0.40625 0.996094,-0.933594 0.03906,-0.554687 -0.378906,-1.027344 -0.929687,-1.066406 -0.964844,-0.06641 -1.953125,-0.105469 -2.929688,-0.125 z m -4.496094,0.08203 c -3.15625,0.175781 -6.164062,0.601563 -8.691406,1.234375 -0.535156,0.136719 -0.859375,0.683594 -0.722656,1.21875 0.113281,0.453125 0.519531,0.753906 0.96875,0.753906 0.08203,0 0.164062,-0.0078 0.242187,-0.03125 2.40625,-0.601562 5.28125,-1.011718 8.3125,-1.179687 0.554688,-0.03125 0.976563,-0.503906 0.945313,-1.054688 -0.03125,-0.550781 -0.511719,-0.960937 -1.054688,-0.941406 z M 49,14 c -2.757812,0 -5,2.242188 -5,5 0,2.757813 2.242188,5 5,5 2.757813,0 5,-2.242187 5,-5 0,-2.757812 -2.242187,-5 -5,-5 z m 0,2 c 1.652344,0 3,1.347656 3,3 0,1.652344 -1.347656,3 -3,3 -1.652344,0 -3,-1.347656 -3,-3 0,-1.652344 1.347656,-3 3,-3 z M 2,23.308594 C 5.886719,27.277344 15.054688,30 26,30 c 4.21875,0 8.148438,-0.425781 11.636719,-1.152344 l 2.125,2.125 c 0.320312,0.324219 0.824219,0.382813 1.21875,0.148438 l 3.351562,-2.011719 c 0.273438,0.128906 0.546875,0.242188 0.820313,0.34375 l 0.945312,3.789063 c 0.04297,0.164062 0.132813,0.300781 0.242188,0.417968 C 42.277344,36.132813 35.089844,38 26,38 11.644531,38 2,33.347656 2,29 Z m 0,10 C 5.886719,37.277344 15.054688,40 26,40 36.292969,40 44.992188,37.585938 49.230469,34 L 50,34 l 0,5 c 0,1.730469 -1.53125,3.519531 -4.316406,5.035156 -0.484375,0.265625 -0.664063,0.871094 -0.402344,1.355469 0.183594,0.335938 0.527344,0.519531 0.878906,0.519531 0.164063,0 0.328125,-0.03516 0.480469,-0.117187 C 48.027344,45.035156 49.144531,44.210938 50,43.332031 L 50,49 c 0,4.347656 -9.640625,9 -24,9 C 11.644531,58 2,53.347656 2,49 l 0,-5.714844 c 3.214844,3.304688 10.078125,5.785157 18.855469,6.507813 0.02734,0.0039 0.05859,0.0039 0.08203,0.0039 0.519531,0 0.953125,-0.398437 1,-0.921875 0.04297,-0.550781 -0.367187,-1.03125 -0.917969,-1.078125 C 10.175781,46.90625 2,43.125 2,39 Z M 41,44 c -0.554687,0 -1,0.445313 -1,1 l 0,2 c 0,0.554688 0.445313,1 1,1 0.554688,0 1,-0.445312 1,-1 l 0,-2 c 0,-0.554687 -0.445312,-1 -1,-1 z m -5,1.097656 c -0.554687,0 -1,0.449219 -1,1 l 0,2 c 0,0.554688 0.445313,1 1,1 0.554688,0 1,-0.445312 1,-1 l 0,-2 c 0,-0.550781 -0.445312,-1 -1,-1 z m -5,0.703125 c -0.554687,0 -1,0.445313 -1,1 l 0,2 c 0,0.554688 0.445313,1 1,1 0.554688,0 1,-0.445312 1,-1 l 0,-2 c 0,-0.554687 -0.445312,-1 -1,-1 z M 26,46 c -0.554687,0 -1,0.445313 -1,1 l 0,2 c 0,0.554688 0.445313,1 1,1 0.554688,0 1,-0.445312 1,-1 l 0,-2 c 0,-0.554687 -0.445312,-1 -1,-1 z" />
  </symbol>
  <symbol id="ecommerce" viewBox="0 0 64 64">
    <path d="m 31.999998,1.7966614 c -9.200661,0 -16.685025,7.4843637 -16.685025,16.6850246 0,4.985956 2.210548,9.455933 5.686596,12.513768 l -3.600968,0 c -1.15144,0 -2.085628,0.934188 -2.085628,2.085629 0,1.151441 0.934188,2.085628 2.085628,2.085628 l 29.198793,0 c 1.151441,0 2.085628,-0.934187 2.085628,-2.085628 0,-1.151441 -0.934187,-2.085629 -2.085628,-2.085629 l -3.600967,0 c 3.476047,-3.057835 5.686595,-7.527812 5.686595,-12.513768 0,-9.2006609 -7.484362,-16.6850246 -16.685024,-16.6850246 z m 0,2.7808375 c 7.696185,0 13.904187,6.2080041 13.904187,13.9041871 0,7.696184 -6.208002,13.904187 -13.904187,13.904187 -7.696185,0 -13.904187,-6.208003 -13.904187,-13.904187 0,-7.696183 6.208002,-13.9041871 13.904187,-13.9041871 z m -1.390419,2.7808375 0,2.9329136 c -0.380192,0.07604 -0.787541,0.173803 -1.216616,0.347606 -1.35783,0.553996 -2.95464,2.036746 -2.95464,4.361352 0,1.60224 0.874443,2.91662 1.93355,3.61183 1.053678,0.69521 2.21055,0.977638 3.253364,1.27093 1.037384,0.293291 1.949846,0.592015 2.460389,0.939619 0.505112,0.342174 0.69521,0.548563 0.69521,1.395849 l 0,0.03802 c 0,0 0.0054,0.385623 -0.271566,0.825561 -0.276998,0.434505 -0.727798,0.961343 -2.509272,0.961343 -1.672848,0 -2.091059,-0.608308 -2.433233,-1.303518 -0.342174,-0.700639 -0.347604,-1.450163 -0.347604,-1.450163 l -2.780838,-0.05431 c 0,0 -0.04888,1.336105 0.630034,2.721093 0.548563,1.118854 1.748885,2.286587 3.541222,2.699368 l 0,2.949209 2.780838,0 0,-2.91119 c 1.705435,-0.320449 2.873169,-1.18946 3.465184,-2.123647 0.738661,-1.167734 0.700641,-2.357195 0.700641,-2.373489 -0.01087,-1.618533 -0.852717,-2.949209 -1.906395,-3.671574 -1.053676,-0.722365 -2.226842,-1.021089 -3.275088,-1.319812 -1.042814,-0.29329 -1.971569,-0.586582 -2.482114,-0.917893 -0.505113,-0.33131 -0.673484,-0.494251 -0.673484,-1.287224 0,-1.238342 0.488819,-1.488183 1.216616,-1.781474 0.716934,-0.287859 1.471888,-0.293292 1.504477,-0.293292 0.02715,0 0.765817,0.06517 1.493613,0.450801 0.74409,0.396486 1.346969,0.863581 1.346969,2.324606 l 2.780838,0 c 0,-2.449527 -1.482753,-4.068061 -2.824289,-4.779564 -0.477958,-0.255273 -0.934187,-0.40735 -1.346968,-0.521408 l 0,-3.0415405 z M 4.1916234,12.920011 c -2.2865866,0 -4.17125615,1.88467 -4.17125615,4.171257 l 0,30.355664 c -0.02715634,0.152077 -0.02715634,0.304155 0,0.4508 l 0,2.563585 c 0,2.286586 1.88466955,4.171257 4.17125615,4.171257 l 19.2160226,0 -0.928758,5.561674 -2.992659,0 c -0.499682,-0.0054 -0.966775,0.255274 -1.222047,0.689779 -0.249842,0.434506 -0.249842,0.966774 0,1.40128 0.255272,0.434507 0.722365,0.695209 1.222047,0.689779 l 25.027537,0 c 0.499682,0.0054 0.966776,-0.255272 1.222048,-0.689779 0.249842,-0.434506 0.249842,-0.966774 0,-1.40128 -0.255272,-0.434505 -0.722366,-0.69521 -1.222048,-0.689779 l -2.992659,0 -0.928755,-5.561674 19.21602,0 c 2.286587,0 4.171257,-1.884671 4.171257,-4.171257 l 0,-2.54729 c 0.02716,-0.152078 0.02716,-0.304154 0,-0.4508 l 0,-30.371959 c 0,-2.286587 -1.88467,-4.171257 -4.171257,-4.171257 l -9.162642,0 c 0.271566,0.901601 0.461664,1.830355 0.602877,2.780838 l 8.559765,0 c 0.787542,0 1.39042,0.602877 1.39042,1.390419 l 0,29.198793 -58.3975873,0 0,-29.198793 c 0,-0.787542 0.6028773,-1.390419 1.3904187,-1.390419 l 8.5597656,0 c 0.141215,-0.950483 0.33131,-1.879237 0.602876,-2.780838 z m -1.3904187,36.150888 58.3975873,0 0,1.390418 c 0,0.787543 -0.602878,1.390419 -1.39042,1.390419 l -55.6167486,0 c -0.7875414,0 -1.3904187,-0.602876 -1.3904187,-1.390419 z m 23.4252963,5.561675 11.546994,0 0.928757,5.561674 -13.404507,0 z" />
  </symbol>
  <symbol id="graph" viewBox="0 0 64 64">
    <path d="M 58.666667,0 C 57.192708,0 56,1.192708 56,2.666667 c 0,0.390625 0.09896,0.75 0.25,1.083333 L 45.583333,18.666667 c -0.08333,-0.0052 -0.166666,0 -0.25,0 -0.531249,0 -1.041666,0.145833 -1.458333,0.416666 L 34.666667,14.5 C 34.578125,13.104167 33.416667,12 32,12 c -1.473959,0 -2.666667,1.192708 -2.666667,2.666667 0,0.140625 0.02083,0.28125 0.04167,0.416666 l -9.75,7.75 c -0.296878,-0.114582 -0.619795,-0.166666 -0.958336,-0.166666 -1.333334,0 -2.427083,0.973958 -2.625,2.25 L 6.958333,28.583333 C 6.505208,28.229167 5.947917,28 5.333333,28 c -1.4739583,0 -2.6666663,1.192708 -2.6666663,2.666667 0,1.473958 1.192708,2.666666 2.6666663,2.666666 1.343751,0 2.442708,-0.994792 2.625,-2.291666 l 9.083334,-3.625 C 17.494792,27.770833 18.052084,28 18.666667,28 c 1.473958,0 2.666666,-1.192708 2.666666,-2.666667 0,-0.140625 -0.02083,-0.281249 -0.04167,-0.416666 l 9.75,-7.75 c 0.296878,0.114584 0.619796,0.166666 0.958337,0.166666 0.531251,0 1.041667,-0.145833 1.458333,-0.416666 L 42.666667,21.5 c 0.08854,1.395833 1.25,2.5 2.666666,2.5 C 46.807292,24 48,22.807292 48,21.333333 48,20.942708 47.901041,20.583333 47.75,20.25 L 58.416667,5.3333333 c 0.08333,0.00521 0.166666,0 0.25,0 1.473958,0 2.666666,-1.192708 2.666666,-2.6666663 C 61.333333,1.192708 60.140625,0 58.666667,0 Z M 53.333333,17.333333 53.333333,64 64,64 64,17.333333 Z M 56,20 l 5.333333,0 0,41.333333 -5.333333,0 z m -29.333333,9.333333 0,34.666667 10.666666,0 0,-34.666667 z M 29.333333,32 l 5.333334,0 0,29.333333 -5.333334,0 z M 40,36 l 0,28 10.666667,0 0,-28 z m 2.666667,2.666667 5.333333,0 0,22.666666 -5.333333,0 z M 13.333333,40 l 0,24 L 24,64 24,40 Z M 16,42.666667 l 5.333333,0 0,18.666666 -5.333333,0 z M 0,45.333333 0,64 l 10.666667,0 0,-18.666667 z M 2.6666667,48 8,48 l 0,13.333333 -5.3333333,0 z" />
  </symbol>
  <symbol id="growth" viewBox="0 0 64 64">
    <rect height="2.0352015" width="58.287083" y="61.964798" x="2" />
    <path d="m 48.783074,13.965733 c -3.84992,0 -6.9824,-3.132803 -6.9824,-6.9827248 0,-3.850563 3.13248,-6.983044981952 6.9824,-6.983044981952 3.85024,0 6.98273,3.132481981952 6.98273,6.982724981952 0,3.8502418 -3.13249,6.9830448 -6.98273,6.9830448 z m 0,-11.9305688 c -2.728,0 -4.9472,2.219522 -4.9472,4.947524 0,2.728322 2.2192,4.9472028 4.9472,4.9472028 2.72832,0 4.94753,-2.2192008 4.94753,-4.9472028 0,-2.728002 -2.21889,-4.947524 -4.94753,-4.947524 z" />
    <rect x="47.765793" y="41.921272" width="2.0352015" height="17.895052" />
    <rect x="41.37442" y="35.104301" width="2.0352015" height="24.712017" />
    <rect x="54.156837" y="35.104301" width="2.0352015" height="24.712017" />
    <path d="m 61.305004,39.529915 -6.13024,0 0,-2.03521 4.09504,0 0,-13.894726 c 0,-1.434561 -0.55936,-2.784642 -1.5744,-3.799682 -1.01472,-1.015041 -2.36416,-1.574081 -3.79904,-1.574081 l -0.62049,0 -4.49248,4.493123 -4.49248,-4.493123 -0.62016,0 c -1.4352,0 -2.78464,0.55936 -3.79968,1.574081 -1.01441,1.01504 -1.57377,2.364801 -1.57377,3.799682 l 0,13.894726 4.09505,0 0,2.03521 -6.13025,0 0,-15.929936 c 0,-1.978561 0.77024,-3.839362 2.1696,-5.238723 1.39969,-1.399681 3.26017,-2.170562 5.23905,-2.170562 l 1.464,0 3.64832,3.649283 3.64896,-3.649283 1.46401,0 c 1.97888,0 3.83936,0.770881 5.2384,2.170562 1.4,1.399361 2.17024,3.260162 2.17024,5.238723 l 0,15.929936 z" />
    <rect height="2.2614415" width="2.0352015" y="24.452461" x="47.765793" />
    <rect height="2.2614415" width="2.0352015" y="28.975342" x="47.765793" />
    <rect height="16.456011" width="2.0352015" y="43.360313" x="32.643227" />
    <path d="M 30.762041,47.699 29.323,46.259959 33.660923,41.921716 37.998846,46.259959 36.559805,47.699 33.660923,44.799798 Z" />
    <path d="m 33.660367,16.19037 0,2.035522 -8.028166,0 0,41.590108 -2.035201,0 0,-43.62563 z" />
    <path d="m 12.403284,48.621432 0,2.035521 -4.862083,0 0,9.159047 -2.035201,0 0,-11.194568 z" />
    <path d="m 21.448604,32.406061 0,2.035202 -4.862403,0 0,25.374737 -2.035201,0 0,-27.409939 z" />
  </symbol>
  <symbol id="handshake" viewBox="0 0 64 64">
    <path d="M 63.798268,32.222067 C 63.69137,31.687579 63.477575,31.153091 63.370677,30.511705 62.943087,28.801343 62.408599,27.090982 61.981008,25.487518 61.767213,24.846132 61.660316,24.204747 61.44652,23.670259 60.912032,21.852999 60.377544,20.463331 59.949954,19.501252 59.629261,18.752969 59.201671,17.897788 58.77408,16.93571 58.453388,16.401222 58.239592,15.866734 57.812002,15.332246 57.170616,14.370167 56.529231,13.301191 55.887845,12.339113 55.67405,12.01842 55.460255,11.697727 55.24646,11.377035 55.139562,11.163239 55.032664,11.056342 55.032664,11.056342 54.391279,10.094263 53.108508,9.8804681 52.039532,10.414956 l -3.527621,2.24485 c -0.962079,0.641385 -1.282771,1.924157 -0.641386,2.993133 0,0.106897 -1.496566,-0.213796 -2.458645,-0.427591 -2.137952,-0.641385 -4.275904,-1.068976 -6.306958,-1.282771 -2.993133,-0.427591 -5.665573,-0.320693 -7.696627,0.213795 l -14.858767,0.962079 c 0.213796,-0.855181 -0.106897,-1.81726 -0.85518,-2.351748 l -3.527621,-2.244849 c -0.962079,-0.6413859 -2.3517475,-0.320693 -2.9931331,0.641385 0,0 -0.1068976,0.213796 -0.2137952,0.320693 -0.2137952,0.320693 -0.4275904,0.534488 -0.6413856,0.962079 -0.6413856,0.962078 -1.2827712,2.031054 -1.9241568,2.993132 -0.3206928,0.534488 -0.6413856,1.068976 -0.9620784,1.603464 -0.534488,0.962079 -0.9620784,1.81726 -1.1758736,2.565543 -0.4275904,0.962078 -0.8551808,2.458645 -1.4965664,4.169006 -0.2137952,0.534488 -0.3206928,1.175874 -0.534488,1.817259 -0.4275904,1.603464 -0.9620784,3.313826 -1.38966883,5.024188 -0.2137952,0.641385 -0.3206928,1.175873 -0.4275904,1.710361 -0.1068976,0.320693 -0.1068976,0.534488 -0.2137952,0.641386 -0.2137952,0.962078 0.1068976,2.137952 0.85518083,2.779337 l 2.137952,1.924157 c 0.9620784,0.855181 2.4586448,0.534488 2.8862352,-0.748283 0.6413856,0.213795 1.1758736,0.42759 1.8172592,0.641386 0.3206928,0.106897 0.6413856,0.213795 0.9620784,0.320692 0.1068976,0 0.6413856,0.213796 0.7482832,0.213796 -0.7482832,1.389668 -0.4275904,3.206928 0.8551807,4.275904 0.748283,0.534488 1.603464,0.748283 2.458645,0.641385 -0.427591,1.282771 0,2.67244 1.068976,3.527621 1.068976,0.855181 2.565542,0.855181 3.634518,0.213795 0.106898,0.855181 0.534488,1.710362 1.175874,2.24485 0.855181,0.641385 2.031054,0.855181 2.993133,0.534488 -0.106898,1.068976 0.320693,2.137952 1.175873,2.779337 1.389669,1.068976 3.420724,0.855181 4.4897,-0.534488 l 0.641385,-0.748283 c 0.213795,0.213795 0.320693,0.320693 0.748283,0.748283 1.282772,1.282772 1.282772,1.282772 1.603464,1.710362 1.389669,1.496566 3.848314,1.496566 5.237983,0.106898 0.748283,-0.748284 1.175873,-1.710362 1.175873,-2.67244 1.389669,1.175873 3.527621,1.175873 4.91729,-0.213796 0.748283,-0.748283 1.175874,-1.710361 1.175874,-2.67244 1.389668,1.175874 3.52762,1.175874 4.917289,-0.213795 0.855181,-0.855181 1.175874,-1.924157 1.068976,-2.993133 1.389669,0.641386 3.100031,0.427591 4.275904,-0.641385 1.175874,-1.068976 1.389669,-2.779338 0.855181,-4.169007 l 3.741416,-2.779337 c 0.42759,1.282771 1.817259,1.603464 2.886235,0.748283 l 2.137952,-1.924157 c 1.175874,-1.068976 1.496567,-2.244849 1.175874,-3.206928 0,-0.106897 -0.106898,-0.320693 -0.213795,-0.641385 z M 44.98429,17.3633 c 1.175874,0.320693 2.351747,0.641386 3.420723,1.068976 0.320693,0.106898 1.389669,0.213795 1.389669,0.213795 0.534488,0.748284 0.962078,1.603464 1.496566,2.351748 0.213796,0.320692 0.427591,0.641385 0.641386,1.068976 0.855181,1.389668 1.496566,2.565542 1.924157,3.52762 0.42759,0.855181 0.962078,2.031055 1.496566,3.527621 0.213795,0.427591 0.320693,0.855181 0.534488,1.389669 0.534488,1.389669 1.068976,2.886235 1.603464,4.382802 L 53.4292,37.887639 c -0.106897,0 -0.106897,-0.106897 -0.213795,-0.106897 -0.641385,-0.534488 -1.389669,-1.175874 -2.137952,-1.817259 -2.244849,-1.924157 -4.489699,-3.741416 -6.627651,-5.558676 -0.320693,-0.213795 -0.641386,-0.534488 -0.855181,-0.748283 -6.306958,-5.024187 -9.727681,-7.589729 -11.010453,-7.482832 -0.962078,0 -2.031054,0.641386 -3.313825,1.710362 -0.427591,0.42759 -0.855181,0.748283 -1.389669,1.282771 -0.641386,0.641386 -1.175874,1.282771 -1.710362,1.924157 -0.213795,0.213795 -0.42759,0.42759 -0.534488,0.641385 -0.106897,0.106898 -0.213795,0.213796 -0.213795,0.213796 -0.320693,0.42759 -1.068976,0.534488 -1.496566,0.106897 l -0.855181,-0.641385 c -0.534488,-0.427591 -0.641386,-1.282772 -0.320693,-1.81726 0.106898,-0.106897 0.106898,-0.320692 0.213795,-0.42759 0.213796,-0.320693 0.427591,-0.748283 0.641386,-1.068976 0.748283,-1.175874 1.603464,-2.351747 2.565542,-3.420723 1.924157,-2.137952 3.955212,-3.741416 6.200061,-4.382802 1.603464,-0.641385 3.955211,-0.641385 6.627651,-0.213795 1.924157,0.213795 3.955212,0.641386 5.986266,1.282771 z m -40.5141905,18.27949 0,0 -1.7103616,-1.496567 C 2.6528403,34.039326 2.5459427,33.611735 2.5459427,33.504838 c 0,-0.106898 0.1068976,-0.320693 0.2137952,-0.641386 0.1068976,-0.534488 0.3206928,-1.068976 0.4275904,-1.603464 0.4275904,-1.710361 0.9620784,-3.420723 1.3896688,-5.024187 0.2137952,-0.641386 0.3206928,-1.175874 0.534488,-1.817259 0.534488,-1.710362 0.9620784,-3.100031 1.3896688,-3.955211 0.3206928,-0.641386 0.6413856,-1.496567 1.1758736,-2.351748 0.3206928,-0.534488 0.534488,-0.962078 0.8551808,-1.496566 0.534488,-0.962078 1.1758736,-1.924157 1.8172587,-2.886235 0.213796,-0.320693 0.427591,-0.641386 0.641386,-0.855181 0.106898,-0.106898 0.213795,-0.320693 0.213795,-0.320693 l 0,0 3.527621,2.24485 c -0.106897,0 -0.106897,0.213795 -0.320693,0.42759 -0.213795,0.320693 -0.534488,0.748283 -0.748283,1.175874 -0.748283,1.175873 -1.603464,2.458645 -2.351747,3.741416 -0.213795,0.320693 -0.427591,0.748283 -0.641386,1.068976 -0.8551805,1.389669 -1.4965661,2.67244 -2.0310541,3.634518 -0.4275904,0.962079 -0.9620784,2.137952 -1.603464,3.741416 -0.2137952,0.427591 -0.3206928,0.855181 -0.534488,1.389669 -0.534488,1.389669 -1.068976,2.993133 -1.603464,4.489699 -0.1068976,0.213795 -0.2137952,0.748283 -0.4275904,1.175874 l 0,0 z m 7.5897295,5.024187 c -0.42759,-0.320693 -0.534488,-1.068976 -0.213795,-1.496566 l 1.282771,-1.710362 c 0.320693,-0.42759 1.068976,-0.534488 1.496567,-0.213795 0.42759,0.320693 0.534488,1.068976 0.213795,1.496566 l -1.282772,1.710362 c -0.42759,0.42759 -1.068976,0.534488 -1.496566,0.213795 l 0,0 z m 3.527621,4.062109 C 15.15986,44.408393 15.052962,43.66011 15.373655,43.232519 l 2.67244,-3.420723 c 0.320693,-0.42759 1.068976,-0.534488 1.496566,-0.213795 0.427591,0.320693 0.534488,1.068976 0.213795,1.496566 l -2.67244,3.420724 c -0.42759,0.534488 -1.068976,0.641385 -1.496566,0.213795 l 0,0 z m 4.810392,2.458645 c -0.42759,-0.320693 -0.534488,-1.068976 -0.213795,-1.496567 l 2.67244,-3.420723 c 0.320693,-0.42759 1.068976,-0.534488 1.496566,-0.213795 0.427591,0.320693 0.534488,1.068976 0.213795,1.496566 l -2.67244,3.420723 c -0.320692,0.534488 -0.962078,0.641386 -1.496566,0.213796 l 0,0 z m 7.055242,1.389668 -1.282772,1.710362 c -0.320692,0.42759 -1.068976,0.534488 -1.496566,0.213795 -0.42759,-0.320693 -0.534488,-1.068976 -0.213795,-1.496566 l 1.282771,-1.710362 c 0.320693,-0.42759 1.068976,-0.534488 1.496566,-0.213795 0.534488,0.42759 0.534488,1.068976 0.213796,1.496566 l 0,0 z m 22.448496,-6.20006 -10.475965,-9.300092 -0.534488,-0.42759 -0.641386,0.320693 c -0.641385,0.320693 -0.748283,0.855181 -0.534488,1.389669 0,0.106897 0.106898,0.213795 0.213795,0.320692 0.106898,0.106898 0.213796,0.213796 0.320693,0.427591 0.106898,0.213795 0.534488,0.641385 0.962079,1.068976 0.42759,0.42759 1.817259,1.817259 3.10003,3.10003 l 0.213795,0.213795 c 0.962079,0.962079 2.031055,2.031055 3.100031,3.100031 0.320692,0.320693 0.748283,0.748283 0.962078,0.962078 0.213795,0.213795 0.320693,0.320693 0.42759,0.427591 0.641386,0.641385 0.534488,1.603464 -0.106897,2.244849 -0.641386,0.641386 -1.603464,0.641386 -2.24485,0 l -9.406989,-8.124217 -0.534488,-0.427591 -0.641385,0.320693 c -0.534488,0.213795 -0.641386,0.748283 -0.641386,1.175874 0,0.106897 0.106898,0.213795 0.106898,0.42759 0.106897,0.106898 0.106897,0.213795 0.320693,0.42759 0.213795,0.213796 0.42759,0.534488 0.748283,0.855181 0.641385,0.641386 1.389669,1.496567 2.458645,2.458645 0.106897,0.106898 0.106897,0.106898 0.213795,0.213795 0.748283,0.748283 1.603464,1.603464 2.458645,2.458645 0.320692,0.320693 0.534488,0.534488 0.85518,0.748283 0.106898,0.106898 0.213796,0.213795 0.320693,0.320693 0.534488,0.641386 0.534488,1.603464 -0.106897,2.24485 -0.641386,0.641385 -1.603464,0.641385 -2.24485,0 l -7.58973,-6.734549 -0.534488,-0.534488 -0.641385,0.320693 c -0.427591,0.213795 -0.641386,0.641385 -0.534488,0.962078 0,0.213795 0,0.320693 0.106897,0.42759 0.106898,0.106898 0.106898,0.213796 0.213796,0.427591 0.106897,0.213795 0.320692,0.42759 0.641385,0.748283 0.427591,0.534488 1.068976,1.175874 1.817259,2.031054 l 0.213796,0.213796 c 0.534488,0.641385 1.175873,1.282771 1.817259,1.924156 0.213795,0.213796 0.42759,0.427591 0.641385,0.641386 0.106898,0.106898 0.213796,0.213795 0.213796,0.213795 0.641385,0.641386 0.534488,1.603464 -0.106898,2.24485 -0.641386,0.641385 -1.603464,0.641385 -2.24485,0 -0.42759,-0.427591 -0.42759,-0.427591 -1.603464,-1.710362 -0.534488,-0.641385 -0.641385,-0.641385 -1.068976,-1.068976 0.427591,-1.282771 0.106898,-2.67244 -1.068976,-3.634518 -0.641385,-0.534488 -1.496566,-0.748283 -2.244849,-0.641386 0.962078,-1.389669 0.641385,-3.313825 -0.641386,-4.275904 -1.068976,-0.855181 -2.565542,-0.855181 -3.634518,-0.213795 -0.106898,-0.855181 -0.534488,-1.710362 -1.175874,-2.24485 -1.068976,-0.85518 -2.565542,-0.85518 -3.634518,-0.213795 -0.106898,-0.855181 -0.427591,-1.710361 -1.175874,-2.244849 -1.389669,-1.068976 -3.420723,-0.855181 -4.489699,0.534488 l -0.106898,0.213795 c -0.213795,-0.106898 -0.534488,-0.213795 -0.855181,-0.320693 -0.106897,0 -0.641385,-0.213795 -0.748283,-0.213795 C 9.8149795,36.07038 9.6011843,35.963483 9.2804915,35.963483 8.7460035,35.749687 8.1046179,35.535892 7.4632323,35.215199 c 0.534488,-1.496566 1.068976,-2.993132 1.4965664,-4.382801 0.2137952,-0.427591 0.3206928,-0.962079 0.534488,-1.389669 0.5344883,-1.496566 1.0689763,-2.67244 1.4965663,-3.527621 0.42759,-0.962078 1.068976,-2.137952 1.924157,-3.527621 0.213795,-0.320692 0.42759,-0.641385 0.641385,-1.068976 0.748284,-1.175873 1.496567,-2.458644 2.24485,-3.634518 l 11.865634,-0.855181 c -0.962079,0.748283 -1.924157,1.603464 -2.779338,2.67244 -1.068976,1.175874 -1.924157,2.351747 -2.779337,3.634519 -0.320693,0.42759 -0.534488,0.85518 -0.748284,1.175873 -0.106897,0.213795 -0.213795,0.427591 -0.213795,0.427591 -0.855181,1.389668 -0.42759,3.420723 0.855181,4.489699 l 0.855181,0.641385 c 1.389669,1.068976 3.420723,0.962079 4.489699,-0.42759 0.106898,-0.213795 0.42759,-0.42759 0.748283,-0.855181 0.534488,-0.641385 1.068976,-1.282771 1.710362,-1.817259 l 1.175873,-1.175874 c 0.855181,-0.748283 1.603464,-1.175873 1.924157,-1.175873 0.427591,0 4.489699,2.886235 9.620784,7.055241 0.320693,0.213796 0.641386,0.427591 0.855181,0.748284 2.137952,1.710361 4.382802,3.634518 6.627651,5.451777 0.748283,0.641386 2.351747,2.67244 2.351747,2.67244 0.427591,0.427591 0.427591,1.389669 -0.213795,2.031055 -0.641385,0.641385 -1.603464,0.641385 -2.244849,0 z m 11.865633,-8.231116 -1.710361,1.603464 C 59.949954,35.322097 59.736159,34.787609 59.522364,34.253121 58.987876,32.756555 58.453388,31.153091 57.9189,29.763422 57.705104,29.335831 57.598207,28.801343 57.384412,28.373753 56.743026,26.770289 56.208538,25.594415 55.780948,24.632337 55.24646,23.563361 54.605074,22.387487 53.749893,20.997819 53.536098,20.677126 53.322303,20.356433 53.108508,19.928843 52.360224,18.752969 51.611941,17.470198 50.75676,16.187427 50.436068,15.759836 50.222272,15.332246 50.008477,15.011553 49.90158,14.797758 49.794682,14.69086 49.687784,14.583963 l 3.527621,-2.24485 c 0,0.106898 0.106898,0.213795 0.213795,0.320693 0.213796,0.213795 0.427591,0.534488 0.641386,0.85518 0.641386,0.962079 1.282771,1.924157 1.817259,2.886236 0.320693,0.534488 0.641386,1.068976 0.855181,1.496566 0.42759,0.855181 0.855181,1.603464 1.175874,2.351747 0.42759,0.962079 0.85518,2.24485 1.389668,3.955212 0.213796,0.534488 0.320693,1.175873 0.534488,1.817259 0.427591,1.603464 0.962079,3.313825 1.389669,5.024187 0.213795,0.641386 0.320693,1.175874 0.427591,1.603464 0.106897,0.320693 0.106897,0.534488 0.213795,0.641386 0.213795,0.320692 0.106897,0.641385 -0.106898,0.85518 l 0,0 z" />
  </symbol>
  <symbol id="hotel" viewBox="0 0 64 64">
    <path d="M 15.092391,0 13.524456,3.244565 9.956522,3.671196 12.668479,6.067935 11.953805,9.7391304 15.092391,7.904891 18.233696,9.7391304 17.519022,6.067935 20.230979,3.671196 16.663043,3.244565 15.092391,0 Z m 3.141305,9.7391304 -6.279891,0 -1.578805,0 C 6.3015702,9.7391304 3,13.040701 3,17.11413 L 3,62.608696 A 1.3914435,1.3914435 0 0 0 4.3913043,64 l 55.6521737,0 a 1.3914435,1.3914435 0 0 0 1.391305,-1.391304 l 0,-45.494566 c 0,-4.073429 -3.30157,-7.3749996 -7.375,-7.3749996 l -1.578805,0 -6.279891,0 -5.13587,0 -6.279891,0 -5.135869,0 -6.279892,0 -5.135869,0 z m 5.135869,0 L 26.508152,7.904891 29.649457,9.7391304 28.934783,6.067935 31.646739,3.671196 28.078805,3.244565 26.508152,0 24.940217,3.244565 21.372282,3.671196 24.084239,6.067935 23.369565,9.7391304 Z m 11.415761,0 L 37.926631,7.904891 41.065217,9.7391304 40.350543,6.067935 43.0625,3.671196 39.494566,3.244565 37.926631,0 36.355978,3.244565 32.788043,3.671196 35.5,6.067935 34.785326,9.7391304 Z m 11.415761,0 L 49.342392,7.904891 52.480978,9.7391304 51.766304,6.067935 54.478261,3.671196 50.910326,3.244565 49.342392,0 47.77174,3.244565 44.203804,3.671196 46.915761,6.067935 46.201087,9.7391304 Z M 10.375,12.521739 l 43.684783,0 c 2.604831,0 4.592391,1.98756 4.592391,4.592391 l 0,44.103261 -20.869565,0 0,-11.130434 a 1.3914435,1.3914435 0 0 0 -1.391305,-1.391305 l -8.347826,0 a 1.3914435,1.3914435 0 0 0 -1.391304,1.391305 l 0,11.130434 -20.8695653,0 0,-44.103261 c 0,-2.60483 1.9875606,-4.592391 4.5923913,-4.592391 z m 0.972826,2.782609 a 1.3914435,1.3914435 0 0 0 -1.391304,1.391304 l 0,5.565218 a 1.3914435,1.3914435 0 0 0 1.391304,1.391304 l 8.347826,0 a 1.3914435,1.3914435 0 0 0 1.391305,-1.391304 l 0,-5.565218 a 1.3914435,1.3914435 0 0 0 -1.391305,-1.391304 l -8.347826,0 z m 16.695652,0 a 1.3914435,1.3914435 0 0 0 -1.391304,1.391304 l 0,5.565218 a 1.3914435,1.3914435 0 0 0 1.391304,1.391304 l 8.347826,0 a 1.3914435,1.3914435 0 0 0 1.391305,-1.391304 l 0,-5.565218 a 1.3914435,1.3914435 0 0 0 -1.391305,-1.391304 l -8.347826,0 z m 16.695652,0 a 1.3914435,1.3914435 0 0 0 -1.391304,1.391304 l 0,5.565218 a 1.3914435,1.3914435 0 0 0 1.391304,1.391304 l 8.347827,0 a 1.3914435,1.3914435 0 0 0 1.391304,-1.391304 l 0,-5.565218 a 1.3914435,1.3914435 0 0 0 -1.391304,-1.391304 l -8.347827,0 z m -32,2.782609 5.565218,0 0,2.782608 -5.565218,0 0,-2.782608 z m 16.695653,0 5.565217,0 0,2.782608 -5.565217,0 0,-2.782608 z m 16.695652,0 5.565217,0 0,2.782608 -5.565217,0 0,-2.782608 z m -34.782609,8.347826 a 1.3914435,1.3914435 0 0 0 -1.391304,1.391304 l 0,5.565217 a 1.3914435,1.3914435 0 0 0 1.391304,1.391305 l 8.347826,0 a 1.3914435,1.3914435 0 0 0 1.391305,-1.391305 l 0,-5.565217 a 1.3914435,1.3914435 0 0 0 -1.391305,-1.391304 l -8.347826,0 z m 16.695652,0 a 1.3914435,1.3914435 0 0 0 -1.391304,1.391304 l 0,5.565217 a 1.3914435,1.3914435 0 0 0 1.391304,1.391305 l 8.347826,0 a 1.3914435,1.3914435 0 0 0 1.391305,-1.391305 l 0,-5.565217 a 1.3914435,1.3914435 0 0 0 -1.391305,-1.391304 l -8.347826,0 z m 16.695652,0 a 1.3914435,1.3914435 0 0 0 -1.391304,1.391304 l 0,5.565217 a 1.3914435,1.3914435 0 0 0 1.391304,1.391305 l 8.347827,0 a 1.3914435,1.3914435 0 0 0 1.391304,-1.391305 l 0,-5.565217 a 1.3914435,1.3914435 0 0 0 -1.391304,-1.391304 l -8.347827,0 z m -32,2.782608 5.565218,0 0,2.782609 -5.565218,0 0,-2.782609 z m 16.695653,0 5.565217,0 L 35,32 l -5.565217,0 0,-2.782609 z m 16.695652,0 5.565217,0 0,2.782609 -5.565217,0 0,-2.782609 z m -34.782609,8.347826 a 1.3914435,1.3914435 0 0 0 -1.391304,1.391305 l 0,5.565217 a 1.3914435,1.3914435 0 0 0 1.391304,1.391304 l 8.347826,0 a 1.3914435,1.3914435 0 0 0 1.391305,-1.391304 l 0,-5.565217 a 1.3914435,1.3914435 0 0 0 -1.391305,-1.391305 l -8.347826,0 z m 16.695652,0 a 1.3914435,1.3914435 0 0 0 -1.391304,1.391305 l 0,5.565217 a 1.3914435,1.3914435 0 0 0 1.391304,1.391304 l 8.347826,0 a 1.3914435,1.3914435 0 0 0 1.391305,-1.391304 l 0,-5.565217 a 1.3914435,1.3914435 0 0 0 -1.391305,-1.391305 l -8.347826,0 z m 16.695652,0 a 1.3914435,1.3914435 0 0 0 -1.391304,1.391305 l 0,5.565217 a 1.3914435,1.3914435 0 0 0 1.391304,1.391304 l 8.347827,0 a 1.3914435,1.3914435 0 0 0 1.391304,-1.391304 l 0,-5.565217 a 1.3914435,1.3914435 0 0 0 -1.391304,-1.391305 l -8.347827,0 z m -32,2.782609 5.565218,0 0,2.782609 -5.565218,0 0,-2.782609 z m 16.695653,0 5.565217,0 0,2.782609 -5.565217,0 0,-2.782609 z m 16.695652,0 5.565217,0 0,2.782609 -5.565217,0 0,-2.782609 z m -34.782609,8.347826 a 1.3914435,1.3914435 0 0 0 -1.391304,1.391305 l 0,5.565217 a 1.3914435,1.3914435 0 0 0 1.391304,1.391304 l 8.347826,0 a 1.3914435,1.3914435 0 0 0 1.391305,-1.391304 l 0,-5.565217 a 1.3914435,1.3914435 0 0 0 -1.391305,-1.391305 l -8.347826,0 z m 33.391304,0 a 1.3914435,1.3914435 0 0 0 -1.391304,1.391305 l 0,5.565217 a 1.3914435,1.3914435 0 0 0 1.391304,1.391304 l 8.347827,0 a 1.3914435,1.3914435 0 0 0 1.391304,-1.391304 l 0,-5.565217 a 1.3914435,1.3914435 0 0 0 -1.391304,-1.391305 l -8.347827,0 z m -32,2.782609 5.565218,0 0,2.782609 -5.565218,0 0,-2.782609 z m 16.695653,0 5.565217,0 0,9.73913 -5.565217,0 0,-9.73913 z m 16.695652,0 5.565217,0 0,2.782609 -5.565217,0 0,-2.782609 z" />
  </symbol>
  <symbol id="intermediate" viewBox="0 0 64 64">
    <path d="M 18 4 C 14.691406 4 12 6.691406 12 10 C 12 13.308594 14.691406 16 18 16 C 21.308594 16 24 13.308594 24 10 C 24 6.691406 21.308594 4 18 4 Z M 48 4 C 44.691406 4 42 6.691406 42 10 C 42 13.308594 44.691406 16 48 16 C 51.308594 16 54 13.308594 54 10 C 54 6.691406 51.308594 4 48 4 Z M 18 5.757813 C 20.339844 5.757813 22.238281 7.660156 22.238281 10 C 22.238281 12.339844 20.339844 14.238281 18 14.238281 C 15.660156 14.238281 13.761719 12.339844 13.761719 10 C 13.761719 7.660156 15.660156 5.757813 18 5.757813 Z M 48 5.757813 C 50.339844 5.757813 52.238281 7.660156 52.238281 10 C 52.238281 12.339844 50.339844 14.238281 48 14.238281 C 45.660156 14.238281 43.761719 12.339844 43.761719 10 C 43.761719 7.660156 45.660156 5.757813 48 5.757813 Z M 28 8 C 27.449219 8 27 8.449219 27 9 L 27 11 C 27 11.550781 27.449219 12 28 12 C 28.550781 12 29 11.550781 29 11 L 29 9 C 29 8.449219 28.550781 8 28 8 Z M 33 8 C 32.449219 8 32 8.449219 32 9 L 32 11 C 32 11.550781 32.449219 12 33 12 C 33.550781 12 34 11.550781 34 11 L 34 9 C 34 8.449219 33.550781 8 33 8 Z M 38 8 C 37.449219 8 37 8.449219 37 9 L 37 11 C 37 11.550781 37.449219 12 38 12 C 38.550781 12 39 11.550781 39 11 L 39 9 C 39 8.449219 38.550781 8 38 8 Z M 48.105469 16.40625 C 43.21875 16.363281 38.71875 19.609375 36.996094 24.355469 L 36.730469 25.09375 C 36.433594 25.90625 35.882813 26.601563 35.160156 27.078125 L 33.515625 28.15625 L 30.640625 26.742188 C 29.960938 26.40625 29.390625 25.886719 28.996094 25.242188 L 27.40625 22.652344 C 24.679688 18.199219 19.476563 15.675781 14.363281 16.746094 C 14.066406 16.808594 13.769531 16.882813 13.472656 16.96875 L 13.082031 17.078125 C 10.691406 17.761719 8.601563 19.238281 7.15625 21.261719 L 5.367188 23.761719 C 4.4375 25.0625 4.1875 26.730469 4.695313 28.25 L 6.367188 33.265625 C 6.894531 34.851563 8.34375 35.921875 10.003906 35.988281 L 10.003906 36.902344 L 8.144531 55.816406 C 8.09375 56.921875 8.484375 57.964844 9.25 58.765625 C 10.011719 59.5625 11.039063 60 12.144531 60 C 13.984375 60 15.542969 58.757813 16.003906 57.089844 C 16.480469 58.777344 18.027344 60 19.859375 60 C 20.960938 60 21.988281 59.5625 22.75 58.765625 C 23.515625 57.964844 23.90625 56.921875 23.859375 55.871094 L 24 37 L 24 30.957031 C 25.246094 32.292969 26.789063 33.316406 28.535156 33.898438 L 31.410156 34.859375 C 32.046875 35.070313 32.707031 35.074219 33.332031 34.921875 C 34.320313 35.335938 35.472656 35.308594 36.464844 34.746094 L 38.347656 33.667969 C 39.34375 33.097656 40.234375 32.382813 41 31.546875 L 41 36.953125 L 40.152344 55.683594 C 40.105469 56.644531 40.347656 57.617188 40.925781 58.386719 C 41.707031 59.421875 42.871094 60 44.144531 60 C 45.976563 60 47.527344 58.769531 48 57.074219 C 48.472656 58.769531 50.023438 60 51.859375 60 C 53.128906 60 54.292969 59.417969 55.074219 58.382813 C 55.652344 57.613281 55.894531 56.644531 55.847656 55.683594 L 55.125 39.71875 C 55.707031 39.96875 56.375 40.066406 57.066406 39.953125 C 58.785156 39.683594 60 38.105469 60 36.363281 L 60 27.535156 C 60 25.105469 59.257813 22.695313 57.726563 20.808594 C 56.296875 19.046875 54.390625 17.785156 52.207031 17.160156 L 51.089844 16.84375 C 50.800781 16.757813 50.507813 16.6875 50.214844 16.628906 C 49.507813 16.484375 48.800781 16.410156 48.105469 16.40625 Z M 47.984375 18.402344 C 48.558594 18.402344 49.140625 18.453125 49.71875 18.566406 C 49.996094 18.621094 50.265625 18.6875 50.535156 18.765625 L 51.65625 19.085938 C 53.46875 19.605469 55.046875 20.65625 56.21875 22.128906 C 57.421875 23.636719 58 25.550781 58 27.484375 L 58 36.5 C 58 37.328125 57.328125 38 56.5 38 C 55.671875 38 55 37.328125 55 36.5 L 55 25.667969 C 55 25.117188 54.550781 24.667969 54 24.667969 C 53.449219 24.667969 53 25.117188 53 25.667969 L 53 36.5 C 53 36.527344 53 36.554688 53 36.582031 L 53.859375 55.90625 C 53.882813 56.460938 53.6875 56.984375 53.308594 57.382813 C 52.886719 57.820313 52.308594 58.042969 51.683594 57.992188 C 50.667969 57.914063 49.902344 57.011719 49.851563 55.996094 L 49 38.949219 C 48.972656 38.417969 48.53125 38 48 38 C 47.46875 38 47.027344 38.417969 47 38.949219 L 46.152344 55.964844 C 46.097656 56.980469 45.351563 57.894531 44.335938 57.988281 C 43.710938 58.050781 43.117188 57.828125 42.691406 57.382813 C 42.308594 56.984375 42.117188 56.460938 42.140625 55.90625 L 43 37 L 43 25.625 C 43 25.074219 42.550781 24.625 42 24.625 C 41.449219 24.625 41 25.074219 41 25.625 L 41 28.128906 C 40.949219 28.179688 40.90625 28.234375 40.867188 28.296875 C 39.960938 29.703125 38.9375 31.027344 37.484375 31.859375 L 35.722656 32.863281 C 35.890625 32.453125 36 32.011719 36 31.546875 C 36 30.75 35.730469 30.003906 35.261719 29.402344 L 36.257813 28.75 C 37.34375 28.035156 38.164063 26.996094 38.609375 25.777344 L 38.890625 25 C 40.304688 21.101563 43.976563 18.40625 47.984375 18.402344 Z M 16.476563 18.5 C 20.175781 18.394531 23.710938 20.441406 25.6875 23.671875 L 27.289063 26.285156 C 27.882813 27.253906 28.738281 28.035156 29.757813 28.535156 L 33.171875 30.214844 C 33.683594 30.464844 34 30.976563 34 31.546875 C 34 32.03125 33.777344 32.472656 33.382813 32.753906 C 32.988281 33.039063 32.5 33.113281 32.042969 32.960938 L 29.167969 32 C 27.492188 31.445313 26.019531 30.40625 24.933594 29.015625 L 21.785156 25.007813 C 21.445313 24.574219 20.816406 24.496094 20.382813 24.839844 C 19.949219 25.179688 19.871094 25.808594 20.214844 26.242188 L 22.015625 28.542969 C 22.015625 28.570313 22 28.597656 22 28.625 L 22 36.992188 L 21.859375 55.910156 C 21.882813 56.460938 21.6875 56.984375 21.308594 57.382813 C 20.925781 57.78125 20.410156 58 19.855469 58 C 18.789063 58 17.910156 57.167969 17.859375 56.15625 L 18 39.007813 C 18.003906 38.476563 17.589844 38.03125 17.058594 38 C 16.515625 37.976563 16.0625 38.363281 16.003906 38.890625 L 14.144531 56.097656 C 14.089844 57.164063 13.214844 58 12.140625 58 C 11.589844 58 11.074219 57.78125 10.691406 57.382813 C 10.3125 56.984375 10.117188 56.460938 10.140625 55.964844 L 12 37 L 12 25.667969 C 12 25.117188 11.550781 24.667969 11 24.667969 C 10.449219 24.667969 10 25.117188 10 25.667969 L 10.003906 33.972656 C 9.210938 33.910156 8.519531 33.398438 8.265625 32.632813 L 6.59375 27.613281 C 6.289063 26.707031 6.441406 25.703125 7 24.921875 L 8.78125 22.421875 C 9.964844 20.769531 11.675781 19.5625 13.632813 19 L 14.019531 18.890625 C 14.308594 18.808594 14.59375 18.738281 14.886719 18.683594 C 15.414063 18.574219 15.949219 18.515625 16.476563 18.5 Z" />
  </symbol>
  <symbol id="investment" viewBox="0 0 64 64">
    <path d="M 32,0.79545503 0,20.795455 l 0,9.075758 1.4848485,-0.928031 1.4242424,-0.89394 0,35.950758 58.1818181,0 0,-35.946969 L 64,29.871213 64,20.795455 Z m 0,2.28787877 30.060606,18.7878792 0,4.503787 L 32,7.5833338 1.9393939,26.375 l 0,-4.503787 z m 0,6.7878788 27.151515,16.9696974 0,30.371211 c -0.534091,0 -0.969697,0.435607 -0.969697,0.969697 0,0.534091 0.435606,0.969697 0.969697,0.969697 l 0,2.909091 -54.3030302,0 0,-2.909091 c 0.5340907,0 0.969697,-0.435606 0.969697,-0.969697 0,-0.53409 -0.4356063,-0.969697 -0.969697,-0.969697 l 0,-30.375 z m -0.984848,14.0795454 0,2.056818 c -4.022727,0.371212 -6.46591,2.651515 -6.46591,6.094697 0,2.905303 1.818182,4.901515 5.140152,5.749999 l 1.325758,0.344698 0,6.791666 C 28.795455,44.738637 27.363636,43.5 27.215909,41.727273 l -3.155303,0 c 0.01137,3.458333 2.693182,5.795455 6.954546,6.079545 l 0,1.935606 2.041666,0 0,-1.954545 c 4.367424,-0.371212 6.882576,-2.651515 6.882576,-6.303031 0,-3.083332 -1.757576,-4.973484 -5.496212,-5.882575 l -1.386364,-0.314394 0,-6.420455 c 1.96591,0.238637 3.306818,1.51894 3.367424,3.159091 l 3.113637,0 c -0.09091,-3.321969 -2.621212,-5.674243 -6.481061,-6.018939 l 0,-2.056818 z m 0,4.901514 0,6.007577 c -2.143939,-0.431819 -3.276515,-1.492425 -3.276515,-3.026516 0,-1.624999 1.371211,-2.875 3.276515,-2.981061 z m 2.045454,9.731062 c 2.530303,0.507575 3.708334,1.53409 3.708334,3.249999 0,1.890152 -1.356061,3.053031 -3.708334,3.185606 z M 8.7272727,57.212121 c -0.5340906,0 -0.9696969,0.435607 -0.9696969,0.969697 0,0.534091 0.4356063,0.969697 0.9696969,0.969697 0.5340907,0 0.969697,-0.435606 0.969697,-0.969697 0,-0.53409 -0.4356063,-0.969697 -0.969697,-0.969697 z m 3.8787883,0 c -0.534091,0 -0.969697,0.435607 -0.969697,0.969697 0,0.534091 0.435606,0.969697 0.969697,0.969697 0.53409,0 0.969697,-0.435606 0.969697,-0.969697 0,-0.53409 -0.435607,-0.969697 -0.969697,-0.969697 z m 3.878787,0 c -0.53409,0 -0.969696,0.435607 -0.969696,0.969697 0,0.534091 0.435606,0.969697 0.969696,0.969697 0.534091,0 0.969697,-0.435606 0.969697,-0.969697 0,-0.53409 -0.435606,-0.969697 -0.969697,-0.969697 z m 3.878788,0 c -0.53409,0 -0.969697,0.435607 -0.969697,0.969697 0,0.534091 0.435607,0.969697 0.969697,0.969697 0.534091,0 0.969697,-0.435606 0.969697,-0.969697 0,-0.53409 -0.435606,-0.969697 -0.969697,-0.969697 z m 3.878788,0 c -0.53409,0 -0.969697,0.435607 -0.969697,0.969697 0,0.534091 0.435607,0.969697 0.969697,0.969697 0.534091,0 0.969697,-0.435606 0.969697,-0.969697 0,-0.53409 -0.435606,-0.969697 -0.969697,-0.969697 z m 3.878788,0 c -0.534091,0 -0.969697,0.435607 -0.969697,0.969697 0,0.534091 0.435606,0.969697 0.969697,0.969697 0.534091,0 0.969697,-0.435606 0.969697,-0.969697 0,-0.53409 -0.435606,-0.969697 -0.969697,-0.969697 z m 3.878788,0 c -0.534091,0 -0.969697,0.435607 -0.969697,0.969697 0,0.534091 0.435606,0.969697 0.969697,0.969697 0.534091,0 0.969697,-0.435606 0.969697,-0.969697 0,-0.53409 -0.435606,-0.969697 -0.969697,-0.969697 z m 3.878788,0 c -0.534091,0 -0.969697,0.435607 -0.969697,0.969697 0,0.534091 0.435606,0.969697 0.969697,0.969697 0.534091,0 0.969697,-0.435606 0.969697,-0.969697 0,-0.53409 -0.435606,-0.969697 -0.969697,-0.969697 z m 3.878788,0 c -0.534091,0 -0.969697,0.435607 -0.969697,0.969697 0,0.534091 0.435606,0.969697 0.969697,0.969697 0.53409,0 0.969697,-0.435606 0.969697,-0.969697 0,-0.53409 -0.435607,-0.969697 -0.969697,-0.969697 z m 3.878788,0 c -0.534091,0 -0.969697,0.435607 -0.969697,0.969697 0,0.534091 0.435606,0.969697 0.969697,0.969697 0.53409,0 0.969697,-0.435606 0.969697,-0.969697 0,-0.53409 -0.435607,-0.969697 -0.969697,-0.969697 z m 3.878788,0 c -0.534091,0 -0.969697,0.435607 -0.969697,0.969697 0,0.534091 0.435606,0.969697 0.969697,0.969697 0.53409,0 0.969696,-0.435606 0.969696,-0.969697 0,-0.53409 -0.435606,-0.969697 -0.969696,-0.969697 z m 3.878787,0 c -0.53409,0 -0.969697,0.435607 -0.969697,0.969697 0,0.534091 0.435607,0.969697 0.969697,0.969697 0.534091,0 0.969697,-0.435606 0.969697,-0.969697 0,-0.53409 -0.435606,-0.969697 -0.969697,-0.969697 z m 3.878788,0 c -0.53409,0 -0.969697,0.435607 -0.969697,0.969697 0,0.534091 0.435607,0.969697 0.969697,0.969697 0.534091,0 0.969697,-0.435606 0.969697,-0.969697 0,-0.53409 -0.435606,-0.969697 -0.969697,-0.969697 z" />
  </symbol>
  <symbol id="location" viewBox="0 0 64 64">
    <path d="M 31.953125 2.28125 C 23.101563 2.28125 15.90625 9.480469 15.90625 18.328125 C 15.90625 24.074219 19.339844 29.222656 22.980469 34.675781 C 24.199219 36.5 25.425781 38.347656 26.550781 40.246094 C 14.679688 41.28125 6 45.625 6 51 C 6 57.167969 17.421875 62 32 62 C 46.578125 62 58 57.167969 58 51 C 58 45.613281 49.277344 41.257813 37.355469 40.238281 C 38.476563 38.34375 39.707031 36.5 40.921875 34.679688 C 44.5625 29.226563 48 24.074219 48 18.328125 C 48 9.480469 40.800781 2.28125 31.953125 2.28125 Z M 31.953125 4.28125 C 39.695313 4.28125 46 10.582031 46 18.328125 C 46 23.46875 42.726563 28.375 39.257813 33.566406 C 36.425781 37.8125 33.515625 42.164063 31.949219 47.113281 C 30.382813 42.164063 27.476563 37.808594 24.644531 33.5625 C 21.179688 28.371094 17.90625 23.46875 17.90625 18.328125 C 17.90625 10.585938 24.207031 4.28125 31.953125 4.28125 Z M 30.621094 10.089844 C 29.886719 10.214844 29.171875 10.445313 28.496094 10.769531 C 24.523438 12.691406 22.855469 17.480469 24.773438 21.453125 C 26.152344 24.308594 29.015625 25.972656 31.988281 25.972656 C 33.15625 25.972656 34.339844 25.71875 35.457031 25.175781 C 38.773438 23.574219 40.566406 19.9375 39.808594 16.335938 C 39.695313 15.796875 39.167969 15.449219 38.625 15.5625 C 38.085938 15.675781 37.738281 16.207031 37.851563 16.746094 C 38.417969 19.445313 37.078125 22.175781 34.589844 23.375 C 31.609375 24.816406 28.011719 23.566406 26.574219 20.585938 C 25.136719 17.605469 26.386719 14.011719 29.367188 12.574219 C 29.875 12.328125 30.410156 12.152344 30.960938 12.058594 C 31.503906 11.964844 31.871094 11.449219 31.777344 10.90625 C 31.683594 10.359375 31.167969 9.992188 30.621094 10.089844 Z M 34.582031 10.484375 C 34.195313 10.492188 33.828125 10.726563 33.671875 11.109375 C 33.46875 11.621094 33.714844 12.207031 34.226563 12.410156 C 34.957031 12.707031 35.609375 13.132813 36.171875 13.679688 C 36.363281 13.867188 36.613281 13.964844 36.867188 13.964844 C 37.128906 13.964844 37.386719 13.859375 37.582031 13.660156 C 37.96875 13.265625 37.960938 12.632813 37.5625 12.246094 C 36.816406 11.515625 35.945313 10.949219 34.972656 10.558594 C 34.847656 10.507813 34.714844 10.480469 34.582031 10.484375 Z M 32 16 C 30.894531 16 30 16.894531 30 18 C 30 19.105469 30.894531 20 32 20 C 33.105469 20 34 19.105469 34 18 C 34 16.894531 33.105469 16 32 16 Z M 36.265625 42.160156 C 48.222656 42.976563 56 47.101563 56 51 C 56 55.347656 46.355469 60 32 60 C 17.644531 60 8 55.347656 8 51 C 8 47.113281 15.738281 43 27.636719 42.171875 C 29.257813 45.199219 30.523438 48.378906 30.957031 51.84375 C 31.019531 52.34375 31.445313 52.71875 31.949219 52.71875 C 32.453125 52.71875 32.878906 52.34375 32.941406 51.84375 C 33.378906 48.378906 34.640625 45.191406 36.265625 42.160156 Z M 20.03125 54.707031 C 19.644531 54.769531 19.316406 55.054688 19.214844 55.453125 C 19.078125 55.992188 19.40625 56.535156 19.941406 56.667969 C 23.410156 57.539063 27.578125 58 32 58 C 33.371094 58 34.742188 57.953125 36.074219 57.863281 C 36.625 57.828125 37.039063 57.351563 37 56.796875 C 36.964844 56.25 36.5 55.832031 35.9375 55.871094 C 34.652344 55.957031 33.328125 56 32 56 C 27.800781 56 23.691406 55.546875 20.425781 54.730469 C 20.292969 54.695313 20.160156 54.6875 20.03125 54.707031 Z M 43.96875 54.710938 C 43.84375 54.691406 43.707031 54.695313 43.574219 54.730469 C 42.601563 54.972656 41.554688 55.183594 40.453125 55.359375 C 39.90625 55.449219 39.535156 55.960938 39.625 56.507813 C 39.703125 57 40.128906 57.347656 40.609375 57.347656 C 40.664063 57.347656 40.71875 57.34375 40.769531 57.335938 C 41.925781 57.148438 43.035156 56.925781 44.0625 56.667969 C 44.597656 56.535156 44.921875 55.992188 44.785156 55.453125 C 44.6875 55.054688 44.355469 54.769531 43.96875 54.710938 Z" />
  </symbol>
  <symbol id="realstate" viewBox="0 0 64 64">
    <path d="m 12.079255,0 0,36.821676 -4.52972,0 0,-7.549535 -3.0198143,0 0,7.549535 L 0,36.821676 0,64 l 63.41609,0 0,-46.807114 -16.608976,0 0,-5.614967 -4.52972,-1.509906 0,-9.484103 -3.019814,0 0,8.4696338 -3.019814,-1.0026718 0,-7.466962 -3.019814,0 0,6.464289 z m 3.019814,4.193531 28.688231,9.55488 0,47.231775 -7.549534,0 0,-4.747949 c 2.589255,-0.678279 4.529721,-3.025711 4.529721,-5.821399 0,-3.320616 -2.719012,-6.039628 -6.039628,-6.039628 -3.320616,0 -6.039628,2.719012 -6.039628,6.039628 0,2.795688 1.940466,5.14312 4.529721,5.821399 l 0,4.747949 -7.549534,0 0,-24.15851 -10.569349,0 z m 3.019814,8.469634 0,3.019814 9.059441,0 0,-3.019814 z m 0,6.039628 0,3.019813 22.648604,0 0,-3.019813 z m 33.217952,4.52972 6.039628,0 0,4.529721 -6.039628,0 z m -33.217952,1.509907 0,3.019814 12.079255,0 0,-3.019814 z m 15.116764,0 -0.03539,3.019814 7.549535,0.07078 0.03539,-3.019814 z m -15.116764,6.039628 0,3.019814 22.648604,0 0,-3.019814 z m 33.217952,0 6.039628,0 0,4.529721 -6.039628,0 z m -22.648604,6.039628 0,3.019813 12.079256,0 0,-3.019813 z m 22.648604,1.509906 6.039628,0 0,4.529721 -6.039628,0 z m -45.297207,4.529721 4.52972,0 0,3.019814 -4.52972,0 z m 9.059441,0 4.529721,0 0,3.019814 -4.529721,0 z m 36.237766,3.019814 6.039628,0 0,4.529721 -6.039628,0 z m -45.297207,3.019814 4.52972,0 0,3.019814 -4.52972,0 z m 9.059441,0 4.529721,0 0,3.019814 -4.529721,0 z m 36.237766,4.529721 6.039628,0 0,4.52972 -6.039628,0 z m -45.297207,1.509907 4.52972,0 0,3.019813 -4.52972,0 z m 9.059441,0 4.529721,0 0,3.019813 -4.529721,0 z" />
  </symbol>
  <symbol id="training" viewBox="0 0 64 64">
    <path d="m 13.91623,0.004076 c -3.825844,0 -6.9560788,3.130235 -6.9560788,6.9560783 0,3.8258437 3.1302348,6.9560787 6.9560788,6.9560787 3.825843,0 6.956078,-3.130235 6.956078,-6.9560787 0,-3.8258433 -3.130235,-6.9560783 -6.956078,-6.9560783 z m 23.650667,0 0,2.782431 -13.912157,0 0,2.782432 37.562825,0 0,36.171609 -36.171609,0 0,2.782432 11.825333,0 -7.651686,15.303373 2.782431,0 6.956079,-13.912158 6.956079,13.912158 2.782431,0 -7.651686,-15.303373 21.563844,0 c 0.766255,0 1.391215,-0.624961 1.391215,-1.391216 l 0,-38.954041 c 0,-0.766255 -0.62496,-1.391216 -1.391215,-1.391216 l -22.259452,0 0,-2.782431 z M 13.91623,2.786507 c 2.320504,0 4.173647,1.853143 4.173647,4.1736473 0,2.3205048 -1.853143,4.1736477 -4.173647,4.1736477 -2.320505,0 -4.1736476,-1.8531429 -4.1736476,-4.1736477 0,-2.3205043 1.8531426,-4.1736473 4.1736476,-4.1736473 z M 7.6557591,15.307449 c -4.2116887,0 -7.6516866,3.439998 -7.6516866,7.651686 l 0,17.129344 c -0.00543,0.05978 -0.00543,0.114123 0,0.173902 l 0,0.08695 c -0.00543,0.130427 0.010869,0.266287 0.043475,0.39128 0.2065092,2.103127 1.9781349,3.782368 4.1301717,3.782368 0.4891,0 0.9510268,-0.103255 1.3912158,-0.260853 l 0,14.868618 C 5.5689355,61.804488 7.7644478,64 10.43819,64 11.7968,64 13.030416,63.429385 13.91623,62.521833 14.802043,63.429385 16.03566,64 17.394269,64 c 2.673743,0 4.869255,-2.195512 4.869255,-4.869255 l 0,-35.476002 15.303373,0 c 2.287898,0 4.173648,-1.88575 4.173648,-4.173647 0,-2.260725 -1.836839,-4.124738 -4.086697,-4.173647 -0.02717,0 -0.05978,0 -0.08695,0 l -19.47702,0 c -0.53801,-0.0054 -1.027108,0.298894 -1.260789,0.782559 L 13.91623,21.915724 11.003372,16.090008 C 10.76969,15.606343 10.280592,15.302015 9.7425824,15.307449 Z m 0,2.782431 1.2173133,0 3.7823676,7.564736 c 0.228247,0.4891 0.72278,0.804297 1.26079,0.804297 0.538009,0 1.032543,-0.315197 1.260789,-0.804297 l 3.782368,-7.564736 18.60751,0 c 0.04348,0 0.08695,0 0.130427,0 0.722779,0.06521 1.260789,0.652133 1.260789,1.391216 0,0.787993 -0.603223,1.391216 -1.391216,1.391216 l -16.694589,0 c -0.766255,0 -1.391215,0.62496 -1.391215,1.391216 l 0,36.867217 c 0,1.168404 -0.91842,2.086824 -2.086824,2.086824 -1.097756,0 -1.983569,-0.804297 -2.086824,-1.869447 l 0,-0.347804 c 0,-0.04348 0,-0.08695 0,-0.130426 l 0,-14.346912 c 0.0163,-0.402148 -0.14673,-0.787993 -0.434755,-1.059716 -0.293458,-0.277155 -0.690173,-0.413017 -1.086887,-0.374976 -0.05978,0.01087 -0.119557,0.02717 -0.173902,0.04348 -0.646698,0.14673 -1.103191,0.728215 -1.086887,1.391216 l 0,14.346912 c -0.0054,0.05978 -0.0054,0.114123 0,0.173902 l 0,0.304328 c -0.103255,1.06515 -0.989067,1.869447 -2.086824,1.869447 -1.1684036,0 -2.0868226,-0.91842 -2.0868226,-2.086824 l 0,-32.69357 C 8.3622364,26.007854 8.1720314,25.600272 7.8405306,25.32855 7.5144644,25.056829 7.074274,24.953574 6.6558228,25.045959 c -0.6466983,0.14673 -1.103191,0.728215 -1.0868873,1.391216 l 0,13.69478 c 0,0.04347 0,0.08695 0,0.130426 l 0,0.08695 c 0,0.787993 -0.6032228,1.391216 -1.3912158,1.391216 -0.755387,0 -1.3477402,-0.559747 -1.3912157,-1.304265 0,-0.02717 0,-0.05978 0,-0.08695 0.01087,-0.08695 0.01087,-0.173902 0,-0.260853 l 0,-17.129344 c 0,-2.706348 2.1629064,-4.869255 4.8692551,-4.869255 z" />
  </symbol>
</svg>
