<?xml version="1.0" encoding="UTF-8" standalone="no"?>
<svg
   xmlns:dc="http://purl.org/dc/elements/1.1/"
   xmlns:cc="http://creativecommons.org/ns#"
   xmlns:rdf="http://www.w3.org/1999/02/22-rdf-syntax-ns#"
   xmlns:svg="http://www.w3.org/2000/svg"
   xmlns="http://www.w3.org/2000/svg"
   viewBox="0 0 462.06763 322.86099"
   height="322.86099"
   width="462.06763"
   xml:space="preserve"
   version="1.1"
   id="svg2"><metadata
     id="metadata8"><rdf:RDF><cc:Work
         rdf:about=""><dc:format>image/svg+xml</dc:format><dc:type
           rdf:resource="http://purl.org/dc/dcmitype/StillImage" /><dc:title></dc:title></cc:Work></rdf:RDF></metadata><defs
     id="defs6" /><g
     transform="matrix(1.25,0,0,-1.25,-83.701125,430.3425)"
     id="g10"><g
       transform="scale(0.1,0.1)"
       id="g12"><path
         id="path14"
         style="fill:#4991d5;fill-opacity:1;fill-rule:nonzero;stroke:none"
         d="m 726.73,867.719 122.398,0 0,594.492 -122.398,0 0,-594.492 z" /><path
         id="path16"
         style="fill:#4991d5;fill-opacity:1;fill-rule:nonzero;stroke:none"
         d="m 1135.87,1122.13 c 99.66,0 143.38,31.47 143.38,115.4 0,83.93 -45.47,117.15 -143.38,117.15 l -38.47,0 0,-232.55 38.47,0 z m 278.01,-254.411 -141.63,0 -97.92,150.371 c -11.36,-1.75 -23.6,-2.62 -34.97,-2.62 l -41.96,0 0,-147.751 -122.396,0 0,594.491 164.356,0 c 166.11,0 265.78,-79.56 265.78,-224.68 0,-92.67 -41.1,-151.25 -114.53,-184.47 l 123.27,-185.341" /><path
         id="path18"
         style="fill:#4991d5;fill-opacity:1;fill-rule:nonzero;stroke:none"
         d="m 1511.79,1462.21 393.4,0 0,-107.53 -271.01,0 0,-188.84 238.67,0 0,-104.91 -238.67,0 0,-85.68 283.26,0 0,-107.531 -405.65,0 0,594.491" /><path
         id="path20"
         style="fill:#4991d5;fill-opacity:1;fill-rule:nonzero;stroke:none"
         d="m 2031.08,1468.33 9.61,0 292.88,-321.73 288.5,321.73 10.49,0 0,-600.611 -118.02,0 0,222.931 c 0,40.22 4.37,104.04 4.37,104.04 0,0 -35.84,-52.46 -63.82,-83.93 l -118.02,-132.01 -11.37,0 -118.03,132.01 c -27.97,31.47 -63.81,83.93 -63.81,83.93 0,0 4.37,-63.82 4.37,-104.04 l 0,-222.931 -117.15,0 0,600.611" /><path
         id="path22"
         style="fill:#4991d5;fill-opacity:1;fill-rule:nonzero;stroke:none"
         d="m 2736.58,1164.96 c 0,175.73 135.51,304.24 305.99,304.24 107.53,0 184.46,-38.46 237.79,-121.52 l -93.54,-66.44 c -27.98,45.46 -76.07,77.81 -144.25,77.81 -107.54,0 -180.1,-83.06 -180.1,-194.09 0,-111.03 72.56,-195.831 180.1,-195.831 76.93,0 119.76,36.721 152.99,87.431 l 95.29,-65.572 c -51.58,-80.429 -133.76,-131.136 -248.28,-131.136 -170.48,0 -305.99,129.386 -305.99,305.108" /><path
         id="path24"
         style="fill:#4991d5;fill-opacity:1;fill-rule:nonzero;stroke:none"
         d="m 3655.4,1037.33 -42.83,103.16 c -17.49,41.96 -35.85,106.65 -35.85,106.65 0,0 -17.48,-64.69 -34.97,-106.65 l -42.84,-103.16 156.49,0 z m -82.18,430.12 10.49,0 271.89,-599.731 -128.51,0 -27.97,67.32 -241.3,0 -27.98,-67.32 -118.02,0 261.4,599.731" /><path
         id="path26"
         style="fill:#4991d5;fill-opacity:1;fill-rule:nonzero;stroke:none"
         d="m 4096.88,1110.76 c 99.66,0 143.37,40.21 143.37,121.52 0,82.18 -45.46,122.4 -143.37,122.4 l -38.46,0 0,-243.92 38.46,0 z m -160.87,351.45 164.37,0 c 166.1,0 265.77,-86.55 265.77,-229.93 0,-143.38 -100.54,-229.05 -265.77,-229.05 l -41.96,0 0,-135.511 -122.41,0 0,594.491" /><path
         id="path28"
         style="fill:#293f94;fill-opacity:1;fill-rule:nonzero;stroke:none"
         d="m 2990.76,2899.97 126.84,-61.9 612.04,298.68 -612.04,305.99 -480.88,-240.43 480.88,-240.43 -126.84,-61.91" /><path
         id="path30"
         style="fill:#293f94;fill-opacity:1;fill-rule:nonzero;stroke:none"
         d="m 2928.13,2400.84 189.47,-94.75 -425.35,-207.6 425.35,-207.6 612.04,298.71 -612.04,305.95 -189.47,-94.71" /><path
         id="path32"
         style="fill:#2c378f;fill-opacity:1;fill-rule:nonzero;stroke:none"
         d="m 3729.64,2961.88 -612.04,-306.05 612.04,-298.71 612.03,298.71 -612.03,306.05" /><path
         id="path34"
         style="fill:#254b9f;fill-opacity:1;fill-rule:nonzero;stroke:none"
         d="m 2371.24,2728.74 134.34,-65.57 485.18,236.8 -485.18,236.78 131.14,65.56 -131.14,65.56 -473.58,-236.77 473.58,-236.78 -134.34,-65.58" /><path
         id="path36"
         style="fill:#2d3486;fill-opacity:1;fill-rule:nonzero;stroke:none"
         d="m 2990.76,2899.97 126.84,61.91 -480.88,240.43 -131.14,-65.56 485.18,-236.78" /><path
         id="path38"
         style="fill:#254b9f;fill-opacity:1;fill-rule:nonzero;stroke:none"
         d="m 2928.13,2400.84 -422.55,211.3 -139.87,-69.94 139.87,-69.95 -476.24,-232.43 476.24,-232.43 186.67,91.1 -186.67,91.11 422.55,211.24" /><path
         id="path40"
         style="fill:#2d3486;fill-opacity:1;fill-rule:nonzero;stroke:none"
         d="m 2928.13,2400.84 -422.55,-211.24 186.67,-91.11 425.35,207.6 -189.47,94.75" /><path
         id="path42"
         style="fill:#2b60b4;fill-opacity:1;fill-rule:nonzero;stroke:none"
         d="m 1893.55,2778.3 286.12,-143.07 191.57,93.51 -477.69,233.14 138.45,69.22 -138.45,69.21 -470.55,-235.25 311.94,-166.07 158.61,79.31" /><path
         id="path44"
         style="fill:#293f94;fill-opacity:1;fill-rule:nonzero;stroke:none"
         d="m 2371.24,2728.74 134.34,65.58 -473.58,236.78 -138.45,-69.22 477.69,-233.14" /><path
         id="path46"
         style="fill:#2b60b4;fill-opacity:1;fill-rule:nonzero;stroke:none"
         d="m 2365.71,2542.2 -186.04,93.03 -286.12,-139.68 -126.25,61.63 -340.82,-155.68 467.07,-227.96 135.79,66.28 -135.79,66.27 472.16,236.11" /><path
         id="path48"
         style="fill:#293f94;fill-opacity:1;fill-rule:nonzero;stroke:none"
         d="m 2365.71,2542.2 -472.16,-236.11 135.79,-66.27 476.24,232.43 -139.87,69.95" /><path
         id="path50"
         style="fill:#2350a4;fill-opacity:1;fill-rule:nonzero;stroke:none"
         d="m 1734.94,2698.99 158.31,-84.28 -125.95,-57.53 126.25,-61.63 286.12,139.68 -286.12,143.07 -158.61,-79.31" /><path
         id="path52"
         style="fill:#447dc9;fill-opacity:1;fill-rule:nonzero;stroke:none"
         d="m 1607.43,2635.23 -325.92,159.09 141.49,70.74 -133.75,71.21 -619.641,-290.22 604.161,-314.31 152.71,69.76 -144.97,70.75 325.92,162.98" /><path
         id="path54"
         style="fill:#2350a4;fill-opacity:1;fill-rule:nonzero;stroke:none"
         d="m 1607.43,2635.23 127.51,63.76 -311.94,166.07 -141.49,-70.74 325.92,-159.09" /><path
         id="path56"
         style="fill:#2350a4;fill-opacity:1;fill-rule:nonzero;stroke:none"
         d="m 1607.43,2635.23 -325.92,-162.98 144.97,-70.75 340.82,155.68 -159.87,78.05" /><path
         id="path58"
         style="fill:#284294;fill-opacity:1;fill-rule:nonzero;stroke:none"
         d="m 1734.94,2698.99 -127.51,-63.76 159.87,-78.05 125.95,57.53 -158.31,84.28" /></g></g></svg>