<?xml version="1.0" encoding="utf-8"?>
<!-- Generator: Adobe Illustrator 23.0.1, SVG Export Plug-In . SVG Version: 6.00 Build 0)  -->
<svg version="1.1" id="Capa_1" xmlns="http://www.w3.org/2000/svg" xmlns:xlink="http://www.w3.org/1999/xlink" x="0px" y="0px"
	 viewBox="0 0 205 43" style="enable-background:new 0 0 205 43;" xml:space="preserve">
<style type="text/css">
	.st0{clip-path:url(#SVGID_2_);}
	.st1{clip-path:url(#SVGID_4_);}
	.st2{opacity:0.8;fill:#FFFFFF;enable-background:new    ;}
	.st3{opacity:0.6;fill:#FFFFFF;enable-background:new    ;}
	.st4{opacity:0.4;fill:#FFFFFF;enable-background:new    ;}
	.st5{opacity:0.2;fill:#FFFFFF;enable-background:new    ;}
	.st6{fill:#FFFFFF;}
	.st7{clip-path:url(#SVGID_6_);}
</style>
<g>
	<defs>
		<rect id="SVGID_1_" y="0.7" width="205" height="42.3"/>
	</defs>
	<clipPath id="SVGID_2_">
		<use xlink:href="#SVGID_1_"  style="overflow:visible;"/>
	</clipPath>
	<g class="st0">
		<g>
			<defs>
				<rect id="SVGID_3_" x="0" y="0.7" width="100" height="42.3"/>
			</defs>
			<clipPath id="SVGID_4_">
				<use xlink:href="#SVGID_3_"  style="overflow:visible;"/>
			</clipPath>
			<g class="st1">
				<path class="st2" d="M50,9l16.7-8.3L83.3,9l-16.7,8.1L50,9z"/>
				<path class="st3" d="M33.3,13.8L50,5.5l16.7,8.3L50,21.9L33.3,13.8z"/>
				<path class="st4" d="M16.7,18.4L33.3,10L50,18.4l-16.7,8.1L16.7,18.4z"/>
				<path class="st5" d="M0,22.8l16.7-8.3l16.7,8.3L16.7,31L0,22.8z"/>
				<path class="st4" d="M16.7,27.1l16.7-8.3L50,27.1l-16.7,8.1L16.7,27.1z"/>
				<path class="st3" d="M33.3,31.7L50,23.3l16.7,8.3L50,39.8L33.3,31.7z"/>
				<path class="st2" d="M50,34.8l16.7-8.3l16.7,8.3L66.7,43L50,34.8z"/>
				<path class="st6" d="M66.7,22.1l16.7-8.3l16.7,8.3l-16.7,8.1L66.7,22.1z"/>
			</g>
		</g>
		<g>
			<defs>
				<rect id="SVGID_5_" x="105" y="13.5" width="100" height="16.7"/>
			</defs>
			<clipPath id="SVGID_6_">
				<use xlink:href="#SVGID_5_"  style="overflow:visible;"/>
			</clipPath>
			<g class="st7">
				<path class="st6" d="M105,13.7h3.4V30H105V13.7z"/>
				<path class="st6" d="M123.9,30H120l-2.7-4.1c-0.3,0-0.6,0.1-1,0.1h-1.2V30h-3.4V13.7h4.5c4.6,0,7.3,2.2,7.3,6.2
					c0,2.5-1.1,4.2-3.1,5.1L123.9,30z M116.2,23c2.7,0,3.9-0.9,3.9-3.2c0-2.3-1.3-3.2-3.9-3.2h-1.1V23H116.2z"/>
				<path class="st6" d="M126.6,13.7h10.8v3h-7.4v5.2h6.6v2.9h-6.6V27h7.8v3h-11.1V13.7z"/>
				<path class="st6" d="M140.8,13.5h0.3l8,8.8l7.9-8.8h0.3V30h-3.2v-6.1c0-1.1,0.1-2.9,0.1-2.9s-1,1.4-1.8,2.3l-3.2,3.6h-0.3
					l-3.2-3.6c-0.8-0.9-1.8-2.3-1.8-2.3s0.1,1.8,0.1,2.9V30h-3.2L140.8,13.5L140.8,13.5z"/>
				<path class="st6" d="M160.2,21.8c0-4.8,3.7-8.4,8.4-8.4c3,0,5.1,1.1,6.5,3.3l-2.6,1.8c-0.8-1.3-2.1-2.1-4-2.1
					c-3,0-4.9,2.3-4.9,5.3c0,3,2,5.4,4.9,5.4c2.1,0,3.3-1,4.2-2.4l2.6,1.8c-1.4,2.2-3.7,3.6-6.8,3.6
					C163.9,30.2,160.2,26.7,160.2,21.8z"/>
				<path class="st6" d="M183.2,13.5h0.3L191,30h-3.5l-0.8-1.8H180l-0.8,1.8H176L183.2,13.5z M185.5,25.3l-1.2-2.8
					c-0.5-1.2-1-2.9-1-2.9s-0.5,1.8-1,2.9l-1.2,2.8H185.5z"/>
				<path class="st6" d="M193.2,13.7h4.5c4.6,0,7.3,2.4,7.3,6.3c0,3.9-2.8,6.3-7.3,6.3h-1.2V30h-3.4V13.7z M197.6,23.3
					c2.7,0,3.9-1.1,3.9-3.3c0-2.3-1.3-3.4-3.9-3.4h-1.1v6.7H197.6z"/>
			</g>
		</g>
	</g>
</g>
</svg>
