<?xml version="1.0" encoding="utf-8"?>
<!-- Generator: Adobe Illustrator 23.0.1, SVG Export Plug-In . SVG Version: 6.00 Build 0)  -->
<svg version="1.1" id="Capa_1" xmlns="http://www.w3.org/2000/svg" xmlns:xlink="http://www.w3.org/1999/xlink" x="0px" y="0px"
	 viewBox="0 0 205 43" style="enable-background:new 0 0 205 43;" xml:space="preserve">
<style type="text/css">
	.st0{clip-path:url(#SVGID_2_);}
	.st1{clip-path:url(#SVGID_4_);}
	.st2{fill:#293389;}
	.st3{fill:#2F2B85;}
	.st4{fill:#164193;}
	.st5{fill:#30287D;}
	.st6{fill:#005BA7;}
	.st7{fill:#064797;}
	.st8{fill:#327EC1;}
	.st9{fill:#253789;}
	.st10{clip-path:url(#SVGID_6_);}
	.st11{fill:#FFFFFF;}
</style>
<g>
	<defs>
		<rect id="SVGID_1_" width="205" height="42.3"/>
	</defs>
	<clipPath id="SVGID_2_">
		<use xlink:href="#SVGID_1_"  style="overflow:visible;"/>
	</clipPath>
	<g class="st0">
		<g>
			<defs>
				<rect id="SVGID_3_" width="100" height="42.3"/>
			</defs>
			<clipPath id="SVGID_4_">
				<use xlink:href="#SVGID_3_"  style="overflow:visible;"/>
			</clipPath>
			<g class="st1">
				<path class="st2" d="M63.2,14.8l3.5,1.7l16.7-8.1L66.7,0L53.6,6.5l13.1,6.5L63.2,14.8z"/>
				<path class="st2" d="M61.5,28.4l5.2,2.6l-11.6,5.7l11.6,5.7l16.7-8.1l-16.7-8.3L61.5,28.4z"/>
				<path class="st3" d="M83.3,13.1l-16.7,8.3l16.7,8.1l16.7-8.1L83.3,13.1z"/>
				<path class="st4" d="M46.3,19.4l3.7,1.8l13.2-6.4L50,8.3l3.6-1.8L50,4.8l-12.9,6.4L50,17.7L46.3,19.4z"/>
				<path class="st5" d="M63.2,14.8l3.5-1.7L53.6,6.5L50,8.3L63.2,14.8z"/>
				<path class="st4" d="M61.5,28.4L50,22.6l-3.8,1.9l3.8,1.9l-13,6.3l13,6.3l5.1-2.5L50,34.1L61.5,28.4z"/>
				<path class="st5" d="M61.5,28.4L50,34.1l5.1,2.5L66.7,31L61.5,28.4z"/>
				<path class="st6" d="M33.3,18.1l7.8,3.9l5.2-2.5l-13-6.3l3.8-1.9l-3.8-1.9l-12.8,6.4l8.5,4.5L33.3,18.1z"/>
				<path class="st2" d="M46.3,19.4l3.7-1.8l-12.9-6.4l-3.8,1.9L46.3,19.4z"/>
				<path class="st6" d="M46.2,24.5L41.1,22l-7.8,3.8l-3.4-1.7l-9.3,4.2l12.7,6.2l3.7-1.8L33.3,31L46.2,24.5z"/>
				<path class="st2" d="M46.2,24.5L33.3,31l3.7,1.8l13-6.3L46.2,24.5z"/>
				<path class="st7" d="M29,20.3l4.3,2.3l-3.4,1.6l3.4,1.7l7.8-3.8l-7.8-3.9L29,20.3z"/>
				<path class="st8" d="M25.5,22l-8.9-4.3l3.9-1.9l-3.6-1.9L0,21.7l16.5,8.6l4.2-1.9l-3.9-1.9L25.5,22z"/>
				<path class="st7" d="M25.5,22l3.5-1.7l-8.5-4.5l-3.9,1.9L25.5,22z"/>
				<path class="st7" d="M25.5,22l-8.9,4.4l3.9,1.9l9.3-4.2L25.5,22z"/>
				<path class="st9" d="M29,20.3L25.5,22l4.4,2.1l3.4-1.6L29,20.3z"/>
			</g>
		</g>
		<g>
			<defs>
				<rect id="SVGID_5_" x="105" y="12.8" width="100" height="16.7"/>
			</defs>
			<clipPath id="SVGID_6_">
				<use xlink:href="#SVGID_5_"  style="overflow:visible;"/>
			</clipPath>
			<g class="st10">
				<path class="st11" d="M105,13h3.4v16.3H105V13z"/>
				<path class="st11" d="M123.9,29.3H120l-2.7-4.1c-0.3,0-0.6,0.1-1,0.1h-1.2v4.1h-3.4V13h4.5c4.6,0,7.3,2.2,7.3,6.2
					c0,2.5-1.1,4.2-3.1,5.1L123.9,29.3z M116.2,22.3c2.7,0,3.9-0.9,3.9-3.2s-1.3-3.2-3.9-3.2h-1.1v6.4H116.2z"/>
				<path class="st11" d="M126.6,13h10.8v3h-7.4v5.2h6.6V24h-6.6v2.4h7.8v3h-11.1V13z"/>
				<path class="st11" d="M140.8,12.8h0.3l8,8.8l7.9-8.8h0.3v16.5h-3.2v-6.1c0-1.1,0.1-2.9,0.1-2.9s-1,1.4-1.8,2.3l-3.2,3.6h-0.3
					l-3.2-3.6c-0.8-0.9-1.8-2.3-1.8-2.3s0.1,1.8,0.1,2.9v6.1h-3.2L140.8,12.8L140.8,12.8z"/>
				<path class="st11" d="M160.2,21.1c0-4.8,3.7-8.4,8.4-8.4c3,0,5.1,1.1,6.5,3.3l-2.6,1.8c-0.8-1.3-2.1-2.1-4-2.1
					c-3,0-4.9,2.3-4.9,5.3c0,3,2,5.4,4.9,5.4c2.1,0,3.3-1,4.2-2.4l2.6,1.8c-1.4,2.2-3.7,3.6-6.8,3.6
					C163.9,29.5,160.2,25.9,160.2,21.1z"/>
				<path class="st11" d="M183.2,12.8h0.3l7.5,16.5h-3.5l-0.8-1.8H180l-0.8,1.8H176L183.2,12.8z M185.5,24.6l-1.2-2.8
					c-0.5-1.2-1-2.9-1-2.9s-0.5,1.8-1,2.9l-1.2,2.8H185.5z"/>
				<path class="st11" d="M193.2,13h4.5c4.6,0,7.3,2.4,7.3,6.3c0,3.9-2.8,6.3-7.3,6.3h-1.2v3.7h-3.4V13z M197.6,22.6
					c2.7,0,3.9-1.1,3.9-3.3c0-2.3-1.3-3.4-3.9-3.4h-1.1v6.7H197.6z"/>
			</g>
		</g>
	</g>
</g>
</svg>
