<svg width="75" height="75" viewBox="0 0 75 75" fill="none" xmlns="http://www.w3.org/2000/svg">
<path fill-rule="evenodd" clip-rule="evenodd" d="M37.5161 0C58.21 0 75 16.8031 75 37.5001C75 58.1971 58.21 75 37.5161 75C16.7904 75 0 58.1971 0 37.5001C0 16.8031 16.7904 0 37.5161 0ZM13.6162 51.7414C13.648 51.7414 24.0902 51.7438 24.0902 51.7438C20.2815 48.1729 17.9326 43.1105 17.9326 37.5001C17.9326 26.6959 26.693 17.9243 37.5161 17.9243C48.3076 17.9243 57.0674 26.6959 57.0674 37.5001C57.0674 43.1105 54.7185 48.1729 50.9412 51.7443C56.6226 51.7433 57.6702 51.7414 61.3839 51.7381C62.8438 51.7381 64.05 52.9338 64.05 54.407C64.05 55.8798 62.8438 57.0755 61.3839 57.0755H13.6162C12.1563 57.0755 10.95 55.8807 10.95 54.4084C10.95 52.9361 12.1563 51.7414 13.6162 51.7414ZM37.5161 23.3093C45.324 23.3093 51.7032 29.668 51.7032 37.5001C51.7032 45.332 45.324 51.6908 37.5161 51.6908C29.6765 51.6908 23.3283 45.332 23.3283 37.5001C23.3283 29.668 29.6765 23.3093 37.5161 23.3093Z" fill="#34D1B0"/>
</svg>
